Hangar-Regular.ufo
<glyph name="comma" format="2">
	<advance width="262"/>
	<unicode hex="002C"/>
	<note>
		comma
	</note>
	<outline>
		<contour>
			<point x="55" y="-121" type="curve"/>
			<point x="40" y="-77" type="line"/>
			<point x="77" y="-61"/>
			<point x="96" y="-45"/>
			<point x="101" y="-15" type="curve" smooth="yes"/>
			<point x="102" y="-10"/>
			<point x="102" y="-4"/>
			<point x="102" y="2" type="curve"/>
			<point x="132" y="6" type="line"/>
			<point x="129" y="-10"/>
			<point x="114" y="-15"/>
			<point x="102" y="-15" type="curve" smooth="yes"/>
			<point x="101" y="-15" type="line" smooth="yes"/>
			<point x="66" y="-15"/>
			<point x="47" y="8"/>
			<point x="47" y="40" type="curve" smooth="yes"/>
			<point x="47" y="69"/>
			<point x="70" y="95"/>
			<point x="102" y="95" type="curve" smooth="yes"/>
			<point x="137" y="95"/>
			<point x="160" y="70"/>
			<point x="160" y="19" type="curve" smooth="yes"/>
			<point x="160" y="-47"/>
			<point x="125" y="-99"/>
		</contour>
	</outline>
</glyph>
<glyph name="period" format="2">
	<advance width="200"/>
	<unicode hex="002E"/>
	<note>
		period
	</note>
	<outline>
		<contour>
			<point x="45" y="40" type="curve" smooth="yes"/>
			<point x="45" y="7"/>
			<point x="68" y="-15"/>
			<point x="100" y="-15" type="curve" smooth="yes"/>
			<point x="133" y="-15"/>
			<point x="155" y="7"/>
			<point x="155" y="40" type="curve" smooth="yes"/>
			<point x="155" y="72"/>
			<point x="133" y="95"/>
			<point x="100" y="95" type="curve" smooth="yes"/>
			<point x="68" y="95"/>
			<point x="45" y="72"/>
		</contour>
	</outline>
</glyph>
<glyph name="zero" format="2">
	<advance width="592"/>
	<unicode hex="0030"/>
	<note>
		zero
	</note>
	<outline>
		<contour>
			<point x="296" y="-15" type="curve" smooth="yes"/>
			<point x="478" y="-15"/>
			<point x="542" y="175"/>
			<point x="542" y="340" type="curve" smooth="yes"/>
			<point x="542" y="505"/>
			<point x="478" y="689"/>
			<point x="296" y="689" type="curve" smooth="yes"/>
			<point x="114" y="689"/>
			<point x="50" y="505"/>
			<point x="50" y="340" type="curve" smooth="yes"/>
			<point x="50" y="175"/>
			<point x="114" y="-15"/>
		</contour>
		<contour>
			<point x="135" y="341" type="curve" smooth="yes"/>
			<point x="135" y="496"/>
			<point x="184" y="618"/>
			<point x="296" y="618" type="curve" smooth="yes"/>
			<point x="408" y="618"/>
			<point x="457" y="496"/>
			<point x="457" y="341" type="curve" smooth="yes"/>
			<point x="457" y="186"/>
			<point x="408" y="57"/>
			<point x="296" y="57" type="curve" smooth="yes"/>
			<point x="184" y="57"/>
			<point x="135" y="186"/>
		</contour>
		<contour>
			<point x="246" y="337" type="curve" smooth="yes"/>
			<point x="246" y="308"/>
			<point x="269" y="287"/>
			<point x="296" y="287" type="curve" smooth="yes"/>
			<point x="324" y="287"/>
			<point x="346" y="308"/>
			<point x="346" y="337" type="curve" smooth="yes"/>
			<point x="346" y="363"/>
			<point x="324" y="387"/>
			<point x="296" y="387" type="curve" smooth="yes"/>
			<point x="269" y="387"/>
			<point x="246" y="363"/>
		</contour>
	</outline>
</glyph>
<glyph name="one" format="2">
	<advance width="411"/>
	<unicode hex="0031"/>
	<note>
		one
	</note>
	<outline>
		<contour>
			<point x="53" y="0" type="line"/>
			<point x="53" y="72" type="line"/>
			<point x="271" y="72" type="line"/>
			<point x="271" y="55" type="line"/>
			<point x="193" y="55" type="line"/>
			<point x="193" y="578" type="line"/>
			<point x="69" y="482" type="line"/>
			<point x="27" y="541" type="line"/>
			<point x="198" y="674" type="line"/>
			<point x="271" y="674" type="line"/>
			<point x="271" y="72" type="line"/>
			<point x="401" y="72" type="line"/>
			<point x="401" y="0" type="line"/>
		</contour>
	</outline>
</glyph>
<glyph name="three" format="2">
	<advance width="447"/>
	<unicode hex="0033"/>
	<note>
		three
	</note>
	<outline>
		<contour>
			<point x="138" y="385" type="curve"/>
			<point x="138" y="332" type="line"/>
			<point x="261" y="322"/>
			<point x="317" y="255"/>
			<point x="317" y="180" type="curve" smooth="yes"/>
			<point x="317" y="114"/>
			<point x="274" y="57"/>
			<point x="196" y="57" type="curve" smooth="yes"/>
			<point x="155" y="57"/>
			<point x="107" y="73"/>
			<point x="65" y="100" type="curve"/>
			<point x="23" y="43" type="line"/>
			<point x="76" y="4"/>
			<point x="138" y="-15"/>
			<point x="197" y="-15" type="curve" smooth="yes"/>
			<point x="305" y="-15"/>
			<point x="402" y="50"/>
			<point x="402" y="180" type="curve" smooth="yes"/>
			<point x="402" y="257"/>
			<point x="355" y="338"/>
			<point x="262" y="366" type="curve"/>
			<point x="330" y="394"/>
			<point x="372" y="451"/>
			<point x="372" y="515" type="curve" smooth="yes"/>
			<point x="372" y="628"/>
			<point x="290" y="689"/>
			<point x="198" y="689" type="curve" smooth="yes"/>
			<point x="138" y="689"/>
			<point x="76" y="665"/>
			<point x="25" y="616" type="curve"/>
			<point x="67" y="565" type="line"/>
			<point x="106" y="597"/>
			<point x="148" y="617"/>
			<point x="184" y="617" type="curve" smooth="yes"/>
			<point x="242" y="617"/>
			<point x="287" y="586"/>
			<point x="287" y="517" type="curve" smooth="yes"/>
			<point x="287" y="461"/>
			<point x="242" y="397"/>
		</contour>
	</outline>
</glyph>
<glyph name="four" format="2">
	<advance width="524"/>
	<unicode hex="0034"/>
	<note>
		four
	</note>
	<outline>
		<contour>
			<point x="25" y="277" type="line"/>
			<point x="25" y="210" type="line"/>
			<point x="330" y="210" type="line"/>
			<point x="330" y="71" type="line"/>
			<point x="237" y="71" type="line"/>
			<point x="237" y="0" type="line"/>
			<point x="488" y="0" type="line"/>
			<point x="488" y="71" type="line"/>
			<point x="407" y="71" type="line"/>
			<point x="407" y="210" type="line"/>
			<point x="488" y="210" type="line"/>
			<point x="488" y="282" type="line"/>
			<point x="407" y="282" type="line"/>
			<point x="407" y="689" type="line"/>
			<point x="311" y="689" type="line"/>
		</contour>
		<contour>
			<point x="331" y="282" type="line"/>
			<point x="117" y="282" type="line"/>
			<point x="331" y="592" type="line"/>
		</contour>
	</outline>
</glyph>
<glyph name="five" format="2">
	<advance width="472"/>
	<unicode hex="0035"/>
	<note>
		five
	</note>
	<outline>
		<contour>
			<point x="432" y="210" type="curve" smooth="yes"/>
			<point x="432" y="351"/>
			<point x="329" y="419"/>
			<point x="142" y="421" type="curve"/>
			<point x="142" y="602" type="line"/>
			<point x="387" y="602" type="line"/>
			<point x="387" y="674" type="line"/>
			<point x="66" y="674" type="line"/>
			<point x="66" y="350" type="line"/>
			<point x="126" y="350" type="line" smooth="yes"/>
			<point x="279" y="350"/>
			<point x="347" y="292"/>
			<point x="347" y="202" type="curve" smooth="yes"/>
			<point x="347" y="101"/>
			<point x="289" y="57"/>
			<point x="217" y="57" type="curve" smooth="yes"/>
			<point x="175" y="57"/>
			<point x="129" y="73"/>
			<point x="87" y="99" type="curve"/>
			<point x="45" y="43" type="line"/>
			<point x="96" y="5"/>
			<point x="158" y="-15"/>
			<point x="217" y="-15" type="curve" smooth="yes"/>
			<point x="329" y="-15"/>
			<point x="432" y="56"/>
		</contour>
	</outline>
</glyph>
<glyph name="six" format="2">
	<advance width="502"/>
	<unicode hex="0036"/>
	<note>
		six
	</note>
	<outline>
		<contour>
			<point x="128" y="252" type="curve" smooth="yes"/>
			<point x="128" y="265"/>
			<point x="128" y="277"/>
			<point x="129" y="289" type="curve"/>
			<point x="176" y="323"/>
			<point x="225" y="341"/>
			<point x="268" y="341" type="curve" smooth="yes"/>
			<point x="333" y="341"/>
			<point x="383" y="299"/>
			<point x="383" y="208" type="curve" smooth="yes"/>
			<point x="383" y="103"/>
			<point x="346" y="57"/>
			<point x="255" y="57" type="curve" smooth="yes"/>
			<point x="156" y="57"/>
			<point x="128" y="154"/>
		</contour>
		<contour>
			<point x="43" y="245" type="curve" smooth="yes"/>
			<point x="43" y="81"/>
			<point x="111" y="-15"/>
			<point x="255" y="-15" type="curve" smooth="yes"/>
			<point x="344" y="-15"/>
			<point x="468" y="21"/>
			<point x="468" y="208" type="curve" smooth="yes"/>
			<point x="468" y="354"/>
			<point x="376" y="412"/>
			<point x="283" y="412" type="curve" smooth="yes"/>
			<point x="232" y="412"/>
			<point x="181" y="396"/>
			<point x="143" y="368" type="curve"/>
			<point x="169" y="462"/>
			<point x="232" y="551"/>
			<point x="354" y="641" type="curve"/>
			<point x="310" y="689" type="line"/>
			<point x="205" y="622"/>
			<point x="43" y="498"/>
		</contour>
	</outline>
</glyph>
<glyph name="seven" format="2">
	<advance width="454"/>
	<unicode hex="0037"/>
	<note>
		seven
	</note>
	<outline>
		<contour>
			<point x="351" y="602" type="line"/>
			<point x="35" y="602" type="line"/>
			<point x="35" y="674" type="line"/>
			<point x="436" y="674" type="line"/>
			<point x="436" y="602" type="line"/>
			<point x="138" y="0" type="line"/>
			<point x="53" y="0" type="line"/>
		</contour>
	</outline>
</glyph>
<glyph name="question" format="2">
	<advance width="455"/>
	<unicode hex="003F"/>
	<note>
		question
	</note>
	<outline>
		<contour>
			<point x="150" y="309" type="curve"/>
			<point x="150" y="143" type="line"/>
			<point x="223" y="143" type="line"/>
			<point x="223" y="255" type="line"/>
			<point x="315" y="275"/>
			<point x="405" y="350"/>
			<point x="405" y="475" type="curve" smooth="yes"/>
			<point x="405" y="602"/>
			<point x="326" y="686"/>
			<point x="196" y="689" type="curve" smooth="yes"/>
			<point x="102" y="691"/>
			<point x="30" y="643"/>
			<point x="-10" y="538" type="curve"/>
			<point x="55" y="506" type="line"/>
			<point x="84" y="577"/>
			<point x="123" y="616"/>
			<point x="192" y="616" type="curve" smooth="yes"/>
			<point x="289" y="616"/>
			<point x="326" y="543"/>
			<point x="327" y="479" type="curve" smooth="yes"/>
			<point x="329" y="371"/>
			<point x="258" y="316"/>
		</contour>
		<contour>
			<point x="131" y="40" type="curve" smooth="yes"/>
			<point x="131" y="7"/>
			<point x="154" y="-15"/>
			<point x="186" y="-15" type="curve" smooth="yes"/>
			<point x="219" y="-15"/>
			<point x="241" y="7"/>
			<point x="241" y="40" type="curve" smooth="yes"/>
			<point x="241" y="72"/>
			<point x="219" y="95"/>
			<point x="186" y="95" type="curve" smooth="yes"/>
			<point x="154" y="95"/>
			<point x="131" y="72"/>
		</contour>
	</outline>
</glyph>
<glyph name="at" format="2">
	<advance width="724"/>
	<unicode hex="0040"/>
	<note>
		at
	</note>
	<outline>
		<contour>
			<point x="516" y="46" type="curve"/>
			<point x="564" y="-6" type="line"/>
			<point x="512" y="-51"/>
			<point x="430" y="-68"/>
			<point x="369" y="-68" type="curve" smooth="yes"/>
			<point x="230" y="-68"/>
			<point x="55" y="4"/>
			<point x="55" y="257" type="curve" smooth="yes"/>
			<point x="55" y="500"/>
			<point x="217" y="584"/>
			<point x="370" y="584" type="curve" smooth="yes"/>
			<point x="503" y="584"/>
			<point x="669" y="509"/>
			<point x="669" y="258" type="curve" smooth="yes"/>
			<point x="669" y="193"/>
			<point x="649" y="75"/>
			<point x="529" y="78" type="curve"/>
			<point x="545" y="142" type="line"/>
			<point x="587" y="141"/>
			<point x="600" y="209"/>
			<point x="600" y="260" type="curve" smooth="yes"/>
			<point x="600" y="456"/>
			<point x="463" y="515"/>
			<point x="370" y="515" type="curve" smooth="yes"/>
			<point x="269" y="515"/>
			<point x="129" y="473"/>
			<point x="129" y="258" type="curve" smooth="yes"/>
			<point x="129" y="34"/>
			<point x="285" y="1"/>
			<point x="369" y="1" type="curve" smooth="yes"/>
			<point x="411" y="1"/>
			<point x="476" y="8"/>
		</contour>
		<contour>
			<point x="232" y="186" type="curve" smooth="yes"/>
			<point x="232" y="100"/>
			<point x="298" y="78"/>
			<point x="345" y="78" type="curve" smooth="yes"/>
			<point x="384" y="78"/>
			<point x="426" y="101"/>
			<point x="448" y="130" type="curve"/>
			<point x="463" y="95"/>
			<point x="501" y="78"/>
			<point x="529" y="78" type="curve"/>
			<point x="545" y="142" type="line"/>
			<point x="522" y="142"/>
			<point x="504" y="150"/>
			<point x="504" y="186" type="curve" smooth="yes"/>
			<point x="504" y="306" type="line" smooth="yes"/>
			<point x="504" y="387"/>
			<point x="457" y="441"/>
			<point x="370" y="441" type="curve" smooth="yes"/>
			<point x="305" y="441"/>
			<point x="257" y="417"/>
			<point x="248" y="412" type="curve"/>
			<point x="263" y="359" type="line"/>
			<point x="267" y="358"/>
			<point x="313" y="381"/>
			<point x="358" y="381" type="curve" smooth="yes"/>
			<point x="426" y="381"/>
			<point x="442" y="354"/>
			<point x="442" y="283" type="curve" smooth="yes"/>
			<point x="442" y="280" type="line"/>
			<point x="423" y="288"/>
			<point x="386" y="296"/>
			<point x="356" y="296" type="curve" smooth="yes"/>
			<point x="296" y="296"/>
			<point x="232" y="270"/>
		</contour>
		<contour>
			<point x="294" y="191" type="curve" smooth="yes"/>
			<point x="294" y="222"/>
			<point x="325" y="245"/>
			<point x="363" y="245" type="curve" smooth="yes"/>
			<point x="391" y="245"/>
			<point x="421" y="233"/>
			<point x="442" y="225" type="curve"/>
			<point x="442" y="192" type="line"/>
			<point x="417" y="159"/>
			<point x="389" y="141"/>
			<point x="348" y="141" type="curve" smooth="yes"/>
			<point x="323" y="141"/>
			<point x="294" y="158"/>
		</contour>
	</outline>
</glyph>
<glyph name="D" format="2">
	<advance width="655"/>
	<unicode hex="0044"/>
	<note>
		D
	</note>
	<outline>
		<contour>
			<point x="292" y="674" type="curve" smooth="yes"/>
			<point x="62" y="674" type="line"/>
			<point x="62" y="0" type="line"/>
			<point x="294" y="0" type="line" smooth="yes"/>
			<point x="549" y="0"/>
			<point x="597" y="204"/>
			<point x="597" y="342" type="curve" smooth="yes"/>
			<point x="597" y="490"/>
			<point x="547" y="674"/>
		</contour>
		<contour>
			<point x="294" y="72" type="curve" smooth="yes"/>
			<point x="140" y="72" type="line"/>
			<point x="140" y="602" type="line"/>
			<point x="292" y="602" type="line" smooth="yes"/>
			<point x="473" y="602"/>
			<point x="512" y="477"/>
			<point x="512" y="342" type="curve" smooth="yes"/>
			<point x="512" y="217"/>
			<point x="475" y="72"/>
		</contour>
	</outline>
</glyph>
<glyph name="G" format="2">
	<advance width="657"/>
	<unicode hex="0047"/>
	<note>
		G
	</note>
	<outline>
		<contour>
			<point x="586" y="323" type="line"/>
			<point x="336" y="323" type="line"/>
			<point x="336" y="251" type="line"/>
			<point x="508" y="251" type="line"/>
			<point x="509" y="138" type="line"/>
			<point x="485" y="93"/>
			<point x="432" y="60"/>
			<point x="351" y="60" type="curve" smooth="yes"/>
			<point x="248" y="60"/>
			<point x="145" y="125"/>
			<point x="145" y="340" type="curve" smooth="yes"/>
			<point x="145" y="559"/>
			<point x="250" y="615"/>
			<point x="346" y="615" type="curve" smooth="yes"/>
			<point x="444" y="615"/>
			<point x="513" y="541"/>
			<point x="513" y="464" type="curve"/>
			<point x="591" y="464" type="line"/>
			<point x="584" y="630"/>
			<point x="458" y="690"/>
			<point x="333" y="690" type="curve" smooth="yes"/>
			<point x="205" y="690"/>
			<point x="60" y="605"/>
			<point x="60" y="341" type="curve" smooth="yes"/>
			<point x="60" y="77"/>
			<point x="204" y="-15"/>
			<point x="352" y="-15" type="curve" smooth="yes"/>
			<point x="465" y="-15"/>
			<point x="545" y="37"/>
			<point x="586" y="108" type="curve"/>
		</contour>
	</outline>
</glyph>
<glyph name="J" format="2">
	<advance width="462"/>
	<unicode hex="004A"/>
	<note>
		J
	</note>
	<outline>
		<contour>
			<point x="37" y="82" type="curve"/>
			<point x="18" y="16" type="line"/>
			<point x="55" y="-4"/>
			<point x="104" y="-15"/>
			<point x="153" y="-15" type="curve" smooth="yes"/>
			<point x="301" y="-15"/>
			<point x="394" y="73"/>
			<point x="394" y="212" type="curve" smooth="yes"/>
			<point x="394" y="674" type="line"/>
			<point x="156" y="674" type="line"/>
			<point x="156" y="602" type="line"/>
			<point x="316" y="602" type="line"/>
			<point x="316" y="212" type="line" smooth="yes"/>
			<point x="316" y="98"/>
			<point x="232" y="60"/>
			<point x="147" y="60" type="curve" smooth="yes"/>
			<point x="108" y="60"/>
			<point x="68" y="69"/>
		</contour>
	</outline>
</glyph>
<glyph name="K" format="2">
	<advance width="544"/>
	<unicode hex="004B"/>
	<note>
		K
	</note>
	<outline>
		<contour>
			<point x="142" y="316" type="line"/>
			<point x="142" y="0" type="line"/>
			<point x="64" y="0" type="line"/>
			<point x="64" y="674" type="line"/>
			<point x="142" y="674" type="line"/>
			<point x="142" y="316" type="line"/>
			<point x="136" y="322" type="line"/>
			<point x="136" y="367" type="line"/>
			<point x="439" y="674" type="line"/>
			<point x="538" y="674" type="line"/>
			<point x="213" y="344" type="line"/>
			<point x="562" y="0" type="line"/>
			<point x="453" y="0" type="line"/>
		</contour>
	</outline>
</glyph>
<glyph name="O" format="2">
	<advance width="686"/>
	<unicode hex="004F"/>
	<note>
		O
	</note>
	<outline>
		<contour>
			<point x="344" y="689" type="curve" smooth="yes"/>
			<point x="482" y="689"/>
			<point x="628" y="606"/>
			<point x="628" y="342" type="curve" smooth="yes"/>
			<point x="628" y="78"/>
			<point x="482" y="-15"/>
			<point x="344" y="-15" type="curve" smooth="yes"/>
			<point x="206" y="-15"/>
			<point x="60" y="78"/>
			<point x="60" y="342" type="curve" smooth="yes"/>
			<point x="60" y="606"/>
			<point x="206" y="689"/>
		</contour>
		<contour>
			<point x="145" y="342" type="curve" smooth="yes"/>
			<point x="145" y="123"/>
			<point x="252" y="60"/>
			<point x="344" y="60" type="curve" smooth="yes"/>
			<point x="436" y="60"/>
			<point x="543" y="123"/>
			<point x="543" y="342" type="curve" smooth="yes"/>
			<point x="543" y="561"/>
			<point x="436" y="614"/>
			<point x="344" y="614" type="curve" smooth="yes"/>
			<point x="252" y="614"/>
			<point x="145" y="561"/>
		</contour>
	</outline>
</glyph>
<glyph name="P" format="2">
	<advance width="572"/>
	<unicode hex="0050"/>
	<note>
		P
	</note>
	<outline>
		<contour>
			<point x="142" y="262" type="line"/>
			<point x="142" y="0" type="line"/>
			<point x="64" y="0" type="line"/>
			<point x="64" y="674" type="line"/>
			<point x="339" y="674" type="line" smooth="yes"/>
			<point x="487" y="674"/>
			<point x="548" y="570"/>
			<point x="548" y="472" type="curve" smooth="yes"/>
			<point x="548" y="374"/>
			<point x="487" y="262"/>
			<point x="339" y="262" type="curve" smooth="yes"/>
		</contour>
		<contour>
			<point x="142" y="602" type="line"/>
			<point x="142" y="334" type="line"/>
			<point x="339" y="334" type="line" smooth="yes"/>
			<point x="413" y="334"/>
			<point x="463" y="387"/>
			<point x="463" y="472" type="curve" smooth="yes"/>
			<point x="463" y="557"/>
			<point x="413" y="602"/>
			<point x="339" y="602" type="curve" smooth="yes"/>
		</contour>
	</outline>
</glyph>
<glyph name="S" format="2">
	<advance width="617"/>
	<unicode hex="0053"/>
	<note>
		S
	</note>
	<outline>
		<contour>
			<point x="311" y="61" type="curve" smooth="yes"/>
			<point x="207" y="61"/>
			<point x="144" y="103"/>
			<point x="112" y="178" type="curve"/>
			<point x="44" y="146" type="line"/>
			<point x="86" y="38"/>
			<point x="178" y="-14"/>
			<point x="311" y="-14" type="curve" smooth="yes"/>
			<point x="448" y="-14"/>
			<point x="557" y="53"/>
			<point x="557" y="176" type="curve" smooth="yes"/>
			<point x="557" y="317"/>
			<point x="426" y="354"/>
			<point x="330" y="385" type="curve" smooth="yes"/>
			<point x="250" y="411"/>
			<point x="153" y="429"/>
			<point x="153" y="510" type="curve" smooth="yes"/>
			<point x="153" y="552"/>
			<point x="192" y="616"/>
			<point x="294" y="616" type="curve" smooth="yes"/>
			<point x="376" y="616"/>
			<point x="433" y="590"/>
			<point x="473" y="529" type="curve"/>
			<point x="542" y="561" type="line"/>
			<point x="490" y="656"/>
			<point x="405" y="691"/>
			<point x="294" y="691" type="curve" smooth="yes"/>
			<point x="171" y="691"/>
			<point x="68" y="625"/>
			<point x="68" y="507" type="curve" smooth="yes"/>
			<point x="68" y="380"/>
			<point x="190" y="340"/>
			<point x="284" y="311" type="curve" smooth="yes"/>
			<point x="379" y="282"/>
			<point x="472" y="260"/>
			<point x="472" y="176" type="curve" smooth="yes"/>
			<point x="472" y="90"/>
			<point x="386" y="61"/>
		</contour>
	</outline>
</glyph>
<glyph name="T" format="2">
	<advance width="530"/>
	<unicode hex="0054"/>
	<note>
		T
	</note>
	<outline>
		<contour>
			<point x="304" y="602" type="line"/>
			<point x="514" y="602" type="line"/>
			<point x="514" y="674" type="line"/>
			<point x="16" y="674" type="line"/>
			<point x="16" y="602" type="line"/>
			<point x="226" y="602" type="line"/>
			<point x="226" y="0" type="line"/>
			<point x="304" y="0" type="line"/>
		</contour>
	</outline>
</glyph>
<glyph name="V" format="2">
	<advance width="585"/>
	<unicode hex="0056"/>
	<note>
		V
	</note>
	<outline>
		<contour>
			<point x="496" y="674" type="line"/>
			<point x="297" y="71" type="line"/>
			<point x="105" y="674" type="line"/>
			<point x="18" y="674" type="line"/>
			<point x="243" y="0" type="line"/>
			<point x="347" y="0" type="line"/>
			<point x="575" y="674" type="line"/>
		</contour>
	</outline>
</glyph>
<glyph name="g" format="2">
	<advance width="544"/>
	<unicode hex="0067"/>
	<note>
		g
	</note>
	<outline>
		<contour>
			<point x="501" y="431" type="curve" smooth="yes"/>
			<point x="506" y="433" type="line"/>
			<point x="491" y="507" type="line"/>
			<point x="453" y="506"/>
			<point x="421" y="482"/>
			<point x="413" y="454" type="curve" smooth="yes"/>
			<point x="407" y="432" type="line"/>
			<point x="379" y="477"/>
			<point x="330" y="513"/>
			<point x="261" y="513" type="curve" smooth="yes"/>
			<point x="137" y="513"/>
			<point x="52" y="414"/>
			<point x="52" y="258" type="curve" smooth="yes"/>
			<point x="52" y="113"/>
			<point x="129" y="2"/>
			<point x="261" y="2" type="curve" smooth="yes"/>
			<point x="331" y="2"/>
			<point x="375" y="35"/>
			<point x="399" y="69" type="curve"/>
			<point x="399" y="-6" type="line" smooth="yes"/>
			<point x="399" y="-93"/>
			<point x="343" y="-125"/>
			<point x="267" y="-127" type="curve" smooth="yes"/>
			<point x="208" y="-129"/>
			<point x="152" y="-95"/>
			<point x="126" y="-76" type="curve"/>
			<point x="90" y="-124" type="line"/>
			<point x="104" y="-139"/>
			<point x="167" y="-197"/>
			<point x="274" y="-197" type="curve" smooth="yes"/>
			<point x="361" y="-197"/>
			<point x="475" y="-152"/>
			<point x="475" y="-6" type="curve" smooth="yes"/>
			<point x="475" y="399" type="line" smooth="yes"/>
			<point x="475" y="413"/>
			<point x="485" y="425"/>
		</contour>
		<contour>
			<point x="133" y="258" type="curve" smooth="yes"/>
			<point x="133" y="380"/>
			<point x="193" y="444"/>
			<point x="275" y="444" type="curve" smooth="yes"/>
			<point x="327" y="444"/>
			<point x="377" y="415"/>
			<point x="399" y="342" type="curve"/>
			<point x="399" y="168" type="line"/>
			<point x="370" y="92"/>
			<point x="327" y="69"/>
			<point x="270" y="69" type="curve" smooth="yes"/>
			<point x="213" y="69"/>
			<point x="133" y="109"/>
		</contour>
	</outline>
</glyph>
<glyph name="i" format="2">
	<advance width="232"/>
	<unicode hex="0069"/>
	<note>
		i
	</note>
	<outline>
		<contour>
			<point x="152" y="500" type="line"/>
			<point x="152" y="1" type="line"/>
			<point x="76" y="1" type="line"/>
			<point x="76" y="500" type="line"/>
		</contour>
		<contour>
			<point x="61" y="632" type="curve" smooth="yes"/>
			<point x="61" y="599"/>
			<point x="84" y="577"/>
			<point x="116" y="577" type="curve" smooth="yes"/>
			<point x="149" y="577"/>
			<point x="171" y="599"/>
			<point x="171" y="632" type="curve" smooth="yes"/>
			<point x="171" y="664"/>
			<point x="149" y="687"/>
			<point x="116" y="687" type="curve" smooth="yes"/>
			<point x="84" y="687"/>
			<point x="61" y="664"/>
		</contour>
	</outline>
</glyph>
<glyph name="k" format="2">
	<advance width="458"/>
	<unicode hex="006B"/>
	<note>
		k
	</note>
	<outline>
		<contour>
			<point x="148" y="234" type="line"/>
			<point x="370" y="0" type="line"/>
			<point x="466" y="0" type="line"/>
			<point x="223" y="265" type="line"/>
			<point x="453" y="500" type="line"/>
			<point x="346" y="500" type="line"/>
			<point x="148" y="288" type="line"/>
			<point x="148" y="700" type="line"/>
			<point x="72" y="700" type="line"/>
			<point x="72" y="0" type="line"/>
			<point x="148" y="0" type="line"/>
		</contour>
	</outline>
</glyph>
<glyph name="l" format="2">
	<advance width="218"/>
	<unicode hex="006C"/>
	<note>
		l
	</note>
	<outline>
		<contour>
			<point x="144" y="158" type="curve" smooth="yes"/>
			<point x="144" y="700" type="line"/>
			<point x="68" y="700" type="line"/>
			<point x="68" y="116" type="line" smooth="yes"/>
			<point x="68" y="29"/>
			<point x="124" y="-1"/>
			<point x="165" y="-8" type="curve"/>
			<point x="188" y="65" type="line"/>
			<point x="147" y="78"/>
			<point x="144" y="106"/>
		</contour>
	</outline>
</glyph>
<glyph name="p" format="2">
	<advance width="559"/>
	<unicode hex="0070"/>
	<note>
		p
	</note>
	<outline>
		<contour>
			<point x="290" y="515" type="curve" smooth="yes"/>
			<point x="221" y="515"/>
			<point x="172" y="479"/>
			<point x="144" y="434" type="curve"/>
			<point x="138" y="456" type="line" smooth="yes"/>
			<point x="129" y="489"/>
			<point x="98" y="508"/>
			<point x="60" y="509" type="curve"/>
			<point x="38" y="446" type="line"/>
			<point x="44" y="444" type="line" smooth="yes"/>
			<point x="64" y="437"/>
			<point x="75" y="418"/>
			<point x="75" y="399" type="curve" smooth="yes"/>
			<point x="76" y="-195" type="line"/>
			<point x="152" y="-195" type="line"/>
			<point x="152" y="53" type="line"/>
			<point x="176" y="19"/>
			<point x="220" y="-15"/>
			<point x="290" y="-15" type="curve" smooth="yes"/>
			<point x="422" y="-15"/>
			<point x="499" y="98"/>
			<point x="499" y="243" type="curve" smooth="yes"/>
			<point x="499" y="409"/>
			<point x="423" y="515"/>
		</contour>
		<contour>
			<point x="152" y="153" type="curve"/>
			<point x="152" y="341" type="line"/>
			<point x="174" y="414"/>
			<point x="224" y="446"/>
			<point x="276" y="446" type="curve" smooth="yes"/>
			<point x="366" y="446"/>
			<point x="418" y="375"/>
			<point x="418" y="243" type="curve" smooth="yes"/>
			<point x="418" y="97"/>
			<point x="341" y="54"/>
			<point x="280" y="54" type="curve" smooth="yes"/>
			<point x="221" y="54"/>
			<point x="166" y="99"/>
		</contour>
	</outline>
</glyph>
<glyph name="r" format="2">
	<advance width="346"/>
	<unicode hex="0072"/>
	<note>
		r
	</note>
	<outline>
		<contour>
			<point x="79" y="0" type="line"/>
			<point x="155" y="0" type="line"/>
			<point x="155" y="390" type="line"/>
			<point x="155" y="391" type="line"/>
			<point x="181" y="413"/>
			<point x="225" y="441"/>
			<point x="273" y="441" type="curve" smooth="yes"/>
			<point x="291" y="441"/>
			<point x="304" y="437"/>
			<point x="314" y="434" type="curve"/>
			<point x="338" y="508" type="line"/>
			<point x="323" y="513"/>
			<point x="309" y="515"/>
			<point x="283" y="515" type="curve" smooth="yes"/>
			<point x="226" y="515"/>
			<point x="177" y="482"/>
			<point x="143" y="451" type="curve"/>
			<point x="124" y="490"/>
			<point x="87" y="504"/>
			<point x="58" y="509" type="curve"/>
			<point x="35" y="446" type="line"/>
			<point x="76" y="433"/>
			<point x="79" y="410"/>
			<point x="79" y="358" type="curve" smooth="yes"/>
		</contour>
	</outline>
</glyph>
<glyph name="s" format="2">
	<advance width="465"/>
	<unicode hex="0073"/>
	<note>
		s
	</note>
	<outline>
		<contour>
			<point x="223" y="-15" type="curve" smooth="yes"/>
			<point x="335" y="-15"/>
			<point x="420" y="45"/>
			<point x="420" y="136" type="curve" smooth="yes"/>
			<point x="420" y="243"/>
			<point x="332" y="267"/>
			<point x="236" y="292" type="curve" smooth="yes"/>
			<point x="174" y="308"/>
			<point x="123" y="324"/>
			<point x="123" y="375" type="curve" smooth="yes"/>
			<point x="123" y="407"/>
			<point x="150" y="450"/>
			<point x="225" y="450" type="curve" smooth="yes"/>
			<point x="285" y="450"/>
			<point x="331" y="423"/>
			<point x="361" y="383" type="curve"/>
			<point x="411" y="426" type="line"/>
			<point x="373" y="483"/>
			<point x="308" y="515"/>
			<point x="225" y="515" type="curve" smooth="yes"/>
			<point x="128" y="515"/>
			<point x="48" y="460"/>
			<point x="48" y="374" type="curve" smooth="yes"/>
			<point x="48" y="287"/>
			<point x="105" y="251"/>
			<point x="202" y="225" type="curve" smooth="yes"/>
			<point x="270" y="207"/>
			<point x="344" y="194"/>
			<point x="343" y="133" type="curve" smooth="yes"/>
			<point x="342" y="81"/>
			<point x="288" y="50"/>
			<point x="223" y="50" type="curve" smooth="yes"/>
			<point x="163" y="50"/>
			<point x="115" y="77"/>
			<point x="85" y="117" type="curve"/>
			<point x="35" y="74" type="line"/>
			<point x="73" y="17"/>
			<point x="140" y="-15"/>
		</contour>
	</outline>
</glyph>
<glyph name="t" format="2">
	<advance width="295"/>
	<unicode hex="0074"/>
	<note>
		t
	</note>
	<outline>
		<contour>
			<point x="15" y="501" type="line"/>
			<point x="91" y="501" type="line"/>
			<point x="91" y="587" type="line"/>
			<point x="167" y="587" type="line"/>
			<point x="167" y="500" type="line"/>
			<point x="285" y="500" type="line"/>
			<point x="285" y="436" type="line"/>
			<point x="167" y="436" type="line"/>
			<point x="167" y="123" type="line" smooth="yes"/>
			<point x="167" y="78"/>
			<point x="190" y="52"/>
			<point x="224" y="52" type="curve" smooth="yes"/>
			<point x="243" y="52"/>
			<point x="263" y="58"/>
			<point x="285" y="70" type="curve"/>
			<point x="285" y="11" type="line"/>
			<point x="256" y="-9"/>
			<point x="226" y="-16"/>
			<point x="195" y="-13" type="curve" smooth="yes"/>
			<point x="134" y="-7"/>
			<point x="91" y="36"/>
			<point x="91" y="117" type="curve" smooth="yes"/>
			<point x="91" y="436" type="line"/>
			<point x="15" y="436" type="line"/>
		</contour>
	</outline>
</glyph>
<glyph name="v" format="2">
	<advance width="506"/>
	<unicode hex="0076"/>
	<note>
		v
	</note>
	<outline>
		<contour>
			<point x="296" y="0" type="line"/>
			<point x="476" y="500" type="line"/>
			<point x="398" y="500" type="line"/>
			<point x="250" y="84" type="line"/>
			<point x="107" y="500" type="line"/>
			<point x="25" y="500" type="line"/>
			<point x="205" y="0" type="line"/>
		</contour>
	</outline>
</glyph>
<glyph name="w" format="2">
	<advance width="828"/>
	<unicode hex="0077"/>
	<note>
		w
	</note>
	<outline>
		<contour>
			<point x="624" y="0" type="line"/>
			<point x="798" y="500" type="line"/>
			<point x="720" y="500" type="line"/>
			<point x="589" y="101" type="line"/>
			<point x="452" y="500" type="line"/>
			<point x="380" y="500" type="line"/>
			<point x="250" y="102" type="line"/>
			<point x="119" y="500" type="line"/>
			<point x="35" y="500" type="line"/>
			<point x="211" y="0" type="line"/>
			<point x="285" y="0" type="line"/>
			<point x="415" y="377" type="line"/>
			<point x="551" y="0" type="line"/>
		</contour>
	</outline>
</glyph>
<glyph name="z" format="2">
	<advance width="445"/>
	<unicode hex="007A"/>
	<note>
		z
	</note>
	<outline>
		<contour>
			<point x="310" y="430" type="line"/>
			<point x="40" y="77" type="line"/>
			<point x="40" y="0" type="line"/>
			<point x="410" y="0" type="line"/>
			<point x="410" y="70" type="line"/>
			<point x="123" y="70" type="line"/>
			<point x="396" y="426" type="line"/>
			<point x="396" y="500" type="line"/>
			<point x="51" y="500" type="line"/>
			<point x="51" y="430" type="line"/>
		</contour>
	</outline>
</glyph>
<glyph name="questiondown" format="2">
	<advance width="395"/>
	<unicode hex="00BF"/>
	<note>
		questiondown
	</note>
	<outline>
		<contour>
			<point x="305" y="221" type="curve"/>
			<point x="305" y="387" type="line"/>
			<point x="232" y="387" type="line"/>
			<point x="232" y="275" type="line"/>
			<point x="140" y="255"/>
			<point x="50" y="180"/>
			<point x="50" y="55" type="curve" smooth="yes"/>
			<point x="50" y="-72"/>
			<point x="130" y="-156"/>
			<point x="259" y="-159" type="curve" smooth="yes"/>
			<point x="353" y="-161"/>
			<point x="425" y="-113"/>
			<point x="465" y="-8" type="curve"/>
			<point x="400" y="24" type="line"/>
			<point x="371" y="-47"/>
			<point x="332" y="-86"/>
			<point x="263" y="-86" type="curve" smooth="yes"/>
			<point x="166" y="-86"/>
			<point x="129" y="-13"/>
			<point x="128" y="51" type="curve" smooth="yes"/>
			<point x="126" y="159"/>
			<point x="197" y="214"/>
		</contour>
		<contour>
			<point x="214" y="490" type="curve" smooth="yes"/>
			<point x="214" y="458"/>
			<point x="236" y="435"/>
			<point x="269" y="435" type="curve" smooth="yes"/>
			<point x="301" y="435"/>
			<point x="324" y="458"/>
			<point x="324" y="490" type="curve" smooth="yes"/>
			<point x="324" y="523"/>
			<point x="301" y="545"/>
			<point x="269" y="545" type="curve" smooth="yes"/>
			<point x="236" y="545"/>
			<point x="214" y="523"/>
		</contour>
	</outline>
</glyph>
<glyph name="Eacute" format="2">
	<advance width="548"/>
	<unicode hex="00C9"/>
	<note>
		Eacute
	</note>
	<outline>
		<contour>
			<point x="142" y="602" type="line"/>
			<point x="504" y="602" type="line"/>
			<point x="504" y="674" type="line"/>
			<point x="64" y="674" type="line"/>
			<point x="64" y="0" type="line"/>
			<point x="506" y="0" type="line"/>
			<point x="506" y="72" type="line"/>
			<point x="142" y="72" type="line"/>
			<point x="142" y="311" type="line"/>
			<point x="481" y="311" type="line"/>
			<point x="481" y="383" type="line"/>
			<point x="142" y="383" type="line"/>
		</contour>
		<contour>
			<point x="363" y="937" type="line"/>
			<point x="227" y="773" type="line"/>
			<point x="271" y="732" type="line"/>
			<point x="423" y="882" type="line"/>
		</contour>
	</outline>
</glyph>
<glyph name="Ntilde" format="2">
	<advance width="605"/>
	<unicode hex="00D1"/>
	<note>
		Ntilde
	</note>
	<outline>
		<contour>
			<point x="565" y="0" type="line"/>
			<point x="565" y="674" type="line"/>
			<point x="487" y="674" type="line"/>
			<point x="487" y="130" type="line"/>
			<point x="148" y="674" type="line"/>
			<point x="60" y="674" type="line"/>
			<point x="60" y="0" type="line"/>
			<point x="138" y="0" type="line"/>
			<point x="138" y="549" type="line"/>
			<point x="482" y="0" type="line"/>
		</contour>
		<contour>
			<point x="124" y="760" type="curve"/>
			<point x="183" y="744" type="line"/>
			<point x="183" y="779"/>
			<point x="200" y="817"/>
			<point x="230" y="817" type="curve" smooth="yes"/>
			<point x="258" y="817"/>
			<point x="278" y="796"/>
			<point x="309" y="779" type="curve" smooth="yes"/>
			<point x="335" y="763"/>
			<point x="359" y="745"/>
			<point x="397" y="745" type="curve" smooth="yes"/>
			<point x="450" y="745"/>
			<point x="493" y="797"/>
			<point x="493" y="876" type="curve"/>
			<point x="434" y="892" type="line"/>
			<point x="434" y="857"/>
			<point x="417" y="819"/>
			<point x="387" y="819" type="curve" smooth="yes"/>
			<point x="359" y="819"/>
			<point x="339" y="840"/>
			<point x="308" y="857" type="curve" smooth="yes"/>
			<point x="282" y="873"/>
			<point x="258" y="891"/>
			<point x="220" y="891" type="curve" smooth="yes"/>
			<point x="167" y="891"/>
			<point x="124" y="839"/>
		</contour>
	</outline>
</glyph>
<glyph name="Oacute" format="2">
	<advance width="686"/>
	<unicode hex="00D3"/>
	<note>
		Oacute
	</note>
	<outline>
		<contour>
			<point x="344" y="689" type="curve" smooth="yes"/>
			<point x="482" y="689"/>
			<point x="628" y="606"/>
			<point x="628" y="342" type="curve" smooth="yes"/>
			<point x="628" y="78"/>
			<point x="482" y="-15"/>
			<point x="344" y="-15" type="curve" smooth="yes"/>
			<point x="206" y="-15"/>
			<point x="60" y="78"/>
			<point x="60" y="342" type="curve" smooth="yes"/>
			<point x="60" y="606"/>
			<point x="206" y="689"/>
		</contour>
		<contour>
			<point x="145" y="342" type="curve" smooth="yes"/>
			<point x="145" y="123"/>
			<point x="252" y="60"/>
			<point x="344" y="60" type="curve" smooth="yes"/>
			<point x="436" y="60"/>
			<point x="543" y="123"/>
			<point x="543" y="342" type="curve" smooth="yes"/>
			<point x="543" y="561"/>
			<point x="436" y="614"/>
			<point x="344" y="614" type="curve" smooth="yes"/>
			<point x="252" y="614"/>
			<point x="145" y="561"/>
		</contour>
		<contour>
			<point x="398" y="937" type="line"/>
			<point x="262" y="773" type="line"/>
			<point x="306" y="732" type="line"/>
			<point x="458" y="882" type="line"/>
		</contour>
	</outline>
</glyph>
<glyph name="Uacute" format="2">
	<advance width="670"/>
	<unicode hex="00DA"/>
	<note>
		Uacute
	</note>
	<outline>
		<contour>
			<point x="335" y="-15" type="curve" smooth="yes"/>
			<point x="468" y="-14"/>
			<point x="608" y="64"/>
			<point x="608" y="333" type="curve" smooth="yes"/>
			<point x="608" y="675" type="line"/>
			<point x="530" y="675" type="line"/>
			<point x="530" y="335" type="line" smooth="yes"/>
			<point x="530" y="116"/>
			<point x="423" y="57"/>
			<point x="335" y="57" type="curve" smooth="yes"/>
			<point x="247" y="57"/>
			<point x="140" y="116"/>
			<point x="140" y="335" type="curve" smooth="yes"/>
			<point x="140" y="675" type="line"/>
			<point x="62" y="675" type="line"/>
			<point x="62" y="333" type="line" smooth="yes"/>
			<point x="62" y="64"/>
			<point x="201" y="-16"/>
		</contour>
		<contour>
			<point x="383" y="937" type="line"/>
			<point x="247" y="773" type="line"/>
			<point x="291" y="732" type="line"/>
			<point x="443" y="882" type="line"/>
		</contour>
	</outline>
</glyph>
<glyph name="aacute" format="2">
	<advance width="507"/>
	<unicode hex="00E1"/>
	<note>
		aacute
	</note>
	<outline>
		<contour>
			<point x="170" y="607" type="line"/>
			<point x="214" y="566" type="line"/>
			<point x="366" y="716" type="line"/>
			<point x="306" y="771" type="line"/>
		</contour>
		<contour>
			<point x="30" y="143" type="curve" smooth="yes"/>
			<point x="30" y="14"/>
			<point x="120" y="-15"/>
			<point x="189" y="-15" type="curve" smooth="yes"/>
			<point x="246" y="-15"/>
			<point x="304" y="18"/>
			<point x="335" y="60" type="curve"/>
			<point x="351" y="13"/>
			<point x="392" y="-4"/>
			<point x="424" y="-9" type="curve"/>
			<point x="447" y="54" type="line"/>
			<point x="406" y="67"/>
			<point x="403" y="90"/>
			<point x="403" y="142" type="curve" smooth="yes"/>
			<point x="403" y="318" type="line" smooth="yes"/>
			<point x="403" y="438"/>
			<point x="350" y="515"/>
			<point x="224" y="515" type="curve" smooth="yes"/>
			<point x="133" y="515"/>
			<point x="66" y="481"/>
			<point x="51" y="473" type="curve"/>
			<point x="75" y="414" type="line"/>
			<point x="75" y="414"/>
			<point x="143" y="448"/>
			<point x="208" y="448" type="curve" smooth="yes"/>
			<point x="305" y="448"/>
			<point x="327" y="387"/>
			<point x="327" y="285" type="curve" smooth="yes"/>
			<point x="327" y="279" type="line"/>
			<point x="299" y="291"/>
			<point x="248" y="305"/>
			<point x="205" y="305" type="curve" smooth="yes"/>
			<point x="119" y="305"/>
			<point x="30" y="280"/>
		</contour>
		<contour>
			<point x="109" y="148" type="curve" smooth="yes"/>
			<point x="109" y="213"/>
			<point x="132" y="241"/>
			<point x="213" y="241" type="curve" smooth="yes"/>
			<point x="254" y="241"/>
			<point x="286" y="232"/>
			<point x="327" y="219" type="curve"/>
			<point x="327" y="135" type="line"/>
			<point x="291" y="87"/>
			<point x="242" y="52"/>
			<point x="187" y="52" type="curve" smooth="yes"/>
			<point x="137" y="52"/>
			<point x="109" y="82"/>
		</contour>
	</outline>
</glyph>
<glyph name="ntilde" format="2">
	<advance width="544"/>
	<unicode hex="00F1"/>
	<note>
		ntilde
	</note>
	<outline>
		<contour>
			<point x="302" y="515" type="curve" smooth="yes"/>
			<point x="237" y="515"/>
			<point x="181" y="483"/>
			<point x="145" y="457" type="curve"/>
			<point x="125" y="491"/>
			<point x="91" y="504"/>
			<point x="63" y="509" type="curve"/>
			<point x="40" y="446" type="line"/>
			<point x="81" y="433"/>
			<point x="84" y="410"/>
			<point x="84" y="358" type="curve" smooth="yes"/>
			<point x="84" y="0" type="line"/>
			<point x="160" y="0" type="line"/>
			<point x="160" y="393" type="line"/>
			<point x="188" y="415"/>
			<point x="233" y="444"/>
			<point x="284" y="444" type="curve" smooth="yes"/>
			<point x="381" y="444"/>
			<point x="403" y="383"/>
			<point x="403" y="281" type="curve" smooth="yes"/>
			<point x="403" y="0" type="line"/>
			<point x="479" y="0" type="line"/>
			<point x="479" y="317" type="line" smooth="yes"/>
			<point x="479" y="437"/>
			<point x="425" y="515"/>
		</contour>
		<contour>
			<point x="109" y="575" type="curve"/>
			<point x="159" y="561" type="line"/>
			<point x="162" y="593"/>
			<point x="174" y="625"/>
			<point x="203" y="625" type="curve" smooth="yes"/>
			<point x="225" y="625"/>
			<point x="242" y="610"/>
			<point x="267" y="592" type="curve" smooth="yes"/>
			<point x="286" y="578"/>
			<point x="311" y="562"/>
			<point x="346" y="562" type="curve" smooth="yes"/>
			<point x="390" y="562"/>
			<point x="429" y="608"/>
			<point x="432" y="678" type="curve"/>
			<point x="382" y="692" type="line"/>
			<point x="379" y="660"/>
			<point x="368" y="628"/>
			<point x="339" y="628" type="curve" smooth="yes"/>
			<point x="317" y="628"/>
			<point x="304" y="637"/>
			<point x="278" y="656" type="curve" smooth="yes"/>
			<point x="257" y="671"/>
			<point x="230" y="691"/>
			<point x="196" y="691" type="curve" smooth="yes"/>
			<point x="152" y="691"/>
			<point x="112" y="645"/>
		</contour>
	</outline>
</glyph>
<glyph name="oacute" format="2">
	<advance width="529"/>
	<unicode hex="00F3"/>
	<note>
		oacute
	</note>
	<outline>
		<contour>
			<point x="368" y="716" type="line"/>
			<point x="308" y="771" type="line"/>
			<point x="172" y="607" type="line"/>
			<point x="216" y="566" type="line"/>
		</contour>
		<contour>
			<point x="50" y="255" type="curve" smooth="yes"/>
			<point x="50" y="455"/>
			<point x="158" y="515"/>
			<point x="262" y="515" type="curve" smooth="yes"/>
			<point x="366" y="515"/>
			<point x="479" y="455"/>
			<point x="479" y="255" type="curve" smooth="yes"/>
			<point x="479" y="55"/>
			<point x="366" y="-15"/>
			<point x="262" y="-15" type="curve" smooth="yes"/>
			<point x="158" y="-15"/>
			<point x="50" y="55"/>
		</contour>
		<contour>
			<point x="129" y="255" type="curve" smooth="yes"/>
			<point x="129" y="100"/>
			<point x="192" y="50"/>
			<point x="262" y="50" type="curve" smooth="yes"/>
			<point x="332" y="50"/>
			<point x="400" y="100"/>
			<point x="400" y="255" type="curve" smooth="yes"/>
			<point x="400" y="410"/>
			<point x="332" y="450"/>
			<point x="262" y="450" type="curve" smooth="yes"/>
			<point x="192" y="450"/>
			<point x="129" y="410"/>
		</contour>
	</outline>
</glyph>
<glyph name="uacute" format="2">
	<advance width="552"/>
	<unicode hex="00FA"/>
	<note>
		uacute
	</note>
	<outline>
		<contour>
			<point x="198" y="607" type="line"/>
			<point x="242" y="566" type="line"/>
			<point x="394" y="716" type="line"/>
			<point x="334" y="771" type="line"/>
		</contour>
		<contour>
			<point x="70" y="500" type="line"/>
			<point x="70" y="143" type="line" smooth="yes"/>
			<point x="70" y="14"/>
			<point x="167" y="-15"/>
			<point x="246" y="-15" type="curve" smooth="yes"/>
			<point x="303" y="-15"/>
			<point x="361" y="18"/>
			<point x="392" y="60" type="curve"/>
			<point x="408" y="13"/>
			<point x="449" y="-4"/>
			<point x="481" y="-9" type="curve"/>
			<point x="504" y="54" type="line"/>
			<point x="463" y="67"/>
			<point x="460" y="90"/>
			<point x="460" y="142" type="curve" smooth="yes"/>
			<point x="460" y="500" type="line"/>
			<point x="384" y="500" type="line"/>
			<point x="384" y="134" type="line"/>
			<point x="348" y="86"/>
			<point x="299" y="51"/>
			<point x="244" y="51" type="curve" smooth="yes"/>
			<point x="184" y="51"/>
			<point x="146" y="81"/>
			<point x="146" y="147" type="curve" smooth="yes"/>
			<point x="146" y="500" type="line"/>
		</contour>
	</outline>
</glyph>
<glyph name="udieresis" format="2">
	<advance width="539"/>
	<unicode hex="00FC"/>
	<note>
		udieresis
	</note>
	<outline>
		<contour>
			<point x="460" y="142" type="curve" smooth="yes"/>
			<point x="460" y="500" type="line"/>
			<point x="384" y="500" type="line"/>
			<point x="384" y="134" type="line"/>
			<point x="348" y="86"/>
			<point x="299" y="51"/>
			<point x="244" y="51" type="curve" smooth="yes"/>
			<point x="184" y="51"/>
			<point x="146" y="81"/>
			<point x="146" y="147" type="curve" smooth="yes"/>
			<point x="146" y="500" type="line"/>
			<point x="70" y="500" type="line"/>
			<point x="70" y="143" type="line" smooth="yes"/>
			<point x="70" y="14"/>
			<point x="167" y="-15"/>
			<point x="246" y="-15" type="curve" smooth="yes"/>
			<point x="303" y="-15"/>
			<point x="361" y="18"/>
			<point x="392" y="60" type="curve"/>
			<point x="408" y="13"/>
			<point x="449" y="-4"/>
			<point x="481" y="-9" type="curve"/>
			<point x="504" y="54" type="line"/>
			<point x="463" y="67"/>
			<point x="460" y="90"/>
		</contour>
		<contour>
			<point x="112" y="626" type="curve" smooth="yes"/>
			<point x="112" y="593"/>
			<point x="135" y="571"/>
			<point x="167" y="571" type="curve" smooth="yes"/>
			<point x="200" y="571"/>
			<point x="222" y="593"/>
			<point x="222" y="626" type="curve" smooth="yes"/>
			<point x="222" y="658"/>
			<point x="200" y="681"/>
			<point x="167" y="681" type="curve" smooth="yes"/>
			<point x="135" y="681"/>
			<point x="112" y="658"/>
		</contour>
		<contour>
			<point x="312" y="626" type="curve" smooth="yes"/>
			<point x="312" y="593"/>
			<point x="335" y="571"/>
			<point x="367" y="571" type="curve" smooth="yes"/>
			<point x="400" y="571"/>
			<point x="422" y="593"/>
			<point x="422" y="626" type="curve" smooth="yes"/>
			<point x="422" y="658"/>
			<point x="400" y="681"/>
			<point x="367" y="681" type="curve" smooth="yes"/>
			<point x="335" y="681"/>
			<point x="312" y="658"/>
		</contour>
	</outline>
</glyph>
<glyph name="quotedblright" format="2">
	<advance width="442"/>
	<unicode hex="201D"/>
	<note>
		quotedblright
	</note>
	<outline>
		<contour>
			<point x="143" y="700" type="line"/>
			<point x="50" y="500" type="line"/>
			<point x="140" y="500" type="line"/>
			<point x="233" y="700" type="line"/>
		</contour>
		<contour>
			<point x="302" y="700" type="line"/>
			<point x="209" y="500" type="line"/>
			<point x="299" y="500" type="line"/>
			<point x="392" y="700" type="line"/>
		</contour>
	</outline>
</glyph>
<glyph name="uni2196" format="2">
	<advance width="718"/>
	<unicode hex="2196"/>
	<note>
		uni2196
	</note>
	<outline>
		<contour>
			<point x="120" y="653" type="curve"/>
			<point x="100" y="633" type="line"/>
			<point x="136" y="564"/>
			<point x="125" y="377"/>
			<point x="103" y="265" type="curve"/>
			<point x="180" y="262" type="line"/>
			<point x="198" y="353"/>
			<point x="203" y="416"/>
			<point x="191" y="524" type="curve"/>
			<point x="299" y="376"/>
			<point x="442" y="165"/>
			<point x="539" y="37" type="curve"/>
			<point x="618" y="97" type="line"/>
			<point x="241" y="558" type="line"/>
			<point x="341" y="540"/>
			<point x="439" y="549"/>
			<point x="486" y="570" type="curve"/>
			<point x="470" y="651" type="line"/>
			<point x="410" y="625"/>
			<point x="188" y="617"/>
		</contour>
	</outline>
</glyph>
<glyph name="uni2198" format="2">
	<advance width="708"/>
	<unicode hex="2198"/>
	<note>
		uni2198
	</note>
	<outline>
		<contour>
			<point x="588" y="2" type="curve"/>
			<point x="608" y="22" type="line"/>
			<point x="572" y="91"/>
			<point x="583" y="278"/>
			<point x="605" y="390" type="curve"/>
			<point x="528" y="393" type="line"/>
			<point x="510" y="302"/>
			<point x="505" y="239"/>
			<point x="517" y="131" type="curve"/>
			<point x="411" y="275"/>
			<point x="276" y="470"/>
			<point x="179" y="598" type="curve"/>
			<point x="100" y="538" type="line"/>
			<point x="466" y="97" type="line"/>
			<point x="367" y="115"/>
			<point x="269" y="106"/>
			<point x="222" y="85" type="curve"/>
			<point x="238" y="4" type="line"/>
			<point x="298" y="30"/>
			<point x="520" y="38"/>
		</contour>
	</outline>
</glyph>
<glyph name="uni2199" format="2">
	<advance width="709"/>
	<unicode hex="2199"/>
	<note>
		uni2199
	</note>
	<outline>
		<contour>
			<point x="100" y="22" type="curve"/>
			<point x="120" y="2" type="line"/>
			<point x="188" y="38"/>
			<point x="410" y="30"/>
			<point x="470" y="4" type="curve"/>
			<point x="486" y="85" type="line"/>
			<point x="440" y="105"/>
			<point x="335" y="114"/>
			<point x="236" y="96" type="curve"/>
			<point x="609" y="538" type="line"/>
			<point x="530" y="598" type="line"/>
			<point x="191" y="132" type="line"/>
			<point x="207" y="230"/>
			<point x="203" y="309"/>
			<point x="187" y="393" type="curve"/>
			<point x="103" y="390" type="line"/>
			<point x="125" y="278"/>
			<point x="136" y="91"/>
		</contour>
	</outline>
</glyph>
<glyph name="uni2B88" format="2">
	<advance width="878"/>
	<unicode hex="2B88"/>
	<note>
		uni2B88
	</note>
	<outline>
		<contour>
			<point x="434" y="689" type="curve" smooth="yes"/>
			<point x="622" y="689"/>
			<point x="778" y="596"/>
			<point x="778" y="342" type="curve" smooth="yes"/>
			<point x="778" y="88"/>
			<point x="622" y="-16"/>
			<point x="434" y="-15" type="curve" smooth="yes"/>
			<point x="247" y="-14"/>
			<point x="100" y="88"/>
			<point x="100" y="342" type="curve" smooth="yes"/>
			<point x="100" y="596"/>
			<point x="246" y="689"/>
		</contour>
		<contour>
			<point x="200" y="410" type="curve"/>
			<point x="200" y="390" type="line"/>
			<point x="253" y="374"/>
			<point x="367" y="266"/>
			<point x="367" y="227" type="curve"/>
			<point x="436" y="227" type="line"/>
			<point x="436" y="264"/>
			<point x="377" y="349"/>
			<point x="307" y="381" type="curve"/>
			<point x="428" y="375" type="line" smooth="yes"/>
			<point x="494" y="372"/>
			<point x="545" y="319"/>
			<point x="545" y="227" type="curve" smooth="yes"/>
			<point x="545" y="118" type="line"/>
			<point x="613" y="118" type="line"/>
			<point x="613" y="205" type="line" smooth="yes"/>
			<point x="613" y="321"/>
			<point x="579" y="420"/>
			<point x="440" y="422" type="curve" smooth="yes"/>
			<point x="379" y="423"/>
			<point x="311" y="420"/>
			<point x="311" y="420" type="curve"/>
			<point x="381" y="452"/>
			<point x="436" y="538"/>
			<point x="436" y="572" type="curve"/>
			<point x="367" y="572" type="line"/>
			<point x="367" y="534"/>
			<point x="253" y="427"/>
		</contour>
	</outline>
</glyph>
<glyph name="uniFF03" format="2">
	<advance width="642"/>
	<unicode hex="FF03"/>
	<note>
		uniFF03
	</note>
	<outline>
		<contour>
			<point x="156" y="166" type="line"/>
			<point x="156" y="0" type="line"/>
			<point x="232" y="0" type="line"/>
			<point x="232" y="166" type="line"/>
			<point x="423" y="166" type="line"/>
			<point x="423" y="0" type="line"/>
			<point x="499" y="0" type="line"/>
			<point x="499" y="166" type="line"/>
			<point x="602" y="166" type="line"/>
			<point x="602" y="238" type="line"/>
			<point x="499" y="238" type="line"/>
			<point x="499" y="426" type="line"/>
			<point x="602" y="426" type="line"/>
			<point x="602" y="498" type="line"/>
			<point x="499" y="498" type="line"/>
			<point x="499" y="674" type="line"/>
			<point x="423" y="674" type="line"/>
			<point x="423" y="498" type="line"/>
			<point x="232" y="498" type="line"/>
			<point x="232" y="674" type="line"/>
			<point x="156" y="674" type="line"/>
			<point x="156" y="498" type="line"/>
			<point x="40" y="498" type="line"/>
			<point x="40" y="426" type="line"/>
			<point x="156" y="426" type="line"/>
			<point x="156" y="238" type="line"/>
			<point x="40" y="238" type="line"/>
			<point x="40" y="166" type="line"/>
		</contour>
		<contour>
			<point x="423" y="238" type="line"/>
			<point x="232" y="238" type="line"/>
			<point x="232" y="426" type="line"/>
			<point x="423" y="426" type="line"/>
		</contour>
	</outline>
</glyph>
<glyph name="uniFF0F" format="2">
	<advance width="444"/>
	<unicode hex="FF0F"/>
	<note>
		uniFF0F
	</note>
	<outline>
		<contour>
			<point x="344" y="674" type="line"/>
			<point x="30" y="0" type="line"/>
			<point x="120" y="0" type="line"/>
			<point x="434" y="674" type="line"/>
		</contour>
	</outline>
</glyph>
<glyph name="uniFF1B" format="2">
	<advance width="200"/>
	<unicode hex="FF1B"/>
	<note>
		uniFF1B
	</note>
	<outline>
		<contour>
			<point x="55" y="-121" type="curve"/>
			<point x="40" y="-77" type="line"/>
			<point x="77" y="-61"/>
			<point x="96" y="-45"/>
			<point x="101" y="-15" type="curve" smooth="yes"/>
			<point x="102" y="-10"/>
			<point x="102" y="-4"/>
			<point x="102" y="2" type="curve"/>
			<point x="132" y="6" type="line"/>
			<point x="129" y="-10"/>
			<point x="114" y="-15"/>
			<point x="102" y="-15" type="curve" smooth="yes"/>
			<point x="101" y="-15" type="line" smooth="yes"/>
			<point x="66" y="-15"/>
			<point x="47" y="8"/>
			<point x="47" y="40" type="curve" smooth="yes"/>
			<point x="47" y="69"/>
			<point x="70" y="95"/>
			<point x="102" y="95" type="curve" smooth="yes"/>
			<point x="137" y="95"/>
			<point x="160" y="70"/>
			<point x="160" y="19" type="curve" smooth="yes"/>
			<point x="160" y="-47"/>
			<point x="125" y="-99"/>
		</contour>
		<contour>
			<point x="45" y="410" type="curve" smooth="yes"/>
			<point x="45" y="377"/>
			<point x="68" y="355"/>
			<point x="100" y="355" type="curve" smooth="yes"/>
			<point x="133" y="355"/>
			<point x="155" y="377"/>
			<point x="155" y="410" type="curve" smooth="yes"/>
			<point x="155" y="442"/>
			<point x="133" y="465"/>
			<point x="100" y="465" type="curve" smooth="yes"/>
			<point x="68" y="465"/>
			<point x="45" y="442"/>
		</contour>
	</outline>
</glyph>
<glyph name="B.ss01" format="2">
	<advance width="621"/>
	<note>
		B.ss01
	</note>
	<outline>
		<contour>
			<point x="60" y="642" type="curve" smooth="yes"/>
			<point x="60" y="659"/>
			<point x="75" y="674"/>
			<point x="93" y="674" type="curve" smooth="yes"/>
			<point x="111" y="674"/>
			<point x="125" y="659"/>
			<point x="125" y="642" type="curve" smooth="yes"/>
			<point x="125" y="624"/>
			<point x="111" y="609"/>
			<point x="93" y="609" type="curve" smooth="yes"/>
			<point x="76" y="609"/>
			<point x="60" y="624"/>
		</contour>
		<contour>
			<point x="60" y="33" type="curve" smooth="yes"/>
			<point x="60" y="14"/>
			<point x="75" y="0"/>
			<point x="93" y="0" type="curve" smooth="yes"/>
			<point x="112" y="0"/>
			<point x="125" y="14"/>
			<point x="125" y="33" type="curve" smooth="yes"/>
			<point x="125" y="50"/>
			<point x="112" y="65"/>
			<point x="93" y="65" type="curve" smooth="yes"/>
			<point x="75" y="65"/>
			<point x="60" y="49"/>
		</contour>
		<contour>
			<point x="60" y="120" type="curve" smooth="yes"/>
			<point x="60" y="101"/>
			<point x="75" y="87"/>
			<point x="93" y="87" type="curve" smooth="yes"/>
			<point x="112" y="87"/>
			<point x="125" y="101"/>
			<point x="125" y="120" type="curve" smooth="yes"/>
			<point x="125" y="137"/>
			<point x="112" y="152"/>
			<point x="93" y="152" type="curve" smooth="yes"/>
			<point x="75" y="152"/>
			<point x="60" y="136"/>
		</contour>
		<contour>
			<point x="60" y="207" type="curve" smooth="yes"/>
			<point x="60" y="224"/>
			<point x="75" y="239"/>
			<point x="93" y="239" type="curve" smooth="yes"/>
			<point x="112" y="239"/>
			<point x="125" y="224"/>
			<point x="125" y="207" type="curve" smooth="yes"/>
			<point x="125" y="189"/>
			<point x="112" y="174"/>
			<point x="93" y="174" type="curve" smooth="yes"/>
			<point x="75" y="174"/>
			<point x="60" y="188"/>
		</contour>
		<contour>
			<point x="60" y="294" type="curve" smooth="yes"/>
			<point x="60" y="311"/>
			<point x="74" y="326"/>
			<point x="93" y="326" type="curve" smooth="yes"/>
			<point x="111" y="326"/>
			<point x="125" y="311"/>
			<point x="125" y="294" type="curve" smooth="yes"/>
			<point x="125" y="276"/>
			<point x="111" y="261"/>
			<point x="93" y="261" type="curve" smooth="yes"/>
			<point x="75" y="261"/>
			<point x="60" y="275"/>
		</contour>
		<contour>
			<point x="60" y="381" type="curve" smooth="yes"/>
			<point x="60" y="398"/>
			<point x="75" y="413"/>
			<point x="93" y="413" type="curve" smooth="yes"/>
			<point x="112" y="413"/>
			<point x="125" y="398"/>
			<point x="125" y="381" type="curve" smooth="yes"/>
			<point x="125" y="363"/>
			<point x="112" y="348"/>
			<point x="93" y="348" type="curve" smooth="yes"/>
			<point x="75" y="348"/>
			<point x="60" y="362"/>
		</contour>
		<contour>
			<point x="60" y="468" type="curve" smooth="yes"/>
			<point x="60" y="485"/>
			<point x="75" y="500"/>
			<point x="93" y="500" type="curve" smooth="yes"/>
			<point x="111" y="500"/>
			<point x="125" y="485"/>
			<point x="125" y="468" type="curve" smooth="yes"/>
			<point x="125" y="450"/>
			<point x="111" y="435"/>
			<point x="93" y="435" type="curve" smooth="yes"/>
			<point x="76" y="435"/>
			<point x="60" y="450"/>
		</contour>
		<contour>
			<point x="60" y="555" type="curve" smooth="yes"/>
			<point x="60" y="572"/>
			<point x="75" y="587"/>
			<point x="93" y="587" type="curve" smooth="yes"/>
			<point x="112" y="587"/>
			<point x="125" y="572"/>
			<point x="125" y="555" type="curve" smooth="yes"/>
			<point x="125" y="537"/>
			<point x="112" y="522"/>
			<point x="93" y="522" type="curve" smooth="yes"/>
			<point x="75" y="522"/>
			<point x="60" y="536"/>
		</contour>
		<contour>
			<point x="140" y="353" type="curve" smooth="yes"/>
			<point x="140" y="337"/>
			<point x="154" y="323"/>
			<point x="170" y="323" type="curve" smooth="yes"/>
			<point x="186" y="323"/>
			<point x="200" y="337"/>
			<point x="200" y="353" type="curve" smooth="yes"/>
			<point x="200" y="369"/>
			<point x="186" y="383"/>
			<point x="170" y="383" type="curve" smooth="yes"/>
			<point x="154" y="383"/>
			<point x="140" y="369"/>
		</contour>
		<contour>
			<point x="146" y="30" type="curve" smooth="yes"/>
			<point x="146" y="14"/>
			<point x="160" y="0"/>
			<point x="176" y="0" type="curve" smooth="yes"/>
			<point x="192" y="0"/>
			<point x="206" y="14"/>
			<point x="206" y="30" type="curve" smooth="yes"/>
			<point x="206" y="46"/>
			<point x="192" y="60"/>
			<point x="176" y="60" type="curve" smooth="yes"/>
			<point x="160" y="60"/>
			<point x="146" y="46"/>
		</contour>
		<contour>
			<point x="146" y="644" type="curve" smooth="yes"/>
			<point x="146" y="628"/>
			<point x="160" y="614"/>
			<point x="176" y="614" type="curve" smooth="yes"/>
			<point x="192" y="614"/>
			<point x="206" y="627"/>
			<point x="206" y="644" type="curve" smooth="yes"/>
			<point x="206" y="660"/>
			<point x="192" y="674"/>
			<point x="176" y="674" type="curve" smooth="yes"/>
			<point x="160" y="674"/>
			<point x="146" y="660"/>
		</contour>
		<contour>
			<point x="220" y="353" type="curve" smooth="yes"/>
			<point x="220" y="337"/>
			<point x="234" y="323"/>
			<point x="250" y="323" type="curve" smooth="yes"/>
			<point x="266" y="323"/>
			<point x="280" y="337"/>
			<point x="280" y="353" type="curve" smooth="yes"/>
			<point x="280" y="370"/>
			<point x="266" y="383"/>
			<point x="250" y="383" type="curve" smooth="yes"/>
			<point x="234" y="383"/>
			<point x="220" y="369"/>
		</contour>
		<contour>
			<point x="227" y="30" type="curve" smooth="yes"/>
			<point x="227" y="14"/>
			<point x="241" y="0"/>
			<point x="257" y="0" type="curve" smooth="yes"/>
			<point x="273" y="0"/>
			<point x="287" y="14"/>
			<point x="287" y="30" type="curve" smooth="yes"/>
			<point x="287" y="46"/>
			<point x="273" y="60"/>
			<point x="257" y="60" type="curve" smooth="yes"/>
			<point x="241" y="60"/>
			<point x="227" y="46"/>
		</contour>
		<contour>
			<point x="227" y="644" type="curve" smooth="yes"/>
			<point x="227" y="628"/>
			<point x="241" y="614"/>
			<point x="257" y="614" type="curve" smooth="yes"/>
			<point x="273" y="614"/>
			<point x="287" y="627"/>
			<point x="287" y="644" type="curve" smooth="yes"/>
			<point x="287" y="660"/>
			<point x="273" y="674"/>
			<point x="257" y="674" type="curve" smooth="yes"/>
			<point x="241" y="674"/>
			<point x="227" y="660"/>
		</contour>
		<contour>
			<point x="300" y="353" type="curve" smooth="yes"/>
			<point x="300" y="337"/>
			<point x="314" y="323"/>
			<point x="330" y="323" type="curve" smooth="yes"/>
			<point x="346" y="323"/>
			<point x="360" y="337"/>
			<point x="360" y="353" type="curve" smooth="yes"/>
			<point x="360" y="370"/>
			<point x="346" y="383"/>
			<point x="330" y="383" type="curve" smooth="yes"/>
			<point x="314" y="383"/>
			<point x="300" y="369"/>
		</contour>
		<contour>
			<point x="308" y="30" type="curve" smooth="yes"/>
			<point x="308" y="14"/>
			<point x="322" y="0"/>
			<point x="338" y="0" type="curve" smooth="yes"/>
			<point x="354" y="0"/>
			<point x="368" y="14"/>
			<point x="368" y="30" type="curve" smooth="yes"/>
			<point x="368" y="46"/>
			<point x="354" y="60"/>
			<point x="338" y="60" type="curve" smooth="yes"/>
			<point x="322" y="60"/>
			<point x="308" y="46"/>
		</contour>
		<contour>
			<point x="308" y="644" type="curve" smooth="yes"/>
			<point x="308" y="628"/>
			<point x="322" y="614"/>
			<point x="338" y="614" type="curve" smooth="yes"/>
			<point x="354" y="614"/>
			<point x="368" y="628"/>
			<point x="368" y="644" type="curve" smooth="yes"/>
			<point x="368" y="660"/>
			<point x="354" y="674"/>
			<point x="338" y="674" type="curve" smooth="yes"/>
			<point x="322" y="674"/>
			<point x="308" y="660"/>
		</contour>
		<contour>
			<point x="380" y="353" type="curve" smooth="yes"/>
			<point x="380" y="337"/>
			<point x="394" y="323"/>
			<point x="410" y="323" type="curve" smooth="yes"/>
			<point x="426" y="323"/>
			<point x="440" y="337"/>
			<point x="440" y="353" type="curve" smooth="yes"/>
			<point x="440" y="369"/>
			<point x="426" y="383"/>
			<point x="410" y="383" type="curve" smooth="yes"/>
			<point x="394" y="383"/>
			<point x="380" y="369"/>
		</contour>
		<contour>
			<point x="388" y="637" type="curve" smooth="yes"/>
			<point x="388" y="619"/>
			<point x="402" y="606"/>
			<point x="419" y="606" type="curve" smooth="yes"/>
			<point x="436" y="606"/>
			<point x="450" y="620"/>
			<point x="450" y="637" type="curve" smooth="yes"/>
			<point x="450" y="654"/>
			<point x="436" y="668"/>
			<point x="419" y="668" type="curve" smooth="yes"/>
			<point x="402" y="668"/>
			<point x="388" y="654"/>
		</contour>
		<contour>
			<point x="390" y="36" type="curve" smooth="yes"/>
			<point x="390" y="19"/>
			<point x="405" y="4"/>
			<point x="422" y="4" type="curve" smooth="yes"/>
			<point x="439" y="4"/>
			<point x="454" y="19"/>
			<point x="454" y="36" type="curve" smooth="yes"/>
			<point x="454" y="53"/>
			<point x="439" y="68"/>
			<point x="422" y="68" type="curve" smooth="yes"/>
			<point x="405" y="68"/>
			<point x="390" y="53"/>
		</contour>
		<contour>
			<point x="441" y="412" type="curve" smooth="yes"/>
			<point x="441" y="395"/>
			<point x="456" y="380"/>
			<point x="473" y="380" type="curve" smooth="yes"/>
			<point x="490" y="380"/>
			<point x="505" y="395"/>
			<point x="505" y="412" type="curve" smooth="yes"/>
			<point x="505" y="428"/>
			<point x="490" y="444"/>
			<point x="473" y="444" type="curve" smooth="yes"/>
			<point x="456" y="444"/>
			<point x="441" y="429"/>
		</contour>
		<contour>
			<point x="449" y="317" type="curve" smooth="yes"/>
			<point x="449" y="299"/>
			<point x="464" y="284"/>
			<point x="482" y="284" type="curve" smooth="yes"/>
			<point x="500" y="284"/>
			<point x="515" y="299"/>
			<point x="515" y="317" type="curve" smooth="yes"/>
			<point x="515" y="334"/>
			<point x="500" y="350"/>
			<point x="482" y="350" type="curve" smooth="yes"/>
			<point x="464" y="350"/>
			<point x="449" y="335"/>
		</contour>
		<contour>
			<point x="453" y="585" type="curve" smooth="yes"/>
			<point x="453" y="568"/>
			<point x="468" y="553"/>
			<point x="485" y="553" type="curve" smooth="yes"/>
			<point x="502" y="553"/>
			<point x="517" y="568"/>
			<point x="517" y="585" type="curve" smooth="yes"/>
			<point x="517" y="602"/>
			<point x="503" y="617"/>
			<point x="485" y="617" type="curve" smooth="yes"/>
			<point x="468" y="617"/>
			<point x="453" y="602"/>
		</contour>
		<contour>
			<point x="462" y="79" type="curve" smooth="yes"/>
			<point x="462" y="61"/>
			<point x="477" y="46"/>
			<point x="495" y="46" type="curve" smooth="yes"/>
			<point x="513" y="46"/>
			<point x="528" y="61"/>
			<point x="528" y="79" type="curve" smooth="yes"/>
			<point x="528" y="97"/>
			<point x="513" y="112"/>
			<point x="495" y="112" type="curve" smooth="yes"/>
			<point x="477" y="112"/>
			<point x="462" y="97"/>
		</contour>
		<contour>
			<point x="463" y="498" type="curve" smooth="yes"/>
			<point x="463" y="479"/>
			<point x="479" y="463"/>
			<point x="498" y="463" type="curve" smooth="yes"/>
			<point x="517" y="463"/>
			<point x="533" y="479"/>
			<point x="533" y="498" type="curve" smooth="yes"/>
			<point x="533" y="517"/>
			<point x="517" y="533"/>
			<point x="498" y="533" type="curve" smooth="yes"/>
			<point x="479" y="533"/>
			<point x="463" y="517"/>
		</contour>
		<contour>
			<point x="498" y="245" type="curve" smooth="yes"/>
			<point x="498" y="226"/>
			<point x="514" y="210"/>
			<point x="533" y="210" type="curve" smooth="yes"/>
			<point x="552" y="210"/>
			<point x="568" y="228"/>
			<point x="568" y="245" type="curve" smooth="yes"/>
			<point x="568" y="264"/>
			<point x="552" y="280"/>
			<point x="533" y="280" type="curve" smooth="yes"/>
			<point x="514" y="280"/>
			<point x="498" y="264"/>
		</contour>
		<contour>
			<point x="501" y="157" type="curve" smooth="yes"/>
			<point x="501" y="138"/>
			<point x="517" y="122"/>
			<point x="536" y="122" type="curve" smooth="yes"/>
			<point x="555" y="122"/>
			<point x="571" y="138"/>
			<point x="571" y="157" type="curve" smooth="yes"/>
			<point x="571" y="176"/>
			<point x="555" y="192"/>
			<point x="536" y="192" type="curve" smooth="yes"/>
			<point x="517" y="192"/>
			<point x="501" y="176"/>
		</contour>
	</outline>
</glyph>
<glyph name="C.ss01" format="2">
	<advance width="598"/>
	<note>
		C.ss01
	</note>
	<outline>
		<contour>
			<point x="258" y="658" type="curve" smooth="yes"/>
			<point x="258" y="675"/>
			<point x="271" y="688"/>
			<point x="288" y="688" type="curve" smooth="yes"/>
			<point x="305" y="688"/>
			<point x="318" y="675"/>
			<point x="318" y="658" type="curve" smooth="yes"/>
			<point x="318" y="641"/>
			<point x="305" y="628"/>
			<point x="288" y="628" type="curve" smooth="yes"/>
			<point x="271" y="628"/>
			<point x="258" y="641"/>
		</contour>
		<contour>
			<point x="50" y="290" type="curve" smooth="yes"/>
			<point x="50" y="271"/>
			<point x="66" y="255"/>
			<point x="85" y="255" type="curve" smooth="yes"/>
			<point x="104" y="255"/>
			<point x="120" y="271"/>
			<point x="120" y="290" type="curve" smooth="yes"/>
			<point x="120" y="309"/>
			<point x="104" y="325"/>
			<point x="85" y="325" type="curve" smooth="yes"/>
			<point x="66" y="325"/>
			<point x="50" y="309"/>
		</contour>
		<contour>
			<point x="50" y="384" type="curve" smooth="yes"/>
			<point x="50" y="365"/>
			<point x="66" y="349"/>
			<point x="85" y="349" type="curve" smooth="yes"/>
			<point x="104" y="349"/>
			<point x="120" y="365"/>
			<point x="120" y="384" type="curve" smooth="yes"/>
			<point x="120" y="403"/>
			<point x="104" y="419"/>
			<point x="85" y="419" type="curve" smooth="yes"/>
			<point x="66" y="419"/>
			<point x="50" y="403"/>
		</contour>
		<contour>
			<point x="67" y="197" type="curve" smooth="yes"/>
			<point x="67" y="178"/>
			<point x="81" y="163"/>
			<point x="101" y="163" type="curve" smooth="yes"/>
			<point x="121" y="163"/>
			<point x="137" y="178"/>
			<point x="137" y="197" type="curve" smooth="yes"/>
			<point x="137" y="216"/>
			<point x="121" y="232"/>
			<point x="101" y="232" type="curve" smooth="yes"/>
			<point x="81" y="232"/>
			<point x="67" y="216"/>
		</contour>
		<contour>
			<point x="67" y="477" type="curve" smooth="yes"/>
			<point x="67" y="458"/>
			<point x="81" y="442"/>
			<point x="101" y="442" type="curve" smooth="yes"/>
			<point x="121" y="442"/>
			<point x="137" y="458"/>
			<point x="137" y="477" type="curve" smooth="yes"/>
			<point x="137" y="496"/>
			<point x="121" y="511"/>
			<point x="101" y="511" type="curve" smooth="yes"/>
			<point x="81" y="511"/>
			<point x="67" y="496"/>
		</contour>
		<contour>
			<point x="107" y="114" type="curve" smooth="yes"/>
			<point x="107" y="97"/>
			<point x="122" y="81"/>
			<point x="140" y="81" type="curve" smooth="yes"/>
			<point x="158" y="81"/>
			<point x="173" y="97"/>
			<point x="173" y="114" type="curve" smooth="yes"/>
			<point x="173" y="132"/>
			<point x="158" y="147"/>
			<point x="140" y="147" type="curve" smooth="yes"/>
			<point x="122" y="147"/>
			<point x="107" y="132"/>
		</contour>
		<contour>
			<point x="107" y="560" type="curve" smooth="yes"/>
			<point x="107" y="542"/>
			<point x="122" y="527"/>
			<point x="140" y="527" type="curve" smooth="yes"/>
			<point x="158" y="527"/>
			<point x="173" y="542"/>
			<point x="173" y="560" type="curve" smooth="yes"/>
			<point x="173" y="577"/>
			<point x="158" y="593"/>
			<point x="140" y="593" type="curve" smooth="yes"/>
			<point x="122" y="593"/>
			<point x="107" y="577"/>
		</contour>
		<contour>
			<point x="172" y="49" type="curve" smooth="yes"/>
			<point x="172" y="68"/>
			<point x="186" y="82"/>
			<point x="205" y="82" type="curve" smooth="yes"/>
			<point x="223" y="82"/>
			<point x="238" y="68"/>
			<point x="238" y="49" type="curve" smooth="yes"/>
			<point x="238" y="31"/>
			<point x="223" y="16"/>
			<point x="205" y="16" type="curve" smooth="yes"/>
			<point x="186" y="16"/>
			<point x="172" y="31"/>
		</contour>
		<contour>
			<point x="172" y="625" type="curve" smooth="yes"/>
			<point x="172" y="643"/>
			<point x="186" y="658"/>
			<point x="205" y="658" type="curve" smooth="yes"/>
			<point x="223" y="658"/>
			<point x="238" y="643"/>
			<point x="238" y="625" type="curve" smooth="yes"/>
			<point x="238" y="606"/>
			<point x="223" y="592"/>
			<point x="205" y="592" type="curve" smooth="yes"/>
			<point x="186" y="592"/>
			<point x="172" y="606"/>
		</contour>
		<contour>
			<point x="258" y="16" type="curve" smooth="yes"/>
			<point x="258" y="33"/>
			<point x="271" y="46"/>
			<point x="288" y="46" type="curve" smooth="yes"/>
			<point x="305" y="46"/>
			<point x="318" y="33"/>
			<point x="318" y="16" type="curve" smooth="yes"/>
			<point x="318" y="-1"/>
			<point x="305" y="-14"/>
			<point x="288" y="-14" type="curve" smooth="yes"/>
			<point x="271" y="-14"/>
			<point x="258" y="-1"/>
		</contour>
		<contour>
			<point x="342" y="16" type="curve" smooth="yes"/>
			<point x="342" y="33"/>
			<point x="355" y="46"/>
			<point x="372" y="46" type="curve" smooth="yes"/>
			<point x="389" y="46"/>
			<point x="402" y="33"/>
			<point x="402" y="16" type="curve" smooth="yes"/>
			<point x="402" y="-1"/>
			<point x="389" y="-14"/>
			<point x="372" y="-14" type="curve" smooth="yes"/>
			<point x="355" y="-14"/>
			<point x="342" y="-1"/>
		</contour>
		<contour>
			<point x="342" y="658" type="curve" smooth="yes"/>
			<point x="342" y="675"/>
			<point x="355" y="688"/>
			<point x="372" y="688" type="curve" smooth="yes"/>
			<point x="389" y="688"/>
			<point x="402" y="675"/>
			<point x="402" y="658" type="curve" smooth="yes"/>
			<point x="402" y="641"/>
			<point x="389" y="628"/>
			<point x="372" y="628" type="curve" smooth="yes"/>
			<point x="355" y="628"/>
			<point x="342" y="641"/>
		</contour>
		<contour>
			<point x="422" y="628" type="curve" smooth="yes"/>
			<point x="422" y="644"/>
			<point x="436" y="658"/>
			<point x="452" y="658" type="curve" smooth="yes"/>
			<point x="469" y="658"/>
			<point x="482" y="644"/>
			<point x="482" y="628" type="curve" smooth="yes"/>
			<point x="482" y="611"/>
			<point x="469" y="598"/>
			<point x="452" y="598" type="curve" smooth="yes"/>
			<point x="436" y="598"/>
			<point x="422" y="611"/>
		</contour>
		<contour>
			<point x="423" y="49" type="curve" smooth="yes"/>
			<point x="423" y="67"/>
			<point x="438" y="81"/>
			<point x="455" y="81" type="curve" smooth="yes"/>
			<point x="473" y="81"/>
			<point x="487" y="67"/>
			<point x="487" y="49" type="curve" smooth="yes"/>
			<point x="487" y="32"/>
			<point x="473" y="17"/>
			<point x="455" y="17" type="curve" smooth="yes"/>
			<point x="438" y="17"/>
			<point x="423" y="32"/>
		</contour>
		<contour>
			<point x="482" y="487" type="curve" smooth="yes"/>
			<point x="482" y="471"/>
			<point x="496" y="457"/>
			<point x="512" y="457" type="curve" smooth="yes"/>
			<point x="528" y="457"/>
			<point x="542" y="471"/>
			<point x="542" y="487" type="curve" smooth="yes"/>
			<point x="542" y="502"/>
			<point x="528" y="517"/>
			<point x="512" y="517" type="curve" smooth="yes"/>
			<point x="496" y="517"/>
			<point x="482" y="502"/>
		</contour>
		<contour>
			<point x="482" y="569" type="curve" smooth="yes"/>
			<point x="482" y="553"/>
			<point x="496" y="539"/>
			<point x="512" y="539" type="curve" smooth="yes"/>
			<point x="528" y="539"/>
			<point x="542" y="553"/>
			<point x="542" y="569" type="curve" smooth="yes"/>
			<point x="542" y="584"/>
			<point x="528" y="599"/>
			<point x="512" y="599" type="curve" smooth="yes"/>
			<point x="496" y="599"/>
			<point x="482" y="584"/>
		</contour>
		<contour>
			<point x="488" y="112" type="curve" smooth="yes"/>
			<point x="488" y="97"/>
			<point x="502" y="82"/>
			<point x="518" y="82" type="curve" smooth="yes"/>
			<point x="534" y="82"/>
			<point x="548" y="97"/>
			<point x="548" y="112" type="curve" smooth="yes"/>
			<point x="548" y="127"/>
			<point x="534" y="142"/>
			<point x="518" y="142" type="curve" smooth="yes"/>
			<point x="502" y="142"/>
			<point x="488" y="128"/>
		</contour>
	</outline>
</glyph>
<glyph name="D.ss01" format="2">
	<advance width="630"/>
	<note>
		D.ss01
	</note>
	<outline>
		<contour>
			<point x="93" y="674" type="curve" smooth="yes"/>
			<point x="75" y="674"/>
			<point x="60" y="659"/>
			<point x="60" y="642" type="curve" smooth="yes"/>
			<point x="60" y="624"/>
			<point x="76" y="609"/>
			<point x="93" y="609" type="curve" smooth="yes"/>
			<point x="111" y="609"/>
			<point x="125" y="624"/>
			<point x="125" y="642" type="curve" smooth="yes"/>
			<point x="125" y="659"/>
			<point x="111" y="674"/>
		</contour>
		<contour>
			<point x="60" y="33" type="curve" smooth="yes"/>
			<point x="60" y="14"/>
			<point x="75" y="0"/>
			<point x="93" y="0" type="curve" smooth="yes"/>
			<point x="112" y="0"/>
			<point x="125" y="14"/>
			<point x="125" y="33" type="curve" smooth="yes"/>
			<point x="125" y="50"/>
			<point x="112" y="65"/>
			<point x="93" y="65" type="curve" smooth="yes"/>
			<point x="75" y="65"/>
			<point x="60" y="49"/>
		</contour>
		<contour>
			<point x="60" y="120" type="curve" smooth="yes"/>
			<point x="60" y="101"/>
			<point x="75" y="87"/>
			<point x="93" y="87" type="curve" smooth="yes"/>
			<point x="112" y="87"/>
			<point x="125" y="101"/>
			<point x="125" y="120" type="curve" smooth="yes"/>
			<point x="125" y="137"/>
			<point x="112" y="152"/>
			<point x="93" y="152" type="curve" smooth="yes"/>
			<point x="75" y="152"/>
			<point x="60" y="136"/>
		</contour>
		<contour>
			<point x="60" y="207" type="curve" smooth="yes"/>
			<point x="60" y="188"/>
			<point x="75" y="174"/>
			<point x="93" y="174" type="curve" smooth="yes"/>
			<point x="112" y="174"/>
			<point x="125" y="189"/>
			<point x="125" y="207" type="curve" smooth="yes"/>
			<point x="125" y="224"/>
			<point x="112" y="239"/>
			<point x="93" y="239" type="curve" smooth="yes"/>
			<point x="75" y="239"/>
			<point x="60" y="224"/>
		</contour>
		<contour>
			<point x="60" y="294" type="curve" smooth="yes"/>
			<point x="60" y="275"/>
			<point x="75" y="261"/>
			<point x="93" y="261" type="curve" smooth="yes"/>
			<point x="111" y="261"/>
			<point x="125" y="276"/>
			<point x="125" y="294" type="curve" smooth="yes"/>
			<point x="125" y="311"/>
			<point x="111" y="326"/>
			<point x="93" y="326" type="curve" smooth="yes"/>
			<point x="74" y="326"/>
			<point x="60" y="311"/>
		</contour>
		<contour>
			<point x="60" y="381" type="curve" smooth="yes"/>
			<point x="60" y="362"/>
			<point x="75" y="348"/>
			<point x="93" y="348" type="curve" smooth="yes"/>
			<point x="112" y="348"/>
			<point x="125" y="363"/>
			<point x="125" y="381" type="curve" smooth="yes"/>
			<point x="125" y="398"/>
			<point x="112" y="413"/>
			<point x="93" y="413" type="curve" smooth="yes"/>
			<point x="75" y="413"/>
			<point x="60" y="398"/>
		</contour>
		<contour>
			<point x="60" y="468" type="curve" smooth="yes"/>
			<point x="60" y="450"/>
			<point x="76" y="435"/>
			<point x="93" y="435" type="curve" smooth="yes"/>
			<point x="111" y="435"/>
			<point x="125" y="450"/>
			<point x="125" y="468" type="curve" smooth="yes"/>
			<point x="125" y="485"/>
			<point x="111" y="500"/>
			<point x="93" y="500" type="curve" smooth="yes"/>
			<point x="75" y="500"/>
			<point x="60" y="485"/>
		</contour>
		<contour>
			<point x="60" y="555" type="curve" smooth="yes"/>
			<point x="60" y="536"/>
			<point x="75" y="522"/>
			<point x="93" y="522" type="curve" smooth="yes"/>
			<point x="112" y="522"/>
			<point x="125" y="537"/>
			<point x="125" y="555" type="curve" smooth="yes"/>
			<point x="125" y="572"/>
			<point x="112" y="587"/>
			<point x="93" y="587" type="curve" smooth="yes"/>
			<point x="75" y="587"/>
			<point x="60" y="572"/>
		</contour>
		<contour>
			<point x="145" y="30" type="curve" smooth="yes"/>
			<point x="145" y="14"/>
			<point x="159" y="0"/>
			<point x="175" y="0" type="curve" smooth="yes"/>
			<point x="191" y="0"/>
			<point x="205" y="14"/>
			<point x="205" y="30" type="curve" smooth="yes"/>
			<point x="205" y="46"/>
			<point x="191" y="60"/>
			<point x="175" y="60" type="curve" smooth="yes"/>
			<point x="159" y="60"/>
			<point x="145" y="46"/>
		</contour>
		<contour>
			<point x="145" y="644" type="curve" smooth="yes"/>
			<point x="145" y="628"/>
			<point x="159" y="614"/>
			<point x="175" y="614" type="curve" smooth="yes"/>
			<point x="191" y="614"/>
			<point x="205" y="628"/>
			<point x="205" y="644" type="curve" smooth="yes"/>
			<point x="205" y="660"/>
			<point x="191" y="674"/>
			<point x="175" y="674" type="curve" smooth="yes"/>
			<point x="159" y="674"/>
			<point x="145" y="660"/>
		</contour>
		<contour>
			<point x="225" y="30" type="curve" smooth="yes"/>
			<point x="225" y="14"/>
			<point x="239" y="0"/>
			<point x="255" y="0" type="curve" smooth="yes"/>
			<point x="271" y="0"/>
			<point x="285" y="14"/>
			<point x="285" y="30" type="curve" smooth="yes"/>
			<point x="285" y="46"/>
			<point x="271" y="60"/>
			<point x="255" y="60" type="curve" smooth="yes"/>
			<point x="239" y="60"/>
			<point x="225" y="46"/>
		</contour>
		<contour>
			<point x="225" y="644" type="curve" smooth="yes"/>
			<point x="225" y="628"/>
			<point x="239" y="614"/>
			<point x="255" y="614" type="curve" smooth="yes"/>
			<point x="271" y="614"/>
			<point x="285" y="628"/>
			<point x="285" y="644" type="curve" smooth="yes"/>
			<point x="285" y="660"/>
			<point x="271" y="674"/>
			<point x="255" y="674" type="curve" smooth="yes"/>
			<point x="239" y="674"/>
			<point x="225" y="660"/>
		</contour>
		<contour>
			<point x="307" y="34" type="curve" smooth="yes"/>
			<point x="307" y="17"/>
			<point x="320" y="4"/>
			<point x="337" y="4" type="curve" smooth="yes"/>
			<point x="354" y="4"/>
			<point x="367" y="17"/>
			<point x="367" y="34" type="curve" smooth="yes"/>
			<point x="367" y="51"/>
			<point x="354" y="64"/>
			<point x="337" y="64" type="curve" smooth="yes"/>
			<point x="320" y="64"/>
			<point x="307" y="51"/>
		</contour>
		<contour>
			<point x="307" y="640" type="curve" smooth="yes"/>
			<point x="307" y="623"/>
			<point x="320" y="610"/>
			<point x="337" y="610" type="curve" smooth="yes"/>
			<point x="354" y="610"/>
			<point x="367" y="623"/>
			<point x="367" y="640" type="curve" smooth="yes"/>
			<point x="367" y="657"/>
			<point x="354" y="670"/>
			<point x="337" y="670" type="curve" smooth="yes"/>
			<point x="320" y="670"/>
			<point x="307" y="657"/>
		</contour>
		<contour>
			<point x="385" y="59" type="curve" smooth="yes"/>
			<point x="385" y="41"/>
			<point x="400" y="26"/>
			<point x="418" y="26" type="curve" smooth="yes"/>
			<point x="437" y="26"/>
			<point x="451" y="41"/>
			<point x="451" y="59" type="curve" smooth="yes"/>
			<point x="451" y="78"/>
			<point x="437" y="92"/>
			<point x="418" y="92" type="curve" smooth="yes"/>
			<point x="400" y="92"/>
			<point x="385" y="78"/>
		</contour>
		<contour>
			<point x="385" y="615" type="curve" smooth="yes"/>
			<point x="385" y="596"/>
			<point x="400" y="582"/>
			<point x="418" y="582" type="curve" smooth="yes"/>
			<point x="437" y="582"/>
			<point x="451" y="596"/>
			<point x="451" y="615" type="curve" smooth="yes"/>
			<point x="451" y="633"/>
			<point x="437" y="648"/>
			<point x="418" y="648" type="curve" smooth="yes"/>
			<point x="400" y="648"/>
			<point x="385" y="633"/>
		</contour>
		<contour>
			<point x="450" y="120" type="curve" smooth="yes"/>
			<point x="450" y="103"/>
			<point x="465" y="87"/>
			<point x="483" y="87" type="curve" smooth="yes"/>
			<point x="502" y="87"/>
			<point x="516" y="103"/>
			<point x="516" y="120" type="curve" smooth="yes"/>
			<point x="516" y="138"/>
			<point x="501" y="153"/>
			<point x="483" y="153" type="curve" smooth="yes"/>
			<point x="465" y="153"/>
			<point x="450" y="138"/>
		</contour>
		<contour>
			<point x="450" y="554" type="curve" smooth="yes"/>
			<point x="450" y="536"/>
			<point x="465" y="521"/>
			<point x="483" y="521" type="curve" smooth="yes"/>
			<point x="501" y="521"/>
			<point x="516" y="536"/>
			<point x="516" y="554" type="curve" smooth="yes"/>
			<point x="516" y="571"/>
			<point x="502" y="587"/>
			<point x="483" y="587" type="curve" smooth="yes"/>
			<point x="465" y="587"/>
			<point x="450" y="571"/>
		</contour>
		<contour>
			<point x="489" y="200" type="curve" smooth="yes"/>
			<point x="489" y="181"/>
			<point x="505" y="165"/>
			<point x="524" y="165" type="curve" smooth="yes"/>
			<point x="543" y="165"/>
			<point x="559" y="181"/>
			<point x="559" y="200" type="curve" smooth="yes"/>
			<point x="559" y="219"/>
			<point x="543" y="235"/>
			<point x="524" y="235" type="curve" smooth="yes"/>
			<point x="505" y="235"/>
			<point x="489" y="219"/>
		</contour>
		<contour>
			<point x="489" y="474" type="curve" smooth="yes"/>
			<point x="489" y="455"/>
			<point x="505" y="439"/>
			<point x="524" y="439" type="curve" smooth="yes"/>
			<point x="544" y="439"/>
			<point x="559" y="455"/>
			<point x="559" y="474" type="curve" smooth="yes"/>
			<point x="559" y="493"/>
			<point x="543" y="509"/>
			<point x="524" y="509" type="curve" smooth="yes"/>
			<point x="505" y="509"/>
			<point x="489" y="493"/>
		</contour>
		<contour>
			<point x="505" y="291" type="curve" smooth="yes"/>
			<point x="505" y="272"/>
			<point x="521" y="256"/>
			<point x="540" y="256" type="curve" smooth="yes"/>
			<point x="559" y="256"/>
			<point x="575" y="272"/>
			<point x="575" y="291" type="curve" smooth="yes"/>
			<point x="575" y="310"/>
			<point x="559" y="326"/>
			<point x="540" y="326" type="curve" smooth="yes"/>
			<point x="521" y="326"/>
			<point x="505" y="310"/>
		</contour>
		<contour>
			<point x="505" y="383" type="curve" smooth="yes"/>
			<point x="505" y="364"/>
			<point x="521" y="348"/>
			<point x="540" y="348" type="curve" smooth="yes"/>
			<point x="559" y="348"/>
			<point x="575" y="364"/>
			<point x="575" y="383" type="curve" smooth="yes"/>
			<point x="575" y="402"/>
			<point x="559" y="418"/>
			<point x="540" y="418" type="curve" smooth="yes"/>
			<point x="521" y="418"/>
			<point x="505" y="402"/>
		</contour>
	</outline>
</glyph>
<glyph name="H.ss01" format="2">
	<advance width="600"/>
	<note>
		H.ss01
	</note>
	<outline>
		<contour>
			<point x="60" y="642" type="curve" smooth="yes"/>
			<point x="60" y="659"/>
			<point x="75" y="674"/>
			<point x="93" y="674" type="curve" smooth="yes"/>
			<point x="111" y="674"/>
			<point x="125" y="659"/>
			<point x="125" y="642" type="curve" smooth="yes"/>
			<point x="125" y="624"/>
			<point x="111" y="609"/>
			<point x="93" y="609" type="curve" smooth="yes"/>
			<point x="76" y="609"/>
			<point x="60" y="624"/>
		</contour>
		<contour>
			<point x="60" y="33" type="curve" smooth="yes"/>
			<point x="60" y="15"/>
			<point x="75" y="1"/>
			<point x="93" y="0" type="curve" smooth="yes"/>
			<point x="112" y="0"/>
			<point x="125" y="15"/>
			<point x="125" y="33" type="curve" smooth="yes"/>
			<point x="125" y="51"/>
			<point x="112" y="65"/>
			<point x="93" y="65" type="curve" smooth="yes"/>
			<point x="75" y="65"/>
			<point x="60" y="51"/>
		</contour>
		<contour>
			<point x="60" y="120" type="curve" smooth="yes"/>
			<point x="60" y="101"/>
			<point x="75" y="87"/>
			<point x="93" y="87" type="curve" smooth="yes"/>
			<point x="112" y="87"/>
			<point x="125" y="101"/>
			<point x="125" y="120" type="curve" smooth="yes"/>
			<point x="125" y="137"/>
			<point x="112" y="152"/>
			<point x="93" y="152" type="curve" smooth="yes"/>
			<point x="75" y="152"/>
			<point x="60" y="136"/>
		</contour>
		<contour>
			<point x="60" y="207" type="curve" smooth="yes"/>
			<point x="60" y="224"/>
			<point x="75" y="239"/>
			<point x="93" y="239" type="curve" smooth="yes"/>
			<point x="112" y="239"/>
			<point x="125" y="224"/>
			<point x="125" y="207" type="curve" smooth="yes"/>
			<point x="125" y="189"/>
			<point x="112" y="174"/>
			<point x="93" y="174" type="curve" smooth="yes"/>
			<point x="75" y="174"/>
			<point x="60" y="188"/>
		</contour>
		<contour>
			<point x="60" y="294" type="curve" smooth="yes"/>
			<point x="60" y="311"/>
			<point x="74" y="326"/>
			<point x="93" y="326" type="curve" smooth="yes"/>
			<point x="111" y="326"/>
			<point x="125" y="311"/>
			<point x="125" y="294" type="curve" smooth="yes"/>
			<point x="125" y="276"/>
			<point x="111" y="261"/>
			<point x="93" y="261" type="curve" smooth="yes"/>
			<point x="75" y="261"/>
			<point x="60" y="275"/>
		</contour>
		<contour>
			<point x="60" y="381" type="curve" smooth="yes"/>
			<point x="60" y="398"/>
			<point x="75" y="413"/>
			<point x="93" y="413" type="curve" smooth="yes"/>
			<point x="112" y="413"/>
			<point x="125" y="398"/>
			<point x="125" y="381" type="curve" smooth="yes"/>
			<point x="125" y="363"/>
			<point x="112" y="348"/>
			<point x="93" y="348" type="curve" smooth="yes"/>
			<point x="75" y="348"/>
			<point x="60" y="362"/>
		</contour>
		<contour>
			<point x="60" y="468" type="curve" smooth="yes"/>
			<point x="60" y="485"/>
			<point x="75" y="500"/>
			<point x="93" y="500" type="curve" smooth="yes"/>
			<point x="111" y="500"/>
			<point x="125" y="485"/>
			<point x="125" y="468" type="curve" smooth="yes"/>
			<point x="125" y="450"/>
			<point x="111" y="435"/>
			<point x="93" y="435" type="curve" smooth="yes"/>
			<point x="76" y="435"/>
			<point x="60" y="450"/>
		</contour>
		<contour>
			<point x="60" y="555" type="curve" smooth="yes"/>
			<point x="60" y="572"/>
			<point x="75" y="587"/>
			<point x="93" y="587" type="curve" smooth="yes"/>
			<point x="112" y="587"/>
			<point x="125" y="572"/>
			<point x="125" y="555" type="curve" smooth="yes"/>
			<point x="125" y="537"/>
			<point x="112" y="522"/>
			<point x="93" y="522" type="curve" smooth="yes"/>
			<point x="75" y="522"/>
			<point x="60" y="536"/>
		</contour>
		<contour>
			<point x="145" y="346" type="curve" smooth="yes"/>
			<point x="145" y="330"/>
			<point x="159" y="316"/>
			<point x="175" y="316" type="curve" smooth="yes"/>
			<point x="191" y="316"/>
			<point x="205" y="330"/>
			<point x="205" y="346" type="curve" smooth="yes"/>
			<point x="205" y="363"/>
			<point x="192" y="376"/>
			<point x="175" y="376" type="curve" smooth="yes"/>
			<point x="159" y="376"/>
			<point x="145" y="362"/>
		</contour>
		<contour>
			<point x="232" y="346" type="curve" smooth="yes"/>
			<point x="232" y="330"/>
			<point x="246" y="316"/>
			<point x="262" y="316" type="curve" smooth="yes"/>
			<point x="278" y="316"/>
			<point x="292" y="330"/>
			<point x="292" y="346" type="curve" smooth="yes"/>
			<point x="292" y="362"/>
			<point x="278" y="376"/>
			<point x="262" y="376" type="curve" smooth="yes"/>
			<point x="246" y="376"/>
			<point x="232" y="362"/>
		</contour>
		<contour>
			<point x="318" y="346" type="curve" smooth="yes"/>
			<point x="318" y="330"/>
			<point x="332" y="316"/>
			<point x="348" y="316" type="curve" smooth="yes"/>
			<point x="364" y="316"/>
			<point x="378" y="330"/>
			<point x="378" y="346" type="curve" smooth="yes"/>
			<point x="378" y="362"/>
			<point x="364" y="376"/>
			<point x="348" y="376" type="curve" smooth="yes"/>
			<point x="332" y="376"/>
			<point x="318" y="362"/>
		</contour>
		<contour>
			<point x="405" y="346" type="curve" smooth="yes"/>
			<point x="405" y="330"/>
			<point x="419" y="316"/>
			<point x="435" y="316" type="curve" smooth="yes"/>
			<point x="451" y="316"/>
			<point x="465" y="330"/>
			<point x="465" y="346" type="curve" smooth="yes"/>
			<point x="465" y="362"/>
			<point x="451" y="376"/>
			<point x="435" y="376" type="curve" smooth="yes"/>
			<point x="419" y="376"/>
			<point x="405" y="362"/>
		</contour>
		<contour>
			<point x="485" y="33" type="curve" smooth="yes"/>
			<point x="485" y="15"/>
			<point x="500" y="1"/>
			<point x="518" y="0" type="curve" smooth="yes"/>
			<point x="537" y="0"/>
			<point x="550" y="15"/>
			<point x="550" y="33" type="curve" smooth="yes"/>
			<point x="550" y="51"/>
			<point x="537" y="65"/>
			<point x="518" y="65" type="curve" smooth="yes"/>
			<point x="500" y="65"/>
			<point x="485" y="51"/>
		</contour>
		<contour>
			<point x="485" y="120" type="curve" smooth="yes"/>
			<point x="485" y="101"/>
			<point x="500" y="87"/>
			<point x="518" y="87" type="curve" smooth="yes"/>
			<point x="537" y="87"/>
			<point x="550" y="101"/>
			<point x="550" y="120" type="curve" smooth="yes"/>
			<point x="550" y="137"/>
			<point x="537" y="152"/>
			<point x="518" y="152" type="curve" smooth="yes"/>
			<point x="500" y="152"/>
			<point x="485" y="136"/>
		</contour>
		<contour>
			<point x="485" y="207" type="curve" smooth="yes"/>
			<point x="485" y="224"/>
			<point x="500" y="239"/>
			<point x="518" y="239" type="curve" smooth="yes"/>
			<point x="537" y="239"/>
			<point x="550" y="224"/>
			<point x="550" y="207" type="curve" smooth="yes"/>
			<point x="550" y="189"/>
			<point x="537" y="174"/>
			<point x="518" y="174" type="curve" smooth="yes"/>
			<point x="500" y="174"/>
			<point x="485" y="188"/>
		</contour>
		<contour>
			<point x="485" y="294" type="curve" smooth="yes"/>
			<point x="485" y="311"/>
			<point x="499" y="326"/>
			<point x="518" y="326" type="curve" smooth="yes"/>
			<point x="536" y="326"/>
			<point x="550" y="311"/>
			<point x="550" y="294" type="curve" smooth="yes"/>
			<point x="550" y="276"/>
			<point x="536" y="261"/>
			<point x="518" y="261" type="curve" smooth="yes"/>
			<point x="500" y="261"/>
			<point x="485" y="275"/>
		</contour>
		<contour>
			<point x="485" y="381" type="curve" smooth="yes"/>
			<point x="485" y="398"/>
			<point x="500" y="413"/>
			<point x="518" y="413" type="curve" smooth="yes"/>
			<point x="537" y="413"/>
			<point x="550" y="398"/>
			<point x="550" y="381" type="curve" smooth="yes"/>
			<point x="550" y="363"/>
			<point x="537" y="348"/>
			<point x="518" y="348" type="curve" smooth="yes"/>
			<point x="500" y="348"/>
			<point x="485" y="362"/>
		</contour>
		<contour>
			<point x="485" y="468" type="curve" smooth="yes"/>
			<point x="485" y="485"/>
			<point x="500" y="500"/>
			<point x="518" y="500" type="curve" smooth="yes"/>
			<point x="536" y="500"/>
			<point x="550" y="485"/>
			<point x="550" y="468" type="curve" smooth="yes"/>
			<point x="550" y="450"/>
			<point x="536" y="435"/>
			<point x="518" y="435" type="curve" smooth="yes"/>
			<point x="501" y="435"/>
			<point x="485" y="450"/>
		</contour>
		<contour>
			<point x="485" y="555" type="curve" smooth="yes"/>
			<point x="485" y="572"/>
			<point x="500" y="587"/>
			<point x="518" y="587" type="curve" smooth="yes"/>
			<point x="537" y="587"/>
			<point x="550" y="572"/>
			<point x="550" y="555" type="curve" smooth="yes"/>
			<point x="550" y="537"/>
			<point x="537" y="522"/>
			<point x="518" y="522" type="curve" smooth="yes"/>
			<point x="500" y="522"/>
			<point x="485" y="536"/>
		</contour>
		<contour>
			<point x="485" y="642" type="curve" smooth="yes"/>
			<point x="485" y="659"/>
			<point x="500" y="674"/>
			<point x="518" y="674" type="curve" smooth="yes"/>
			<point x="536" y="674"/>
			<point x="550" y="659"/>
			<point x="550" y="642" type="curve" smooth="yes"/>
			<point x="550" y="624"/>
			<point x="536" y="609"/>
			<point x="518" y="609" type="curve" smooth="yes"/>
			<point x="501" y="609"/>
			<point x="485" y="624"/>
		</contour>
	</outline>
</glyph>
<glyph name="J.ss01" format="2">
	<advance width="422"/>
	<note>
		J.ss01
	</note>
	<outline>
		<contour>
			<point x="198" y="644" type="curve" smooth="yes"/>
			<point x="198" y="660"/>
			<point x="184" y="674"/>
			<point x="168" y="674" type="curve" smooth="yes"/>
			<point x="152" y="674"/>
			<point x="138" y="660"/>
			<point x="138" y="644" type="curve" smooth="yes"/>
			<point x="138" y="628"/>
			<point x="152" y="614"/>
			<point x="168" y="614" type="curve" smooth="yes"/>
			<point x="184" y="614"/>
			<point x="198" y="627"/>
		</contour>
		<contour>
			<point x="10" y="34" type="curve" smooth="yes"/>
			<point x="10" y="17"/>
			<point x="23" y="4"/>
			<point x="40" y="4" type="curve" smooth="yes"/>
			<point x="57" y="4"/>
			<point x="70" y="17"/>
			<point x="70" y="34" type="curve" smooth="yes"/>
			<point x="70" y="51"/>
			<point x="57" y="64"/>
			<point x="40" y="64" type="curve" smooth="yes"/>
			<point x="23" y="64"/>
			<point x="10" y="51"/>
		</contour>
		<contour>
			<point x="87" y="16" type="curve" smooth="yes"/>
			<point x="87" y="-1"/>
			<point x="100" y="-14"/>
			<point x="117" y="-14" type="curve" smooth="yes"/>
			<point x="134" y="-14"/>
			<point x="147" y="-1"/>
			<point x="147" y="16" type="curve" smooth="yes"/>
			<point x="147" y="33"/>
			<point x="134" y="46"/>
			<point x="117" y="46" type="curve" smooth="yes"/>
			<point x="100" y="46"/>
			<point x="87" y="33"/>
		</contour>
		<contour>
			<point x="165" y="16" type="curve" smooth="yes"/>
			<point x="165" y="-1"/>
			<point x="178" y="-14"/>
			<point x="195" y="-14" type="curve" smooth="yes"/>
			<point x="212" y="-14"/>
			<point x="225" y="-1"/>
			<point x="225" y="16" type="curve" smooth="yes"/>
			<point x="225" y="33"/>
			<point x="212" y="46"/>
			<point x="195" y="46" type="curve" smooth="yes"/>
			<point x="178" y="46"/>
			<point x="165" y="33"/>
		</contour>
		<contour>
			<point x="220" y="644" type="curve" smooth="yes"/>
			<point x="220" y="628"/>
			<point x="234" y="614"/>
			<point x="250" y="614" type="curve" smooth="yes"/>
			<point x="266" y="614"/>
			<point x="280" y="628"/>
			<point x="280" y="644" type="curve" smooth="yes"/>
			<point x="280" y="660"/>
			<point x="266" y="674"/>
			<point x="250" y="674" type="curve" smooth="yes"/>
			<point x="234" y="674"/>
			<point x="220" y="660"/>
		</contour>
		<contour>
			<point x="235" y="52" type="curve" smooth="yes"/>
			<point x="235" y="35"/>
			<point x="250" y="20"/>
			<point x="267" y="20" type="curve" smooth="yes"/>
			<point x="285" y="20"/>
			<point x="299" y="35"/>
			<point x="299" y="52" type="curve" smooth="yes"/>
			<point x="299" y="70"/>
			<point x="285" y="84"/>
			<point x="267" y="84" type="curve" smooth="yes"/>
			<point x="250" y="84"/>
			<point x="235" y="70"/>
		</contour>
		<contour>
			<point x="286" y="118" type="curve" smooth="yes"/>
			<point x="286" y="102"/>
			<point x="301" y="86"/>
			<point x="318" y="86" type="curve" smooth="yes"/>
			<point x="335" y="86"/>
			<point x="350" y="102"/>
			<point x="350" y="118" type="curve" smooth="yes"/>
			<point x="350" y="135"/>
			<point x="335" y="150"/>
			<point x="318" y="150" type="curve" smooth="yes"/>
			<point x="301" y="150"/>
			<point x="286" y="135"/>
		</contour>
		<contour>
			<point x="301" y="203" type="curve" smooth="yes"/>
			<point x="301" y="185"/>
			<point x="315" y="171"/>
			<point x="334" y="171" type="curve" smooth="yes"/>
			<point x="353" y="171"/>
			<point x="366" y="185"/>
			<point x="366" y="203" type="curve" smooth="yes"/>
			<point x="366" y="221"/>
			<point x="353" y="236"/>
			<point x="334" y="236" type="curve" smooth="yes"/>
			<point x="315" y="236"/>
			<point x="301" y="221"/>
		</contour>
		<contour>
			<point x="302" y="294" type="curve" smooth="yes"/>
			<point x="302" y="276"/>
			<point x="318" y="261"/>
			<point x="335" y="261" type="curve" smooth="yes"/>
			<point x="353" y="261"/>
			<point x="367" y="276"/>
			<point x="367" y="294" type="curve" smooth="yes"/>
			<point x="367" y="311"/>
			<point x="353" y="326"/>
			<point x="335" y="326" type="curve" smooth="yes"/>
			<point x="317" y="326"/>
			<point x="302" y="311"/>
		</contour>
		<contour>
			<point x="302" y="381" type="curve" smooth="yes"/>
			<point x="302" y="363"/>
			<point x="318" y="348"/>
			<point x="335" y="348" type="curve" smooth="yes"/>
			<point x="353" y="348"/>
			<point x="367" y="363"/>
			<point x="367" y="381" type="curve" smooth="yes"/>
			<point x="367" y="398"/>
			<point x="353" y="413"/>
			<point x="335" y="413" type="curve" smooth="yes"/>
			<point x="317" y="413"/>
			<point x="302" y="398"/>
		</contour>
		<contour>
			<point x="302" y="471" type="curve" smooth="yes"/>
			<point x="302" y="453"/>
			<point x="318" y="438"/>
			<point x="335" y="438" type="curve" smooth="yes"/>
			<point x="353" y="438"/>
			<point x="367" y="453"/>
			<point x="367" y="471" type="curve" smooth="yes"/>
			<point x="367" y="488"/>
			<point x="353" y="503"/>
			<point x="335" y="503" type="curve" smooth="yes"/>
			<point x="317" y="503"/>
			<point x="302" y="488"/>
		</contour>
		<contour>
			<point x="302" y="558" type="curve" smooth="yes"/>
			<point x="302" y="540"/>
			<point x="318" y="525"/>
			<point x="335" y="525" type="curve" smooth="yes"/>
			<point x="353" y="525"/>
			<point x="367" y="540"/>
			<point x="367" y="558" type="curve" smooth="yes"/>
			<point x="367" y="575"/>
			<point x="353" y="590"/>
			<point x="335" y="590" type="curve" smooth="yes"/>
			<point x="317" y="590"/>
			<point x="302" y="575"/>
		</contour>
		<contour>
			<point x="302" y="642" type="curve" smooth="yes"/>
			<point x="302" y="624"/>
			<point x="318" y="609"/>
			<point x="335" y="609" type="curve" smooth="yes"/>
			<point x="353" y="609"/>
			<point x="367" y="624"/>
			<point x="367" y="642" type="curve" smooth="yes"/>
			<point x="367" y="659"/>
			<point x="353" y="674"/>
			<point x="335" y="674" type="curve" smooth="yes"/>
			<point x="317" y="674"/>
			<point x="302" y="659"/>
		</contour>
	</outline>
</glyph>
<glyph name="K.ss01" format="2">
	<advance width="499"/>
	<note>
		K.ss01
	</note>
	<outline>
		<contour>
			<point x="412" y="622" type="curve" smooth="yes"/>
			<point x="426" y="610"/>
			<point x="447" y="613"/>
			<point x="458" y="625" type="curve" smooth="yes"/>
			<point x="471" y="639"/>
			<point x="470" y="659"/>
			<point x="455" y="672" type="curve" smooth="yes"/>
			<point x="443" y="684"/>
			<point x="421" y="681"/>
			<point x="410" y="668" type="curve" smooth="yes"/>
			<point x="398" y="656"/>
			<point x="400" y="633"/>
		</contour>
		<contour>
			<point x="60" y="33" type="curve" smooth="yes"/>
			<point x="60" y="15"/>
			<point x="75" y="1"/>
			<point x="93" y="0" type="curve" smooth="yes"/>
			<point x="112" y="0"/>
			<point x="125" y="15"/>
			<point x="125" y="33" type="curve" smooth="yes"/>
			<point x="125" y="51"/>
			<point x="112" y="65"/>
			<point x="93" y="65" type="curve" smooth="yes"/>
			<point x="75" y="65"/>
			<point x="60" y="51"/>
		</contour>
		<contour>
			<point x="60" y="120" type="curve" smooth="yes"/>
			<point x="60" y="101"/>
			<point x="75" y="87"/>
			<point x="93" y="87" type="curve" smooth="yes"/>
			<point x="112" y="87"/>
			<point x="125" y="101"/>
			<point x="125" y="120" type="curve" smooth="yes"/>
			<point x="125" y="137"/>
			<point x="112" y="152"/>
			<point x="93" y="152" type="curve" smooth="yes"/>
			<point x="75" y="152"/>
			<point x="60" y="136"/>
		</contour>
		<contour>
			<point x="60" y="207" type="curve" smooth="yes"/>
			<point x="60" y="188"/>
			<point x="75" y="174"/>
			<point x="93" y="174" type="curve" smooth="yes"/>
			<point x="112" y="174"/>
			<point x="125" y="189"/>
			<point x="125" y="207" type="curve" smooth="yes"/>
			<point x="125" y="224"/>
			<point x="112" y="239"/>
			<point x="93" y="239" type="curve" smooth="yes"/>
			<point x="75" y="239"/>
			<point x="60" y="224"/>
		</contour>
		<contour>
			<point x="60" y="294" type="curve" smooth="yes"/>
			<point x="60" y="275"/>
			<point x="75" y="261"/>
			<point x="93" y="261" type="curve" smooth="yes"/>
			<point x="111" y="261"/>
			<point x="125" y="276"/>
			<point x="125" y="294" type="curve" smooth="yes"/>
			<point x="125" y="311"/>
			<point x="111" y="326"/>
			<point x="93" y="326" type="curve" smooth="yes"/>
			<point x="74" y="326"/>
			<point x="60" y="311"/>
		</contour>
		<contour>
			<point x="60" y="381" type="curve" smooth="yes"/>
			<point x="60" y="362"/>
			<point x="75" y="348"/>
			<point x="93" y="348" type="curve" smooth="yes"/>
			<point x="112" y="348"/>
			<point x="125" y="363"/>
			<point x="125" y="381" type="curve" smooth="yes"/>
			<point x="125" y="398"/>
			<point x="112" y="413"/>
			<point x="93" y="413" type="curve" smooth="yes"/>
			<point x="75" y="413"/>
			<point x="60" y="398"/>
		</contour>
		<contour>
			<point x="60" y="468" type="curve" smooth="yes"/>
			<point x="60" y="450"/>
			<point x="76" y="435"/>
			<point x="93" y="435" type="curve" smooth="yes"/>
			<point x="111" y="435"/>
			<point x="125" y="450"/>
			<point x="125" y="468" type="curve" smooth="yes"/>
			<point x="125" y="485"/>
			<point x="111" y="500"/>
			<point x="93" y="500" type="curve" smooth="yes"/>
			<point x="75" y="500"/>
			<point x="60" y="485"/>
		</contour>
		<contour>
			<point x="60" y="555" type="curve" smooth="yes"/>
			<point x="60" y="536"/>
			<point x="75" y="522"/>
			<point x="93" y="522" type="curve" smooth="yes"/>
			<point x="112" y="522"/>
			<point x="125" y="537"/>
			<point x="125" y="555" type="curve" smooth="yes"/>
			<point x="125" y="572"/>
			<point x="112" y="587"/>
			<point x="93" y="587" type="curve" smooth="yes"/>
			<point x="75" y="587"/>
			<point x="60" y="572"/>
		</contour>
		<contour>
			<point x="60" y="642" type="curve" smooth="yes"/>
			<point x="60" y="624"/>
			<point x="76" y="609"/>
			<point x="93" y="609" type="curve" smooth="yes"/>
			<point x="111" y="609"/>
			<point x="125" y="624"/>
			<point x="125" y="642" type="curve" smooth="yes"/>
			<point x="125" y="659"/>
			<point x="111" y="674"/>
			<point x="93" y="674" type="curve" smooth="yes"/>
			<point x="75" y="674"/>
			<point x="60" y="659"/>
		</contour>
		<contour>
			<point x="134" y="332" type="curve" smooth="yes"/>
			<point x="134" y="316"/>
			<point x="146" y="304"/>
			<point x="162" y="304" type="curve" smooth="yes"/>
			<point x="178" y="304"/>
			<point x="190" y="316"/>
			<point x="190" y="332" type="curve" smooth="yes"/>
			<point x="190" y="347"/>
			<point x="178" y="360"/>
			<point x="162" y="360" type="curve" smooth="yes"/>
			<point x="146" y="360"/>
			<point x="134" y="348"/>
		</contour>
		<contour>
			<point x="179" y="392" type="curve" smooth="yes"/>
			<point x="179" y="375"/>
			<point x="192" y="362"/>
			<point x="209" y="362" type="curve" smooth="yes"/>
			<point x="226" y="362"/>
			<point x="239" y="374"/>
			<point x="239" y="391" type="curve" smooth="yes"/>
			<point x="240" y="408"/>
			<point x="227" y="422"/>
			<point x="210" y="422" type="curve" smooth="yes"/>
			<point x="193" y="422"/>
			<point x="180" y="409"/>
		</contour>
		<contour>
			<point x="195" y="280" type="curve" smooth="yes"/>
			<point x="196" y="263"/>
			<point x="210" y="250"/>
			<point x="227" y="251" type="curve" smooth="yes"/>
			<point x="244" y="252"/>
			<point x="256" y="265"/>
			<point x="255" y="282" type="curve" smooth="yes"/>
			<point x="254" y="299"/>
			<point x="242" y="312"/>
			<point x="225" y="311" type="curve" smooth="yes"/>
			<point x="208" y="310"/>
			<point x="195" y="297"/>
		</contour>
		<contour>
			<point x="238" y="471" type="curve" smooth="yes"/>
			<point x="226" y="458"/>
			<point x="228" y="435"/>
			<point x="242" y="425" type="curve" smooth="yes"/>
			<point x="256" y="413"/>
			<point x="277" y="415"/>
			<point x="287" y="428" type="curve" smooth="yes"/>
			<point x="298" y="441"/>
			<point x="299" y="461"/>
			<point x="285" y="474" type="curve" smooth="yes"/>
			<point x="271" y="485"/>
			<point x="250" y="483"/>
		</contour>
		<contour>
			<point x="261" y="198" type="curve"/>
			<point x="274" y="187"/>
			<point x="295" y="186"/>
			<point x="309" y="199" type="curve" smooth="yes"/>
			<point x="321" y="211"/>
			<point x="319" y="231"/>
			<point x="308" y="244" type="curve" smooth="yes"/>
			<point x="297" y="256"/>
			<point x="276" y="257"/>
			<point x="263" y="244" type="curve"/>
			<point x="249" y="234"/>
			<point x="248" y="212"/>
		</contour>
		<contour>
			<point x="296" y="536" type="curve"/>
			<point x="283" y="523"/>
			<point x="285" y="502"/>
			<point x="298" y="491" type="curve" smooth="yes"/>
			<point x="312" y="479"/>
			<point x="333" y="482"/>
			<point x="345" y="494" type="curve"/>
			<point x="355" y="508"/>
			<point x="355" y="528"/>
			<point x="341" y="540" type="curve" smooth="yes"/>
			<point x="327" y="552"/>
			<point x="306" y="549"/>
		</contour>
		<contour>
			<point x="322" y="181" type="curve" smooth="yes"/>
			<point x="310" y="171"/>
			<point x="308" y="150"/>
			<point x="323" y="136" type="curve"/>
			<point x="333" y="124"/>
			<point x="354" y="122"/>
			<point x="368" y="136" type="curve" smooth="yes"/>
			<point x="380" y="147"/>
			<point x="380" y="167"/>
			<point x="369" y="181" type="curve"/>
			<point x="357" y="193"/>
			<point x="336" y="194"/>
		</contour>
		<contour>
			<point x="352" y="603" type="curve" smooth="yes"/>
			<point x="341" y="589"/>
			<point x="341" y="569"/>
			<point x="355" y="557" type="curve" smooth="yes"/>
			<point x="370" y="544"/>
			<point x="389" y="547"/>
			<point x="401" y="560" type="curve" smooth="yes"/>
			<point x="413" y="573"/>
			<point x="412" y="593"/>
			<point x="398" y="606" type="curve" smooth="yes"/>
			<point x="384" y="617"/>
			<point x="362" y="615"/>
		</contour>
		<contour>
			<point x="382" y="72" type="curve" smooth="yes"/>
			<point x="392" y="60"/>
			<point x="415" y="61"/>
			<point x="428" y="73" type="curve" smooth="yes"/>
			<point x="442" y="85"/>
			<point x="441" y="105"/>
			<point x="429" y="118" type="curve" smooth="yes"/>
			<point x="416" y="131"/>
			<point x="397" y="133"/>
			<point x="382" y="118" type="curve" smooth="yes"/>
			<point x="370" y="107"/>
			<point x="371" y="87"/>
		</contour>
		<contour>
			<point x="443" y="10" type="curve" smooth="yes"/>
			<point x="455" y="-1"/>
			<point x="476" y="-3"/>
			<point x="488" y="10" type="curve"/>
			<point x="503" y="22"/>
			<point x="502" y="42"/>
			<point x="489" y="56" type="curve" smooth="yes"/>
			<point x="477" y="68"/>
			<point x="457" y="70"/>
			<point x="443" y="56" type="curve" smooth="yes"/>
			<point x="431" y="46"/>
			<point x="431" y="23"/>
		</contour>
	</outline>
</glyph>
<glyph name="N.ss01" format="2">
	<advance width="615"/>
	<note>
		N.ss01
	</note>
	<outline>
		<contour>
			<point x="60" y="642" type="curve" smooth="yes"/>
			<point x="60" y="659"/>
			<point x="75" y="674"/>
			<point x="93" y="674" type="curve" smooth="yes"/>
			<point x="112" y="674"/>
			<point x="125" y="659"/>
			<point x="125" y="642" type="curve" smooth="yes"/>
			<point x="125" y="624"/>
			<point x="112" y="609"/>
			<point x="93" y="609" type="curve" smooth="yes"/>
			<point x="75" y="609"/>
			<point x="60" y="623"/>
		</contour>
		<contour>
			<point x="60" y="33" type="curve" smooth="yes"/>
			<point x="60" y="15"/>
			<point x="75" y="0"/>
			<point x="93" y="0" type="curve" smooth="yes"/>
			<point x="112" y="0"/>
			<point x="125" y="15"/>
			<point x="125" y="33" type="curve" smooth="yes"/>
			<point x="125" y="51"/>
			<point x="112" y="65"/>
			<point x="93" y="65" type="curve" smooth="yes"/>
			<point x="75" y="65"/>
			<point x="60" y="51"/>
		</contour>
		<contour>
			<point x="60" y="120" type="curve" smooth="yes"/>
			<point x="60" y="101"/>
			<point x="75" y="87"/>
			<point x="93" y="87" type="curve" smooth="yes"/>
			<point x="112" y="87"/>
			<point x="125" y="101"/>
			<point x="125" y="120" type="curve" smooth="yes"/>
			<point x="125" y="137"/>
			<point x="112" y="152"/>
			<point x="93" y="152" type="curve" smooth="yes"/>
			<point x="75" y="152"/>
			<point x="60" y="136"/>
		</contour>
		<contour>
			<point x="60" y="207" type="curve" smooth="yes"/>
			<point x="60" y="224"/>
			<point x="75" y="239"/>
			<point x="93" y="239" type="curve" smooth="yes"/>
			<point x="112" y="239"/>
			<point x="125" y="224"/>
			<point x="125" y="207" type="curve" smooth="yes"/>
			<point x="125" y="189"/>
			<point x="112" y="174"/>
			<point x="93" y="174" type="curve" smooth="yes"/>
			<point x="75" y="174"/>
			<point x="60" y="188"/>
		</contour>
		<contour>
			<point x="60" y="294" type="curve" smooth="yes"/>
			<point x="60" y="311"/>
			<point x="74" y="326"/>
			<point x="93" y="326" type="curve" smooth="yes"/>
			<point x="111" y="326"/>
			<point x="125" y="311"/>
			<point x="125" y="294" type="curve" smooth="yes"/>
			<point x="125" y="276"/>
			<point x="111" y="261"/>
			<point x="93" y="261" type="curve" smooth="yes"/>
			<point x="75" y="261"/>
			<point x="60" y="275"/>
		</contour>
		<contour>
			<point x="60" y="381" type="curve" smooth="yes"/>
			<point x="60" y="398"/>
			<point x="75" y="413"/>
			<point x="93" y="413" type="curve" smooth="yes"/>
			<point x="112" y="413"/>
			<point x="125" y="398"/>
			<point x="125" y="381" type="curve" smooth="yes"/>
			<point x="125" y="363"/>
			<point x="112" y="348"/>
			<point x="93" y="348" type="curve" smooth="yes"/>
			<point x="75" y="348"/>
			<point x="60" y="362"/>
		</contour>
		<contour>
			<point x="60" y="468" type="curve" smooth="yes"/>
			<point x="60" y="485"/>
			<point x="75" y="500"/>
			<point x="93" y="500" type="curve" smooth="yes"/>
			<point x="111" y="500"/>
			<point x="125" y="485"/>
			<point x="125" y="468" type="curve" smooth="yes"/>
			<point x="125" y="450"/>
			<point x="111" y="435"/>
			<point x="93" y="435" type="curve" smooth="yes"/>
			<point x="76" y="435"/>
			<point x="60" y="450"/>
		</contour>
		<contour>
			<point x="60" y="555" type="curve" smooth="yes"/>
			<point x="60" y="572"/>
			<point x="75" y="587"/>
			<point x="93" y="587" type="curve" smooth="yes"/>
			<point x="112" y="587"/>
			<point x="125" y="572"/>
			<point x="125" y="555" type="curve" smooth="yes"/>
			<point x="125" y="537"/>
			<point x="112" y="522"/>
			<point x="93" y="522" type="curve" smooth="yes"/>
			<point x="75" y="522"/>
			<point x="60" y="536"/>
		</contour>
		<contour>
			<point x="132" y="580" type="curve" smooth="yes"/>
			<point x="132" y="563"/>
			<point x="144" y="551"/>
			<point x="161" y="551" type="curve" smooth="yes"/>
			<point x="178" y="551"/>
			<point x="191" y="563"/>
			<point x="191" y="580" type="curve" smooth="yes"/>
			<point x="191" y="597"/>
			<point x="178" y="610"/>
			<point x="161" y="610" type="curve" smooth="yes"/>
			<point x="145" y="610"/>
			<point x="132" y="597"/>
		</contour>
		<contour>
			<point x="176" y="510" type="curve" smooth="yes"/>
			<point x="176" y="493"/>
			<point x="188" y="481"/>
			<point x="205" y="481" type="curve" smooth="yes"/>
			<point x="221" y="481"/>
			<point x="235" y="493"/>
			<point x="235" y="510" type="curve" smooth="yes"/>
			<point x="235" y="527"/>
			<point x="222" y="540"/>
			<point x="205" y="540" type="curve" smooth="yes"/>
			<point x="188" y="540"/>
			<point x="176" y="527"/>
		</contour>
		<contour>
			<point x="220" y="440" type="curve" smooth="yes"/>
			<point x="220" y="423"/>
			<point x="232" y="411"/>
			<point x="249" y="411" type="curve" smooth="yes"/>
			<point x="266" y="411"/>
			<point x="279" y="423"/>
			<point x="279" y="440" type="curve" smooth="yes"/>
			<point x="279" y="457"/>
			<point x="265" y="470"/>
			<point x="249" y="470" type="curve" smooth="yes"/>
			<point x="232" y="470"/>
			<point x="220" y="457"/>
		</contour>
		<contour>
			<point x="264" y="370" type="curve" smooth="yes"/>
			<point x="264" y="353"/>
			<point x="276" y="341"/>
			<point x="293" y="341" type="curve" smooth="yes"/>
			<point x="310" y="341"/>
			<point x="323" y="353"/>
			<point x="323" y="370" type="curve" smooth="yes"/>
			<point x="323" y="387"/>
			<point x="310" y="400"/>
			<point x="293" y="400" type="curve" smooth="yes"/>
			<point x="276" y="400"/>
			<point x="264" y="387"/>
		</contour>
		<contour>
			<point x="308" y="300" type="curve" smooth="yes"/>
			<point x="308" y="283"/>
			<point x="320" y="271"/>
			<point x="337" y="271" type="curve" smooth="yes"/>
			<point x="354" y="271"/>
			<point x="367" y="283"/>
			<point x="367" y="300" type="curve" smooth="yes"/>
			<point x="367" y="317"/>
			<point x="353" y="330"/>
			<point x="337" y="330" type="curve" smooth="yes"/>
			<point x="320" y="330"/>
			<point x="308" y="317"/>
		</contour>
		<contour>
			<point x="352" y="230" type="curve" smooth="yes"/>
			<point x="352" y="213"/>
			<point x="364" y="201"/>
			<point x="381" y="201" type="curve" smooth="yes"/>
			<point x="398" y="201"/>
			<point x="411" y="213"/>
			<point x="411" y="230" type="curve" smooth="yes"/>
			<point x="411" y="247"/>
			<point x="398" y="260"/>
			<point x="381" y="260" type="curve" smooth="yes"/>
			<point x="364" y="260"/>
			<point x="352" y="247"/>
		</contour>
		<contour>
			<point x="396" y="160" type="curve" smooth="yes"/>
			<point x="396" y="143"/>
			<point x="408" y="131"/>
			<point x="425" y="131" type="curve" smooth="yes"/>
			<point x="442" y="131"/>
			<point x="455" y="143"/>
			<point x="455" y="160" type="curve" smooth="yes"/>
			<point x="455" y="176"/>
			<point x="442" y="190"/>
			<point x="425" y="190" type="curve" smooth="yes"/>
			<point x="408" y="190"/>
			<point x="396" y="177"/>
		</contour>
		<contour>
			<point x="438" y="93" type="curve" smooth="yes"/>
			<point x="438" y="76"/>
			<point x="450" y="64"/>
			<point x="467" y="64" type="curve" smooth="yes"/>
			<point x="484" y="64"/>
			<point x="497" y="76"/>
			<point x="497" y="93" type="curve" smooth="yes"/>
			<point x="497" y="110"/>
			<point x="484" y="123"/>
			<point x="467" y="123" type="curve" smooth="yes"/>
			<point x="450" y="123"/>
			<point x="438" y="110"/>
		</contour>
		<contour>
			<point x="500" y="33" type="curve" smooth="yes"/>
			<point x="500" y="14"/>
			<point x="515" y="0"/>
			<point x="533" y="0" type="curve" smooth="yes"/>
			<point x="552" y="0"/>
			<point x="565" y="14"/>
			<point x="565" y="33" type="curve" smooth="yes"/>
			<point x="565" y="50"/>
			<point x="552" y="65"/>
			<point x="533" y="65" type="curve" smooth="yes"/>
			<point x="515" y="65"/>
			<point x="500" y="49"/>
		</contour>
		<contour>
			<point x="500" y="120" type="curve" smooth="yes"/>
			<point x="500" y="101"/>
			<point x="515" y="87"/>
			<point x="533" y="87" type="curve" smooth="yes"/>
			<point x="552" y="87"/>
			<point x="565" y="101"/>
			<point x="565" y="120" type="curve" smooth="yes"/>
			<point x="565" y="137"/>
			<point x="552" y="152"/>
			<point x="533" y="152" type="curve" smooth="yes"/>
			<point x="515" y="152"/>
			<point x="500" y="136"/>
		</contour>
		<contour>
			<point x="500" y="207" type="curve" smooth="yes"/>
			<point x="500" y="224"/>
			<point x="515" y="239"/>
			<point x="533" y="239" type="curve" smooth="yes"/>
			<point x="552" y="239"/>
			<point x="565" y="224"/>
			<point x="565" y="207" type="curve" smooth="yes"/>
			<point x="565" y="189"/>
			<point x="552" y="174"/>
			<point x="533" y="174" type="curve" smooth="yes"/>
			<point x="515" y="174"/>
			<point x="500" y="188"/>
		</contour>
		<contour>
			<point x="500" y="294" type="curve" smooth="yes"/>
			<point x="500" y="311"/>
			<point x="514" y="326"/>
			<point x="533" y="326" type="curve" smooth="yes"/>
			<point x="551" y="326"/>
			<point x="565" y="311"/>
			<point x="565" y="294" type="curve" smooth="yes"/>
			<point x="565" y="276"/>
			<point x="551" y="261"/>
			<point x="533" y="261" type="curve" smooth="yes"/>
			<point x="515" y="261"/>
			<point x="500" y="275"/>
		</contour>
		<contour>
			<point x="500" y="381" type="curve" smooth="yes"/>
			<point x="500" y="398"/>
			<point x="515" y="413"/>
			<point x="533" y="413" type="curve" smooth="yes"/>
			<point x="552" y="413"/>
			<point x="565" y="398"/>
			<point x="565" y="381" type="curve" smooth="yes"/>
			<point x="565" y="363"/>
			<point x="552" y="348"/>
			<point x="533" y="348" type="curve" smooth="yes"/>
			<point x="515" y="348"/>
			<point x="500" y="362"/>
		</contour>
		<contour>
			<point x="500" y="468" type="curve" smooth="yes"/>
			<point x="500" y="485"/>
			<point x="515" y="500"/>
			<point x="533" y="500" type="curve" smooth="yes"/>
			<point x="551" y="500"/>
			<point x="565" y="485"/>
			<point x="565" y="468" type="curve" smooth="yes"/>
			<point x="565" y="450"/>
			<point x="551" y="435"/>
			<point x="533" y="435" type="curve" smooth="yes"/>
			<point x="516" y="435"/>
			<point x="500" y="450"/>
		</contour>
		<contour>
			<point x="500" y="555" type="curve" smooth="yes"/>
			<point x="500" y="572"/>
			<point x="515" y="587"/>
			<point x="533" y="587" type="curve" smooth="yes"/>
			<point x="552" y="587"/>
			<point x="565" y="572"/>
			<point x="565" y="555" type="curve" smooth="yes"/>
			<point x="565" y="537"/>
			<point x="552" y="522"/>
			<point x="533" y="522" type="curve" smooth="yes"/>
			<point x="515" y="522"/>
			<point x="500" y="536"/>
		</contour>
		<contour>
			<point x="500" y="642" type="curve" smooth="yes"/>
			<point x="500" y="659"/>
			<point x="515" y="674"/>
			<point x="533" y="674" type="curve" smooth="yes"/>
			<point x="551" y="674"/>
			<point x="565" y="659"/>
			<point x="565" y="642" type="curve" smooth="yes"/>
			<point x="565" y="624"/>
			<point x="551" y="609"/>
			<point x="533" y="609" type="curve" smooth="yes"/>
			<point x="516" y="609"/>
			<point x="500" y="624"/>
		</contour>
	</outline>
</glyph>
<glyph name="O.ss01" format="2">
	<advance width="668"/>
	<note>
		O.ss01
	</note>
	<outline>
		<contour>
			<point x="258" y="658" type="curve" smooth="yes"/>
			<point x="258" y="675"/>
			<point x="271" y="688"/>
			<point x="288" y="688" type="curve" smooth="yes"/>
			<point x="305" y="688"/>
			<point x="318" y="675"/>
			<point x="318" y="658" type="curve" smooth="yes"/>
			<point x="318" y="641"/>
			<point x="305" y="628"/>
			<point x="288" y="628" type="curve" smooth="yes"/>
			<point x="271" y="628"/>
			<point x="258" y="641"/>
		</contour>
		<contour>
			<point x="50" y="290" type="curve" smooth="yes"/>
			<point x="50" y="271"/>
			<point x="66" y="255"/>
			<point x="85" y="255" type="curve" smooth="yes"/>
			<point x="104" y="255"/>
			<point x="120" y="271"/>
			<point x="120" y="290" type="curve" smooth="yes"/>
			<point x="120" y="309"/>
			<point x="104" y="325"/>
			<point x="85" y="325" type="curve" smooth="yes"/>
			<point x="66" y="325"/>
			<point x="50" y="309"/>
		</contour>
		<contour>
			<point x="50" y="384" type="curve" smooth="yes"/>
			<point x="50" y="365"/>
			<point x="66" y="349"/>
			<point x="85" y="349" type="curve" smooth="yes"/>
			<point x="104" y="349"/>
			<point x="120" y="365"/>
			<point x="120" y="384" type="curve" smooth="yes"/>
			<point x="120" y="403"/>
			<point x="104" y="419"/>
			<point x="85" y="419" type="curve" smooth="yes"/>
			<point x="66" y="419"/>
			<point x="50" y="403"/>
		</contour>
		<contour>
			<point x="67" y="197" type="curve" smooth="yes"/>
			<point x="67" y="178"/>
			<point x="81" y="163"/>
			<point x="101" y="163" type="curve" smooth="yes"/>
			<point x="121" y="163"/>
			<point x="137" y="178"/>
			<point x="137" y="197" type="curve" smooth="yes"/>
			<point x="137" y="216"/>
			<point x="121" y="232"/>
			<point x="101" y="232" type="curve" smooth="yes"/>
			<point x="81" y="232"/>
			<point x="67" y="216"/>
		</contour>
		<contour>
			<point x="67" y="477" type="curve" smooth="yes"/>
			<point x="67" y="458"/>
			<point x="81" y="442"/>
			<point x="101" y="442" type="curve" smooth="yes"/>
			<point x="121" y="442"/>
			<point x="137" y="458"/>
			<point x="137" y="477" type="curve" smooth="yes"/>
			<point x="137" y="496"/>
			<point x="121" y="511"/>
			<point x="101" y="511" type="curve" smooth="yes"/>
			<point x="81" y="511"/>
			<point x="67" y="496"/>
		</contour>
		<contour>
			<point x="107" y="114" type="curve" smooth="yes"/>
			<point x="107" y="97"/>
			<point x="122" y="81"/>
			<point x="140" y="81" type="curve" smooth="yes"/>
			<point x="158" y="81"/>
			<point x="173" y="97"/>
			<point x="173" y="114" type="curve" smooth="yes"/>
			<point x="173" y="132"/>
			<point x="158" y="147"/>
			<point x="140" y="147" type="curve" smooth="yes"/>
			<point x="122" y="147"/>
			<point x="107" y="132"/>
		</contour>
		<contour>
			<point x="107" y="560" type="curve" smooth="yes"/>
			<point x="107" y="542"/>
			<point x="122" y="527"/>
			<point x="140" y="527" type="curve" smooth="yes"/>
			<point x="158" y="527"/>
			<point x="173" y="542"/>
			<point x="173" y="560" type="curve" smooth="yes"/>
			<point x="173" y="577"/>
			<point x="158" y="593"/>
			<point x="140" y="593" type="curve" smooth="yes"/>
			<point x="122" y="593"/>
			<point x="107" y="577"/>
		</contour>
		<contour>
			<point x="172" y="49" type="curve" smooth="yes"/>
			<point x="172" y="68"/>
			<point x="186" y="82"/>
			<point x="205" y="82" type="curve" smooth="yes"/>
			<point x="223" y="82"/>
			<point x="238" y="68"/>
			<point x="238" y="49" type="curve" smooth="yes"/>
			<point x="238" y="31"/>
			<point x="223" y="16"/>
			<point x="205" y="16" type="curve" smooth="yes"/>
			<point x="186" y="16"/>
			<point x="172" y="31"/>
		</contour>
		<contour>
			<point x="172" y="625" type="curve" smooth="yes"/>
			<point x="172" y="643"/>
			<point x="186" y="658"/>
			<point x="205" y="658" type="curve" smooth="yes"/>
			<point x="223" y="658"/>
			<point x="238" y="643"/>
			<point x="238" y="625" type="curve" smooth="yes"/>
			<point x="238" y="606"/>
			<point x="223" y="592"/>
			<point x="205" y="592" type="curve" smooth="yes"/>
			<point x="186" y="592"/>
			<point x="172" y="606"/>
		</contour>
		<contour>
			<point x="258" y="16" type="curve" smooth="yes"/>
			<point x="258" y="33"/>
			<point x="271" y="46"/>
			<point x="288" y="46" type="curve" smooth="yes"/>
			<point x="305" y="46"/>
			<point x="318" y="33"/>
			<point x="318" y="16" type="curve" smooth="yes"/>
			<point x="318" y="-1"/>
			<point x="305" y="-14"/>
			<point x="288" y="-14" type="curve" smooth="yes"/>
			<point x="271" y="-14"/>
			<point x="258" y="-1"/>
		</contour>
		<contour>
			<point x="342" y="16" type="curve" smooth="yes"/>
			<point x="342" y="33"/>
			<point x="355" y="46"/>
			<point x="372" y="46" type="curve" smooth="yes"/>
			<point x="389" y="46"/>
			<point x="402" y="33"/>
			<point x="402" y="16" type="curve" smooth="yes"/>
			<point x="402" y="-1"/>
			<point x="389" y="-14"/>
			<point x="372" y="-14" type="curve" smooth="yes"/>
			<point x="355" y="-14"/>
			<point x="342" y="-1"/>
		</contour>
		<contour>
			<point x="342" y="658" type="curve" smooth="yes"/>
			<point x="342" y="675"/>
			<point x="355" y="688"/>
			<point x="372" y="688" type="curve" smooth="yes"/>
			<point x="389" y="688"/>
			<point x="402" y="675"/>
			<point x="402" y="658" type="curve" smooth="yes"/>
			<point x="402" y="641"/>
			<point x="389" y="628"/>
			<point x="372" y="628" type="curve" smooth="yes"/>
			<point x="355" y="628"/>
			<point x="342" y="641"/>
		</contour>
		<contour>
			<point x="422" y="49" type="curve" smooth="yes"/>
			<point x="422" y="68"/>
			<point x="437" y="82"/>
			<point x="455" y="82" type="curve" smooth="yes"/>
			<point x="474" y="82"/>
			<point x="488" y="68"/>
			<point x="488" y="49" type="curve" smooth="yes"/>
			<point x="488" y="31"/>
			<point x="474" y="16"/>
			<point x="455" y="16" type="curve" smooth="yes"/>
			<point x="437" y="16"/>
			<point x="422" y="31"/>
		</contour>
		<contour>
			<point x="422" y="625" type="curve" smooth="yes"/>
			<point x="422" y="643"/>
			<point x="437" y="658"/>
			<point x="455" y="658" type="curve" smooth="yes"/>
			<point x="474" y="658"/>
			<point x="488" y="643"/>
			<point x="488" y="625" type="curve" smooth="yes"/>
			<point x="488" y="606"/>
			<point x="474" y="592"/>
			<point x="455" y="592" type="curve" smooth="yes"/>
			<point x="437" y="592"/>
			<point x="422" y="606"/>
		</contour>
		<contour>
			<point x="487" y="114" type="curve" smooth="yes"/>
			<point x="487" y="97"/>
			<point x="502" y="81"/>
			<point x="520" y="81" type="curve" smooth="yes"/>
			<point x="538" y="81"/>
			<point x="553" y="97"/>
			<point x="553" y="114" type="curve" smooth="yes"/>
			<point x="553" y="132"/>
			<point x="538" y="147"/>
			<point x="520" y="147" type="curve" smooth="yes"/>
			<point x="502" y="147"/>
			<point x="487" y="132"/>
		</contour>
		<contour>
			<point x="487" y="560" type="curve" smooth="yes"/>
			<point x="487" y="542"/>
			<point x="502" y="527"/>
			<point x="520" y="527" type="curve" smooth="yes"/>
			<point x="538" y="527"/>
			<point x="553" y="542"/>
			<point x="553" y="560" type="curve" smooth="yes"/>
			<point x="553" y="577"/>
			<point x="538" y="593"/>
			<point x="520" y="593" type="curve" smooth="yes"/>
			<point x="502" y="593"/>
			<point x="487" y="577"/>
		</contour>
		<contour>
			<point x="523" y="197" type="curve" smooth="yes"/>
			<point x="523" y="178"/>
			<point x="539" y="163"/>
			<point x="559" y="163" type="curve" smooth="yes"/>
			<point x="579" y="163"/>
			<point x="593" y="178"/>
			<point x="593" y="197" type="curve" smooth="yes"/>
			<point x="593" y="216"/>
			<point x="579" y="232"/>
			<point x="559" y="232" type="curve" smooth="yes"/>
			<point x="539" y="232"/>
			<point x="523" y="216"/>
		</contour>
		<contour>
			<point x="523" y="477" type="curve" smooth="yes"/>
			<point x="523" y="458"/>
			<point x="539" y="442"/>
			<point x="559" y="442" type="curve" smooth="yes"/>
			<point x="579" y="442"/>
			<point x="593" y="458"/>
			<point x="593" y="477" type="curve" smooth="yes"/>
			<point x="593" y="496"/>
			<point x="579" y="511"/>
			<point x="559" y="511" type="curve" smooth="yes"/>
			<point x="539" y="511"/>
			<point x="523" y="496"/>
		</contour>
		<contour>
			<point x="540" y="290" type="curve" smooth="yes"/>
			<point x="540" y="271"/>
			<point x="556" y="255"/>
			<point x="575" y="255" type="curve" smooth="yes"/>
			<point x="594" y="255"/>
			<point x="610" y="271"/>
			<point x="610" y="290" type="curve" smooth="yes"/>
			<point x="610" y="309"/>
			<point x="594" y="325"/>
			<point x="575" y="325" type="curve" smooth="yes"/>
			<point x="556" y="325"/>
			<point x="540" y="309"/>
		</contour>
		<contour>
			<point x="540" y="384" type="curve" smooth="yes"/>
			<point x="540" y="365"/>
			<point x="556" y="349"/>
			<point x="575" y="349" type="curve" smooth="yes"/>
			<point x="594" y="349"/>
			<point x="610" y="365"/>
			<point x="610" y="384" type="curve" smooth="yes"/>
			<point x="610" y="403"/>
			<point x="594" y="419"/>
			<point x="575" y="419" type="curve" smooth="yes"/>
			<point x="556" y="419"/>
			<point x="540" y="403"/>
		</contour>
	</outline>
</glyph>
<glyph name="V.ss01" format="2">
	<advance width="573"/>
	<note>
		V.ss01
	</note>
	<outline>
		<contour>
			<point x="15" y="639" type="curve" smooth="yes"/>
			<point x="15" y="619"/>
			<point x="31" y="604"/>
			<point x="50" y="604" type="curve" smooth="yes"/>
			<point x="70" y="604"/>
			<point x="86" y="619"/>
			<point x="86" y="639" type="curve" smooth="yes"/>
			<point x="86" y="657"/>
			<point x="70" y="674"/>
			<point x="50" y="674" type="curve" smooth="yes"/>
			<point x="31" y="674"/>
			<point x="15" y="656"/>
		</contour>
		<contour>
			<point x="47" y="549" type="curve" smooth="yes"/>
			<point x="47" y="529"/>
			<point x="63" y="514"/>
			<point x="82" y="514" type="curve" smooth="yes"/>
			<point x="102" y="514"/>
			<point x="118" y="529"/>
			<point x="118" y="549" type="curve" smooth="yes"/>
			<point x="118" y="567"/>
			<point x="102" y="584"/>
			<point x="82" y="584" type="curve" smooth="yes"/>
			<point x="63" y="584"/>
			<point x="47" y="566"/>
		</contour>
		<contour>
			<point x="75" y="459" type="curve" smooth="yes"/>
			<point x="75" y="439"/>
			<point x="90" y="424"/>
			<point x="110" y="424" type="curve" smooth="yes"/>
			<point x="130" y="424"/>
			<point x="145" y="439"/>
			<point x="145" y="459" type="curve" smooth="yes"/>
			<point x="145" y="477"/>
			<point x="130" y="494"/>
			<point x="110" y="494" type="curve" smooth="yes"/>
			<point x="90" y="494"/>
			<point x="75" y="476"/>
		</contour>
		<contour>
			<point x="105" y="370" type="curve" smooth="yes"/>
			<point x="105" y="350"/>
			<point x="120" y="335"/>
			<point x="139" y="335" type="curve" smooth="yes"/>
			<point x="159" y="335"/>
			<point x="174" y="350"/>
			<point x="174" y="370" type="curve" smooth="yes"/>
			<point x="174" y="387"/>
			<point x="159" y="404"/>
			<point x="139" y="404" type="curve" smooth="yes"/>
			<point x="120" y="404"/>
			<point x="105" y="387"/>
		</contour>
		<contour>
			<point x="138" y="281" type="curve" smooth="yes"/>
			<point x="138" y="261"/>
			<point x="153" y="246"/>
			<point x="172" y="246" type="curve" smooth="yes"/>
			<point x="192" y="246"/>
			<point x="207" y="262"/>
			<point x="207" y="281" type="curve" smooth="yes"/>
			<point x="207" y="299"/>
			<point x="192" y="315"/>
			<point x="172" y="315" type="curve" smooth="yes"/>
			<point x="153" y="315"/>
			<point x="138" y="298"/>
		</contour>
		<contour>
			<point x="171" y="192" type="curve" smooth="yes"/>
			<point x="171" y="172"/>
			<point x="186" y="157"/>
			<point x="205" y="157" type="curve" smooth="yes"/>
			<point x="225" y="157"/>
			<point x="239" y="172"/>
			<point x="239" y="192" type="curve" smooth="yes"/>
			<point x="239" y="210"/>
			<point x="226" y="226"/>
			<point x="205" y="226" type="curve" smooth="yes"/>
			<point x="186" y="226"/>
			<point x="171" y="209"/>
		</contour>
		<contour>
			<point x="206" y="110" type="curve" smooth="yes"/>
			<point x="206" y="91"/>
			<point x="220" y="77"/>
			<point x="238" y="77" type="curve" smooth="yes"/>
			<point x="257" y="77"/>
			<point x="271" y="91"/>
			<point x="271" y="110" type="curve" smooth="yes"/>
			<point x="271" y="126"/>
			<point x="257" y="142"/>
			<point x="238" y="142" type="curve" smooth="yes"/>
			<point x="220" y="142"/>
			<point x="206" y="126"/>
		</contour>
		<contour>
			<point x="251" y="34" type="curve" smooth="yes"/>
			<point x="251" y="15"/>
			<point x="267" y="0"/>
			<point x="284" y="0" type="curve" smooth="yes"/>
			<point x="302" y="0"/>
			<point x="317" y="14"/>
			<point x="317" y="34" type="curve" smooth="yes"/>
			<point x="317" y="50"/>
			<point x="303" y="66"/>
			<point x="284" y="66" type="curve" smooth="yes"/>
			<point x="265" y="66"/>
			<point x="251" y="51"/>
		</contour>
		<contour>
			<point x="292" y="110" type="curve" smooth="yes"/>
			<point x="292" y="91"/>
			<point x="306" y="77"/>
			<point x="325" y="77" type="curve" smooth="yes"/>
			<point x="343" y="77"/>
			<point x="357" y="91"/>
			<point x="357" y="110" type="curve" smooth="yes"/>
			<point x="357" y="126"/>
			<point x="343" y="142"/>
			<point x="325" y="142" type="curve" smooth="yes"/>
			<point x="306" y="142"/>
			<point x="292" y="126"/>
		</contour>
		<contour>
			<point x="324" y="192" type="curve" smooth="yes"/>
			<point x="324" y="172"/>
			<point x="338" y="157"/>
			<point x="358" y="157" type="curve" smooth="yes"/>
			<point x="377" y="157"/>
			<point x="392" y="172"/>
			<point x="392" y="192" type="curve" smooth="yes"/>
			<point x="392" y="209"/>
			<point x="377" y="226"/>
			<point x="358" y="226" type="curve" smooth="yes"/>
			<point x="337" y="226"/>
			<point x="324" y="210"/>
		</contour>
		<contour>
			<point x="356" y="281" type="curve" smooth="yes"/>
			<point x="356" y="262"/>
			<point x="371" y="246"/>
			<point x="391" y="246" type="curve" smooth="yes"/>
			<point x="410" y="246"/>
			<point x="425" y="261"/>
			<point x="425" y="281" type="curve" smooth="yes"/>
			<point x="425" y="298"/>
			<point x="410" y="315"/>
			<point x="391" y="315" type="curve" smooth="yes"/>
			<point x="371" y="315"/>
			<point x="356" y="299"/>
		</contour>
		<contour>
			<point x="389" y="370" type="curve" smooth="yes"/>
			<point x="389" y="350"/>
			<point x="404" y="335"/>
			<point x="424" y="335" type="curve" smooth="yes"/>
			<point x="443" y="335"/>
			<point x="458" y="350"/>
			<point x="458" y="370" type="curve" smooth="yes"/>
			<point x="458" y="387"/>
			<point x="443" y="404"/>
			<point x="424" y="404" type="curve" smooth="yes"/>
			<point x="404" y="404"/>
			<point x="389" y="387"/>
		</contour>
		<contour>
			<point x="422" y="459" type="curve" smooth="yes"/>
			<point x="422" y="439"/>
			<point x="437" y="424"/>
			<point x="457" y="424" type="curve" smooth="yes"/>
			<point x="477" y="424"/>
			<point x="492" y="439"/>
			<point x="492" y="459" type="curve" smooth="yes"/>
			<point x="492" y="476"/>
			<point x="477" y="494"/>
			<point x="457" y="494" type="curve" smooth="yes"/>
			<point x="437" y="494"/>
			<point x="422" y="477"/>
		</contour>
		<contour>
			<point x="454" y="549" type="curve" smooth="yes"/>
			<point x="454" y="529"/>
			<point x="470" y="514"/>
			<point x="490" y="514" type="curve" smooth="yes"/>
			<point x="509" y="514"/>
			<point x="525" y="529"/>
			<point x="525" y="549" type="curve" smooth="yes"/>
			<point x="525" y="566"/>
			<point x="509" y="584"/>
			<point x="490" y="584" type="curve" smooth="yes"/>
			<point x="470" y="584"/>
			<point x="454" y="567"/>
		</contour>
		<contour>
			<point x="487" y="639" type="curve" smooth="yes"/>
			<point x="487" y="619"/>
			<point x="503" y="604"/>
			<point x="523" y="604" type="curve" smooth="yes"/>
			<point x="542" y="604"/>
			<point x="558" y="619"/>
			<point x="558" y="639" type="curve" smooth="yes"/>
			<point x="558" y="656"/>
			<point x="542" y="674"/>
			<point x="523" y="674" type="curve" smooth="yes"/>
			<point x="503" y="674"/>
			<point x="487" y="657"/>
		</contour>
	</outline>
</glyph>
<glyph name="Z.ss01" format="2">
	<advance width="591"/>
	<note>
		Z.ss01
	</note>
	<outline>
		<contour>
			<point x="118" y="665" type="curve" smooth="yes"/>
			<point x="135" y="665"/>
			<point x="150" y="650"/>
			<point x="150" y="632" type="curve" smooth="yes"/>
			<point x="150" y="613"/>
			<point x="135" y="600"/>
			<point x="118" y="600" type="curve" smooth="yes"/>
			<point x="100" y="600"/>
			<point x="85" y="613"/>
			<point x="85" y="632" type="curve" smooth="yes"/>
			<point x="85" y="650"/>
			<point x="99" y="665"/>
		</contour>
		<contour>
			<point x="50" y="30" type="curve" smooth="yes"/>
			<point x="50" y="47"/>
			<point x="63" y="60"/>
			<point x="80" y="60" type="curve" smooth="yes"/>
			<point x="97" y="60"/>
			<point x="110" y="47"/>
			<point x="110" y="30" type="curve" smooth="yes"/>
			<point x="110" y="13"/>
			<point x="97" y="0"/>
			<point x="80" y="0" type="curve" smooth="yes"/>
			<point x="63" y="0"/>
			<point x="50" y="13"/>
		</contour>
		<contour>
			<point x="96" y="110" type="curve" smooth="yes"/>
			<point x="96" y="127"/>
			<point x="109" y="140"/>
			<point x="126" y="140" type="curve" smooth="yes"/>
			<point x="143" y="140"/>
			<point x="156" y="127"/>
			<point x="156" y="110" type="curve" smooth="yes"/>
			<point x="156" y="93"/>
			<point x="143" y="80"/>
			<point x="126" y="80" type="curve" smooth="yes"/>
			<point x="109" y="80"/>
			<point x="96" y="93"/>
		</contour>
		<contour>
			<point x="133" y="32" type="curve" smooth="yes"/>
			<point x="133" y="49"/>
			<point x="146" y="62"/>
			<point x="163" y="62" type="curve" smooth="yes"/>
			<point x="180" y="62"/>
			<point x="193" y="49"/>
			<point x="193" y="32" type="curve" smooth="yes"/>
			<point x="193" y="15"/>
			<point x="180" y="2"/>
			<point x="163" y="2" type="curve" smooth="yes"/>
			<point x="146" y="2"/>
			<point x="133" y="15"/>
		</contour>
		<contour>
			<point x="147" y="185" type="curve" smooth="yes"/>
			<point x="147" y="203"/>
			<point x="161" y="218"/>
			<point x="180" y="218" type="curve" smooth="yes"/>
			<point x="197" y="218"/>
			<point x="212" y="204"/>
			<point x="212" y="185" type="curve" smooth="yes"/>
			<point x="212" y="167"/>
			<point x="197" y="153"/>
			<point x="180" y="153" type="curve" smooth="yes"/>
			<point x="162" y="153"/>
			<point x="147" y="167"/>
		</contour>
		<contour>
			<point x="172" y="632" type="curve" smooth="yes"/>
			<point x="172" y="650"/>
			<point x="186" y="665"/>
			<point x="205" y="665" type="curve" smooth="yes"/>
			<point x="222" y="665"/>
			<point x="237" y="651"/>
			<point x="237" y="632" type="curve" smooth="yes"/>
			<point x="237" y="614"/>
			<point x="222" y="600"/>
			<point x="205" y="600" type="curve" smooth="yes"/>
			<point x="187" y="600"/>
			<point x="172" y="614"/>
		</contour>
		<contour>
			<point x="204" y="257" type="curve" smooth="yes"/>
			<point x="204" y="275"/>
			<point x="218" y="290"/>
			<point x="237" y="290" type="curve" smooth="yes"/>
			<point x="254" y="290"/>
			<point x="269" y="276"/>
			<point x="269" y="257" type="curve" smooth="yes"/>
			<point x="269" y="239"/>
			<point x="254" y="225"/>
			<point x="237" y="225" type="curve" smooth="yes"/>
			<point x="219" y="225"/>
			<point x="204" y="239"/>
		</contour>
		<contour>
			<point x="214" y="33" type="curve" smooth="yes"/>
			<point x="214" y="51"/>
			<point x="228" y="66"/>
			<point x="247" y="66" type="curve" smooth="yes"/>
			<point x="264" y="66"/>
			<point x="279" y="52"/>
			<point x="279" y="33" type="curve" smooth="yes"/>
			<point x="279" y="15"/>
			<point x="264" y="1"/>
			<point x="247" y="1" type="curve" smooth="yes"/>
			<point x="229" y="1"/>
			<point x="214" y="15"/>
		</contour>
		<contour>
			<point x="257" y="331" type="curve" smooth="yes"/>
			<point x="257" y="349"/>
			<point x="271" y="364"/>
			<point x="290" y="364" type="curve" smooth="yes"/>
			<point x="307" y="364"/>
			<point x="322" y="350"/>
			<point x="322" y="331" type="curve" smooth="yes"/>
			<point x="322" y="313"/>
			<point x="307" y="299"/>
			<point x="290" y="299" type="curve" smooth="yes"/>
			<point x="272" y="299"/>
			<point x="257" y="313"/>
		</contour>
		<contour>
			<point x="260" y="632" type="curve" smooth="yes"/>
			<point x="260" y="650"/>
			<point x="274" y="665"/>
			<point x="293" y="665" type="curve" smooth="yes"/>
			<point x="310" y="665"/>
			<point x="325" y="650"/>
			<point x="325" y="632" type="curve" smooth="yes"/>
			<point x="325" y="613"/>
			<point x="310" y="600"/>
			<point x="293" y="600" type="curve" smooth="yes"/>
			<point x="275" y="600"/>
			<point x="260" y="613"/>
		</contour>
		<contour>
			<point x="302" y="33" type="curve" smooth="yes"/>
			<point x="302" y="51"/>
			<point x="316" y="66"/>
			<point x="335" y="66" type="curve" smooth="yes"/>
			<point x="352" y="66"/>
			<point x="367" y="51"/>
			<point x="367" y="33" type="curve" smooth="yes"/>
			<point x="367" y="14"/>
			<point x="352" y="1"/>
			<point x="335" y="1" type="curve" smooth="yes"/>
			<point x="317" y="1"/>
			<point x="302" y="14"/>
		</contour>
		<contour>
			<point x="309" y="405" type="curve" smooth="yes"/>
			<point x="309" y="423"/>
			<point x="323" y="438"/>
			<point x="342" y="438" type="curve" smooth="yes"/>
			<point x="359" y="438"/>
			<point x="374" y="424"/>
			<point x="374" y="405" type="curve" smooth="yes"/>
			<point x="374" y="387"/>
			<point x="359" y="373"/>
			<point x="342" y="373" type="curve" smooth="yes"/>
			<point x="324" y="373"/>
			<point x="309" y="387"/>
		</contour>
		<contour>
			<point x="347" y="632" type="curve" smooth="yes"/>
			<point x="347" y="649"/>
			<point x="362" y="665"/>
			<point x="380" y="665" type="curve" smooth="yes"/>
			<point x="397" y="665"/>
			<point x="412" y="650"/>
			<point x="412" y="632" type="curve" smooth="yes"/>
			<point x="412" y="614"/>
			<point x="397" y="600"/>
			<point x="380" y="600" type="curve" smooth="yes"/>
			<point x="362" y="600"/>
			<point x="347" y="614"/>
		</contour>
		<contour>
			<point x="362" y="479" type="curve" smooth="yes"/>
			<point x="362" y="497"/>
			<point x="376" y="512"/>
			<point x="395" y="512" type="curve" smooth="yes"/>
			<point x="412" y="512"/>
			<point x="427" y="498"/>
			<point x="427" y="479" type="curve" smooth="yes"/>
			<point x="427" y="461"/>
			<point x="412" y="447"/>
			<point x="395" y="447" type="curve" smooth="yes"/>
			<point x="377" y="447"/>
			<point x="362" y="461"/>
		</contour>
		<contour>
			<point x="389" y="33" type="curve" smooth="yes"/>
			<point x="389" y="50"/>
			<point x="404" y="66"/>
			<point x="422" y="66" type="curve" smooth="yes"/>
			<point x="439" y="66"/>
			<point x="454" y="51"/>
			<point x="454" y="33" type="curve" smooth="yes"/>
			<point x="454" y="15"/>
			<point x="439" y="1"/>
			<point x="422" y="1" type="curve" smooth="yes"/>
			<point x="404" y="1"/>
			<point x="389" y="15"/>
		</contour>
		<contour>
			<point x="420" y="552" type="curve" smooth="yes"/>
			<point x="420" y="569"/>
			<point x="433" y="582"/>
			<point x="450" y="582" type="curve" smooth="yes"/>
			<point x="467" y="582"/>
			<point x="480" y="569"/>
			<point x="480" y="552" type="curve" smooth="yes"/>
			<point x="480" y="535"/>
			<point x="467" y="522"/>
			<point x="450" y="522" type="curve" smooth="yes"/>
			<point x="433" y="522"/>
			<point x="420" y="535"/>
		</contour>
		<contour>
			<point x="434" y="632" type="curve" smooth="yes"/>
			<point x="434" y="650"/>
			<point x="448" y="665"/>
			<point x="467" y="665" type="curve" smooth="yes"/>
			<point x="484" y="665"/>
			<point x="499" y="650"/>
			<point x="499" y="632" type="curve" smooth="yes"/>
			<point x="499" y="613"/>
			<point x="484" y="600"/>
			<point x="467" y="600" type="curve" smooth="yes"/>
			<point x="449" y="600"/>
			<point x="434" y="613"/>
		</contour>
		<contour>
			<point x="476" y="33" type="curve" smooth="yes"/>
			<point x="476" y="51"/>
			<point x="490" y="66"/>
			<point x="509" y="66" type="curve" smooth="yes"/>
			<point x="526" y="66"/>
			<point x="541" y="51"/>
			<point x="541" y="33" type="curve" smooth="yes"/>
			<point x="541" y="14"/>
			<point x="526" y="1"/>
			<point x="509" y="1" type="curve" smooth="yes"/>
			<point x="491" y="1"/>
			<point x="476" y="14"/>
		</contour>
	</outline>
</glyph>
<glyph name="a.ss01" format="2">
	<advance width="476"/>
	<note>
		a.ss01
	</note>
	<outline>
		<contour>
			<point x="224" y="487" type="curve" smooth="yes"/>
			<point x="224" y="502"/>
			<point x="236" y="515"/>
			<point x="252" y="515" type="curve" smooth="yes"/>
			<point x="267" y="515"/>
			<point x="280" y="502"/>
			<point x="280" y="487" type="curve" smooth="yes"/>
			<point x="280" y="471"/>
			<point x="267" y="458"/>
			<point x="252" y="458" type="curve" smooth="yes"/>
			<point x="236" y="458"/>
			<point x="222" y="471"/>
		</contour>
		<contour>
			<point x="50" y="183" type="curve" smooth="yes"/>
			<point x="50" y="164"/>
			<point x="66" y="148"/>
			<point x="85" y="148" type="curve" smooth="yes"/>
			<point x="104" y="148"/>
			<point x="120" y="164"/>
			<point x="120" y="183" type="curve" smooth="yes"/>
			<point x="120" y="202"/>
			<point x="105" y="218"/>
			<point x="85" y="218" type="curve" smooth="yes"/>
			<point x="66" y="218"/>
			<point x="50" y="202"/>
		</contour>
		<contour>
			<point x="52" y="89" type="curve" smooth="yes"/>
			<point x="52" y="70"/>
			<point x="68" y="54"/>
			<point x="87" y="54" type="curve" smooth="yes"/>
			<point x="108" y="54"/>
			<point x="122" y="69"/>
			<point x="122" y="89" type="curve" smooth="yes"/>
			<point x="122" y="107"/>
			<point x="106" y="124"/>
			<point x="87" y="124" type="curve" smooth="yes"/>
			<point x="68" y="124"/>
			<point x="52" y="108"/>
		</contour>
		<contour>
			<point x="76" y="459" type="curve" smooth="yes"/>
			<point x="76" y="474"/>
			<point x="89" y="487"/>
			<point x="104" y="487" type="curve" smooth="yes"/>
			<point x="120" y="487"/>
			<point x="132" y="474"/>
			<point x="132" y="459" type="curve" smooth="yes"/>
			<point x="134" y="443"/>
			<point x="120" y="430"/>
			<point x="104" y="430" type="curve" smooth="yes"/>
			<point x="89" y="430"/>
			<point x="76" y="443"/>
		</contour>
		<contour>
			<point x="104" y="255" type="curve" smooth="yes"/>
			<point x="104" y="272"/>
			<point x="117" y="287"/>
			<point x="135" y="287" type="curve" smooth="yes"/>
			<point x="152" y="287"/>
			<point x="168" y="272"/>
			<point x="168" y="255" type="curve" smooth="yes"/>
			<point x="168" y="237"/>
			<point x="152" y="223"/>
			<point x="135" y="223" type="curve" smooth="yes"/>
			<point x="117" y="223"/>
			<point x="104" y="237"/>
		</contour>
		<contour>
			<point x="113" y="18" type="curve" smooth="yes"/>
			<point x="113" y="-1"/>
			<point x="128" y="-16"/>
			<point x="147" y="-16" type="curve" smooth="yes"/>
			<point x="166" y="-16"/>
			<point x="181" y="-1"/>
			<point x="181" y="18" type="curve" smooth="yes"/>
			<point x="181" y="38"/>
			<point x="166" y="52"/>
			<point x="147" y="52" type="curve" smooth="yes"/>
			<point x="128" y="52"/>
			<point x="113" y="37"/>
		</contour>
		<contour>
			<point x="150" y="479" type="curve" smooth="yes"/>
			<point x="150" y="494"/>
			<point x="163" y="507"/>
			<point x="178" y="507" type="curve" smooth="yes"/>
			<point x="194" y="507"/>
			<point x="206" y="494"/>
			<point x="206" y="479" type="curve" smooth="yes"/>
			<point x="208" y="463"/>
			<point x="194" y="450"/>
			<point x="178" y="450" type="curve" smooth="yes"/>
			<point x="163" y="450"/>
			<point x="150" y="463"/>
		</contour>
		<contour>
			<point x="192" y="272" type="curve" smooth="yes"/>
			<point x="192" y="288"/>
			<point x="206" y="302"/>
			<point x="223" y="302" type="curve" smooth="yes"/>
			<point x="239" y="302"/>
			<point x="253" y="288"/>
			<point x="253" y="272" type="curve" smooth="yes"/>
			<point x="253" y="255"/>
			<point x="239" y="242"/>
			<point x="223" y="242" type="curve" smooth="yes"/>
			<point x="206" y="242"/>
			<point x="192" y="255"/>
		</contour>
		<contour>
			<point x="205" y="20" type="curve" smooth="yes"/>
			<point x="205" y="38"/>
			<point x="218" y="52"/>
			<point x="237" y="52" type="curve" smooth="yes"/>
			<point x="255" y="52"/>
			<point x="269" y="38"/>
			<point x="269" y="20" type="curve" smooth="yes"/>
			<point x="269" y="0"/>
			<point x="255" y="-13"/>
			<point x="237" y="-13" type="curve" smooth="yes"/>
			<point x="218" y="-13"/>
			<point x="205" y="1"/>
		</contour>
		<contour>
			<point x="275" y="262" type="curve" smooth="yes"/>
			<point x="275" y="277"/>
			<point x="287" y="290"/>
			<point x="303" y="290" type="curve" smooth="yes"/>
			<point x="318" y="290"/>
			<point x="331" y="277"/>
			<point x="331" y="262" type="curve" smooth="yes"/>
			<point x="331" y="246"/>
			<point x="318" y="233"/>
			<point x="303" y="233" type="curve" smooth="yes"/>
			<point x="287" y="233"/>
			<point x="275" y="246"/>
		</contour>
		<contour>
			<point x="279" y="63" type="curve" smooth="yes"/>
			<point x="279" y="80"/>
			<point x="291" y="93"/>
			<point x="309" y="93" type="curve" smooth="yes"/>
			<point x="326" y="93"/>
			<point x="339" y="80"/>
			<point x="339" y="63" type="curve" smooth="yes"/>
			<point x="339" y="45"/>
			<point x="326" y="32"/>
			<point x="309" y="32" type="curve" smooth="yes"/>
			<point x="291" y="32"/>
			<point x="279" y="45"/>
		</contour>
		<contour>
			<point x="292" y="457" type="curve" smooth="yes"/>
			<point x="292" y="473"/>
			<point x="307" y="488"/>
			<point x="323" y="488" type="curve" smooth="yes"/>
			<point x="341" y="488"/>
			<point x="354" y="473"/>
			<point x="354" y="457" type="curve" smooth="yes"/>
			<point x="354" y="439"/>
			<point x="341" y="426"/>
			<point x="323" y="426" type="curve" smooth="yes"/>
			<point x="306" y="426"/>
			<point x="292" y="440"/>
		</contour>
		<contour>
			<point x="335" y="386" type="curve" smooth="yes"/>
			<point x="335" y="367"/>
			<point x="350" y="353"/>
			<point x="368" y="353" type="curve" smooth="yes"/>
			<point x="386" y="353"/>
			<point x="401" y="368"/>
			<point x="401" y="386" type="curve" smooth="yes"/>
			<point x="401" y="404"/>
			<point x="386" y="419"/>
			<point x="368" y="419" type="curve" smooth="yes"/>
			<point x="350" y="419"/>
			<point x="335" y="404"/>
		</contour>
		<contour>
			<point x="339" y="120" type="curve" smooth="yes"/>
			<point x="339" y="101"/>
			<point x="352" y="87"/>
			<point x="371" y="87" type="curve" smooth="yes"/>
			<point x="389" y="87"/>
			<point x="404" y="101"/>
			<point x="404" y="120" type="curve" smooth="yes"/>
			<point x="404" y="136"/>
			<point x="389" y="152"/>
			<point x="371" y="152" type="curve" smooth="yes"/>
			<point x="352" y="152"/>
			<point x="339" y="137"/>
		</contour>
		<contour>
			<point x="339" y="207" type="curve" smooth="yes"/>
			<point x="339" y="224"/>
			<point x="352" y="239"/>
			<point x="371" y="239" type="curve" smooth="yes"/>
			<point x="389" y="239"/>
			<point x="404" y="224"/>
			<point x="404" y="207" type="curve" smooth="yes"/>
			<point x="404" y="188"/>
			<point x="389" y="174"/>
			<point x="371" y="174" type="curve" smooth="yes"/>
			<point x="352" y="174"/>
			<point x="339" y="189"/>
		</contour>
		<contour>
			<point x="339" y="294" type="curve" smooth="yes"/>
			<point x="339" y="311"/>
			<point x="352" y="326"/>
			<point x="371" y="326" type="curve" smooth="yes"/>
			<point x="389" y="326"/>
			<point x="404" y="311"/>
			<point x="404" y="294" type="curve" smooth="yes"/>
			<point x="404" y="275"/>
			<point x="389" y="261"/>
			<point x="371" y="261" type="curve" smooth="yes"/>
			<point x="352" y="261"/>
			<point x="339" y="276"/>
		</contour>
		<contour>
			<point x="371" y="34" type="curve" smooth="yes"/>
			<point x="371" y="16"/>
			<point x="384" y="1"/>
			<point x="403" y="1" type="curve" smooth="yes"/>
			<point x="421" y="2"/>
			<point x="436" y="16"/>
			<point x="436" y="34" type="curve" smooth="yes"/>
			<point x="436" y="53"/>
			<point x="421" y="66"/>
			<point x="403" y="66" type="curve" smooth="yes"/>
			<point x="384" y="66"/>
			<point x="371" y="52"/>
		</contour>
	</outline>
</glyph>
<glyph name="b.ss01" format="2">
	<advance width="525"/>
	<note>
		b.ss01
	</note>
	<outline>
		<contour>
			<point x="58" y="642" type="curve" smooth="yes"/>
			<point x="58" y="659"/>
			<point x="72" y="674"/>
			<point x="90" y="674" type="curve" smooth="yes"/>
			<point x="108" y="674"/>
			<point x="123" y="659"/>
			<point x="123" y="642" type="curve" smooth="yes"/>
			<point x="123" y="624"/>
			<point x="107" y="609"/>
			<point x="90" y="609" type="curve" smooth="yes"/>
			<point x="72" y="609"/>
			<point x="58" y="624"/>
		</contour>
		<contour>
			<point x="38" y="33" type="curve" smooth="yes"/>
			<point x="38" y="15"/>
			<point x="51" y="0"/>
			<point x="70" y="0" type="curve" smooth="yes"/>
			<point x="88" y="1"/>
			<point x="103" y="15"/>
			<point x="103" y="33" type="curve" smooth="yes"/>
			<point x="103" y="51"/>
			<point x="88" y="65"/>
			<point x="70" y="65" type="curve" smooth="yes"/>
			<point x="51" y="65"/>
			<point x="38" y="51"/>
		</contour>
		<contour>
			<point x="58" y="120" type="curve" smooth="yes"/>
			<point x="58" y="101"/>
			<point x="71" y="87"/>
			<point x="90" y="87" type="curve" smooth="yes"/>
			<point x="108" y="87"/>
			<point x="123" y="101"/>
			<point x="123" y="120" type="curve" smooth="yes"/>
			<point x="123" y="136"/>
			<point x="108" y="152"/>
			<point x="90" y="152" type="curve" smooth="yes"/>
			<point x="71" y="152"/>
			<point x="58" y="137"/>
		</contour>
		<contour>
			<point x="58" y="207" type="curve" smooth="yes"/>
			<point x="58" y="224"/>
			<point x="71" y="239"/>
			<point x="90" y="239" type="curve" smooth="yes"/>
			<point x="108" y="239"/>
			<point x="123" y="224"/>
			<point x="123" y="207" type="curve" smooth="yes"/>
			<point x="123" y="188"/>
			<point x="108" y="174"/>
			<point x="90" y="174" type="curve" smooth="yes"/>
			<point x="71" y="174"/>
			<point x="58" y="189"/>
		</contour>
		<contour>
			<point x="58" y="294" type="curve" smooth="yes"/>
			<point x="58" y="311"/>
			<point x="72" y="326"/>
			<point x="90" y="326" type="curve" smooth="yes"/>
			<point x="109" y="326"/>
			<point x="123" y="311"/>
			<point x="123" y="294" type="curve" smooth="yes"/>
			<point x="123" y="275"/>
			<point x="108" y="261"/>
			<point x="90" y="261" type="curve" smooth="yes"/>
			<point x="72" y="261"/>
			<point x="58" y="276"/>
		</contour>
		<contour>
			<point x="58" y="381" type="curve" smooth="yes"/>
			<point x="58" y="398"/>
			<point x="71" y="413"/>
			<point x="90" y="413" type="curve" smooth="yes"/>
			<point x="108" y="413"/>
			<point x="123" y="398"/>
			<point x="123" y="381" type="curve" smooth="yes"/>
			<point x="123" y="362"/>
			<point x="108" y="348"/>
			<point x="90" y="348" type="curve" smooth="yes"/>
			<point x="71" y="348"/>
			<point x="58" y="363"/>
		</contour>
		<contour>
			<point x="58" y="468" type="curve" smooth="yes"/>
			<point x="58" y="485"/>
			<point x="72" y="500"/>
			<point x="90" y="500" type="curve" smooth="yes"/>
			<point x="108" y="500"/>
			<point x="123" y="485"/>
			<point x="123" y="468" type="curve" smooth="yes"/>
			<point x="123" y="450"/>
			<point x="107" y="435"/>
			<point x="90" y="435" type="curve" smooth="yes"/>
			<point x="72" y="435"/>
			<point x="58" y="450"/>
		</contour>
		<contour>
			<point x="58" y="555" type="curve" smooth="yes"/>
			<point x="58" y="572"/>
			<point x="71" y="587"/>
			<point x="90" y="587" type="curve" smooth="yes"/>
			<point x="108" y="587"/>
			<point x="123" y="572"/>
			<point x="123" y="555" type="curve" smooth="yes"/>
			<point x="123" y="536"/>
			<point x="108" y="522"/>
			<point x="90" y="522" type="curve" smooth="yes"/>
			<point x="71" y="522"/>
			<point x="58" y="537"/>
		</contour>
		<contour>
			<point x="131" y="54" type="curve" smooth="yes"/>
			<point x="131" y="69"/>
			<point x="143" y="81"/>
			<point x="158" y="81" type="curve" smooth="yes"/>
			<point x="174" y="81"/>
			<point x="185" y="69"/>
			<point x="185" y="54" type="curve" smooth="yes"/>
			<point x="187" y="38"/>
			<point x="174" y="26"/>
			<point x="158" y="26" type="curve" smooth="yes"/>
			<point x="143" y="26"/>
			<point x="131" y="38"/>
		</contour>
		<contour>
			<point x="139" y="435" type="curve" smooth="yes"/>
			<point x="139" y="449"/>
			<point x="151" y="461"/>
			<point x="165" y="461" type="curve" smooth="yes"/>
			<point x="180" y="461"/>
			<point x="191" y="449"/>
			<point x="191" y="435" type="curve"/>
			<point x="193" y="420"/>
			<point x="180" y="408"/>
			<point x="165" y="408" type="curve" smooth="yes"/>
			<point x="151" y="408"/>
			<point x="139" y="420"/>
		</contour>
		<contour>
			<point x="196" y="479" type="curve" smooth="yes"/>
			<point x="196" y="493"/>
			<point x="208" y="505"/>
			<point x="222" y="505" type="curve" smooth="yes"/>
			<point x="237" y="505"/>
			<point x="248" y="493"/>
			<point x="248" y="479" type="curve"/>
			<point x="250" y="464"/>
			<point x="237" y="452"/>
			<point x="222" y="452" type="curve" smooth="yes"/>
			<point x="208" y="452"/>
			<point x="196" y="464"/>
		</contour>
		<contour>
			<point x="201" y="13" type="curve" smooth="yes"/>
			<point x="201" y="29"/>
			<point x="214" y="42"/>
			<point x="229" y="42" type="curve" smooth="yes"/>
			<point x="245" y="42"/>
			<point x="258" y="29"/>
			<point x="258" y="13" type="curve" smooth="yes"/>
			<point x="258" y="-2"/>
			<point x="245" y="-15"/>
			<point x="229" y="-15" type="curve" smooth="yes"/>
			<point x="214" y="-15"/>
			<point x="201" y="-2"/>
		</contour>
		<contour>
			<point x="268" y="487" type="curve" smooth="yes"/>
			<point x="268" y="502"/>
			<point x="280" y="515"/>
			<point x="296" y="515" type="curve" smooth="yes"/>
			<point x="311" y="515"/>
			<point x="324" y="502"/>
			<point x="324" y="487" type="curve" smooth="yes"/>
			<point x="324" y="471"/>
			<point x="311" y="458"/>
			<point x="296" y="458" type="curve" smooth="yes"/>
			<point x="280" y="458"/>
			<point x="266" y="471"/>
		</contour>
		<contour>
			<point x="279" y="13" type="curve" smooth="yes"/>
			<point x="279" y="29"/>
			<point x="291" y="42"/>
			<point x="307" y="42" type="curve" smooth="yes"/>
			<point x="322" y="42"/>
			<point x="335" y="29"/>
			<point x="335" y="13" type="curve" smooth="yes"/>
			<point x="335" y="-2"/>
			<point x="322" y="-15"/>
			<point x="307" y="-15" type="curve" smooth="yes"/>
			<point x="291" y="-15"/>
			<point x="279" y="-2"/>
		</contour>
		<contour>
			<point x="336" y="457" type="curve" smooth="yes"/>
			<point x="336" y="473"/>
			<point x="351" y="488"/>
			<point x="367" y="488" type="curve" smooth="yes"/>
			<point x="385" y="488"/>
			<point x="398" y="473"/>
			<point x="398" y="457" type="curve" smooth="yes"/>
			<point x="398" y="439"/>
			<point x="385" y="426"/>
			<point x="367" y="426" type="curve" smooth="yes"/>
			<point x="350" y="426"/>
			<point x="336" y="440"/>
		</contour>
		<contour>
			<point x="347" y="47" type="curve" smooth="yes"/>
			<point x="347" y="64"/>
			<point x="361" y="78"/>
			<point x="378" y="78" type="curve" smooth="yes"/>
			<point x="396" y="78"/>
			<point x="409" y="65"/>
			<point x="409" y="47" type="curve" smooth="yes"/>
			<point x="409" y="31"/>
			<point x="396" y="16"/>
			<point x="378" y="16" type="curve" smooth="yes"/>
			<point x="362" y="16"/>
			<point x="347" y="31"/>
		</contour>
		<contour>
			<point x="392" y="114" type="curve" smooth="yes"/>
			<point x="392" y="96"/>
			<point x="407" y="81"/>
			<point x="425" y="81" type="curve" smooth="yes"/>
			<point x="443" y="81"/>
			<point x="458" y="96"/>
			<point x="458" y="114" type="curve" smooth="yes"/>
			<point x="458" y="132"/>
			<point x="443" y="147"/>
			<point x="425" y="147" type="curve" smooth="yes"/>
			<point x="407" y="147"/>
			<point x="392" y="133"/>
		</contour>
		<contour>
			<point x="392" y="386" type="curve" smooth="yes"/>
			<point x="392" y="367"/>
			<point x="407" y="353"/>
			<point x="425" y="353" type="curve" smooth="yes"/>
			<point x="443" y="353"/>
			<point x="458" y="368"/>
			<point x="458" y="386" type="curve" smooth="yes"/>
			<point x="458" y="404"/>
			<point x="443" y="419"/>
			<point x="425" y="419" type="curve" smooth="yes"/>
			<point x="407" y="419"/>
			<point x="392" y="404"/>
		</contour>
		<contour>
			<point x="405" y="205" type="curve" smooth="yes"/>
			<point x="405" y="186"/>
			<point x="420" y="170"/>
			<point x="440" y="170" type="curve" smooth="yes"/>
			<point x="459" y="170"/>
			<point x="475" y="186"/>
			<point x="475" y="205" type="curve" smooth="yes"/>
			<point x="475" y="223"/>
			<point x="459" y="240"/>
			<point x="440" y="240" type="curve" smooth="yes"/>
			<point x="421" y="240"/>
			<point x="405" y="224"/>
		</contour>
		<contour>
			<point x="405" y="297" type="curve" smooth="yes"/>
			<point x="405" y="278"/>
			<point x="421" y="262"/>
			<point x="440" y="262" type="curve" smooth="yes"/>
			<point x="459" y="262"/>
			<point x="475" y="276"/>
			<point x="475" y="297" type="curve" smooth="yes"/>
			<point x="475" y="316"/>
			<point x="459" y="332"/>
			<point x="440" y="332" type="curve" smooth="yes"/>
			<point x="420" y="332"/>
			<point x="405" y="316"/>
		</contour>
	</outline>
</glyph>
<glyph name="d.ornm" format="2">
	<advance width="983"/>
	<note>
		d.ornm
	</note>
	<outline>
		<contour>
			<point x="326" y="208" type="line"/>
			<point x="870" y="479" type="line"/>
			<point x="873" y="513"/>
			<point x="853" y="555"/>
			<point x="801" y="559" type="curve" smooth="yes"/>
			<point x="783" y="561"/>
			<point x="760" y="558"/>
			<point x="740" y="548" type="curve" smooth="yes"/>
			<point x="459" y="406" type="line"/>
			<point x="451" y="411" type="line"/>
			<point x="517" y="453" type="line"/>
			<point x="204" y="541" type="line"/>
			<point x="193" y="522" type="line" smooth="yes"/>
			<point x="185" y="509"/>
			<point x="182" y="488"/>
			<point x="193" y="482" type="curve" smooth="yes"/>
			<point x="417" y="364" type="line"/>
			<point x="242" y="249" type="line"/>
			<point x="135" y="286" type="line"/>
			<point x="100" y="267" type="line"/>
			<point x="200" y="184" type="line"/>
		</contour>
		<contour>
			<point x="100" y="50" type="line"/>
			<point x="100" y="0" type="line"/>
			<point x="883" y="0" type="line"/>
			<point x="883" y="50" type="line"/>
		</contour>
	</outline>
</glyph>
<glyph name="f.ss01" format="2">
	<advance width="302"/>
	<note>
		f.ss01
	</note>
	<outline>
		<contour>
			<point x="218" y="666" type="curve" smooth="yes"/>
			<point x="218" y="682"/>
			<point x="231" y="695"/>
			<point x="247" y="695" type="curve" smooth="yes"/>
			<point x="264" y="695"/>
			<point x="276" y="682"/>
			<point x="276" y="666" type="curve" smooth="yes"/>
			<point x="276" y="649"/>
			<point x="264" y="636"/>
			<point x="247" y="636" type="curve" smooth="yes"/>
			<point x="231" y="636"/>
			<point x="218" y="649"/>
		</contour>
		<contour>
			<point x="20" y="471" type="curve" smooth="yes"/>
			<point x="20" y="455"/>
			<point x="33" y="442"/>
			<point x="49" y="442" type="curve" smooth="yes"/>
			<point x="65" y="442"/>
			<point x="78" y="455"/>
			<point x="78" y="471" type="curve" smooth="yes"/>
			<point x="78" y="487"/>
			<point x="64" y="500"/>
			<point x="49" y="500" type="curve" smooth="yes"/>
			<point x="33" y="500"/>
			<point x="20" y="487"/>
		</contour>
		<contour>
			<point x="98" y="33" type="curve" smooth="yes"/>
			<point x="98" y="15"/>
			<point x="113" y="1"/>
			<point x="131" y="0" type="curve" smooth="yes"/>
			<point x="150" y="0"/>
			<point x="163" y="15"/>
			<point x="163" y="33" type="curve" smooth="yes"/>
			<point x="163" y="51"/>
			<point x="150" y="65"/>
			<point x="131" y="65" type="curve" smooth="yes"/>
			<point x="113" y="65"/>
			<point x="98" y="51"/>
		</contour>
		<contour>
			<point x="98" y="120" type="curve" smooth="yes"/>
			<point x="98" y="101"/>
			<point x="113" y="87"/>
			<point x="131" y="87" type="curve" smooth="yes"/>
			<point x="150" y="87"/>
			<point x="163" y="101"/>
			<point x="163" y="120" type="curve" smooth="yes"/>
			<point x="163" y="137"/>
			<point x="150" y="152"/>
			<point x="131" y="152" type="curve" smooth="yes"/>
			<point x="113" y="152"/>
			<point x="98" y="136"/>
		</contour>
		<contour>
			<point x="98" y="208" type="curve" smooth="yes"/>
			<point x="98" y="225"/>
			<point x="113" y="240"/>
			<point x="131" y="240" type="curve" smooth="yes"/>
			<point x="150" y="240"/>
			<point x="163" y="225"/>
			<point x="163" y="208" type="curve" smooth="yes"/>
			<point x="163" y="190"/>
			<point x="150" y="175"/>
			<point x="131" y="175" type="curve" smooth="yes"/>
			<point x="113" y="175"/>
			<point x="98" y="189"/>
		</contour>
		<contour>
			<point x="98" y="295" type="curve" smooth="yes"/>
			<point x="98" y="312"/>
			<point x="112" y="327"/>
			<point x="131" y="327" type="curve" smooth="yes"/>
			<point x="149" y="327"/>
			<point x="163" y="312"/>
			<point x="163" y="295" type="curve" smooth="yes"/>
			<point x="163" y="277"/>
			<point x="149" y="262"/>
			<point x="131" y="262" type="curve" smooth="yes"/>
			<point x="113" y="262"/>
			<point x="98" y="276"/>
		</contour>
		<contour>
			<point x="98" y="383" type="curve" smooth="yes"/>
			<point x="98" y="400"/>
			<point x="113" y="415"/>
			<point x="131" y="415" type="curve" smooth="yes"/>
			<point x="150" y="415"/>
			<point x="163" y="400"/>
			<point x="163" y="383" type="curve" smooth="yes"/>
			<point x="163" y="365"/>
			<point x="150" y="350"/>
			<point x="131" y="350" type="curve" smooth="yes"/>
			<point x="113" y="350"/>
			<point x="98" y="364"/>
		</contour>
		<contour>
			<point x="98" y="471" type="curve" smooth="yes"/>
			<point x="98" y="488"/>
			<point x="113" y="503"/>
			<point x="131" y="503" type="curve" smooth="yes"/>
			<point x="149" y="503"/>
			<point x="163" y="488"/>
			<point x="163" y="471" type="curve" smooth="yes"/>
			<point x="163" y="453"/>
			<point x="149" y="438"/>
			<point x="131" y="438" type="curve" smooth="yes"/>
			<point x="114" y="438"/>
			<point x="98" y="453"/>
		</contour>
		<contour>
			<point x="98" y="559" type="curve" smooth="yes"/>
			<point x="98" y="541"/>
			<point x="113" y="526"/>
			<point x="131" y="526" type="curve" smooth="yes"/>
			<point x="149" y="526"/>
			<point x="164" y="540"/>
			<point x="164" y="559" type="curve" smooth="yes"/>
			<point x="164" y="577"/>
			<point x="149" y="592"/>
			<point x="131" y="592" type="curve" smooth="yes"/>
			<point x="113" y="592"/>
			<point x="98" y="577"/>
		</contour>
		<contour>
			<point x="140" y="635" type="curve" smooth="yes"/>
			<point x="140" y="651"/>
			<point x="153" y="666"/>
			<point x="171" y="666" type="curve" smooth="yes"/>
			<point x="187" y="666"/>
			<point x="202" y="651"/>
			<point x="202" y="635" type="curve" smooth="yes"/>
			<point x="202" y="618"/>
			<point x="188" y="604"/>
			<point x="171" y="604" type="curve" smooth="yes"/>
			<point x="153" y="604"/>
			<point x="140" y="617"/>
		</contour>
		<contour>
			<point x="183" y="471" type="curve" smooth="yes"/>
			<point x="183" y="455"/>
			<point x="196" y="442"/>
			<point x="212" y="442" type="curve" smooth="yes"/>
			<point x="228" y="442"/>
			<point x="241" y="455"/>
			<point x="241" y="471" type="curve" smooth="yes"/>
			<point x="241" y="487"/>
			<point x="228" y="500"/>
			<point x="212" y="500" type="curve" smooth="yes"/>
			<point x="196" y="500"/>
			<point x="183" y="487"/>
		</contour>
		<contour>
			<point x="261" y="471" type="curve" smooth="yes"/>
			<point x="261" y="455"/>
			<point x="274" y="442"/>
			<point x="290" y="442" type="curve" smooth="yes"/>
			<point x="306" y="442"/>
			<point x="319" y="455"/>
			<point x="319" y="471" type="curve" smooth="yes"/>
			<point x="319" y="487"/>
			<point x="306" y="500"/>
			<point x="290" y="500" type="curve" smooth="yes"/>
			<point x="274" y="500"/>
			<point x="261" y="487"/>
		</contour>
		<contour>
			<point x="294" y="652" type="curve" smooth="yes"/>
			<point x="294" y="668"/>
			<point x="306" y="680"/>
			<point x="323" y="680" type="curve" smooth="yes"/>
			<point x="339" y="681"/>
			<point x="352" y="668"/>
			<point x="352" y="652" type="curve" smooth="yes"/>
			<point x="352" y="635"/>
			<point x="339" y="623"/>
			<point x="323" y="623" type="curve" smooth="yes"/>
			<point x="306" y="623"/>
			<point x="294" y="635"/>
		</contour>
	</outline>
</glyph>
<glyph name="five.ss01" format="2">
	<advance width="462"/>
	<note>
		five.ss01
	</note>
	<outline>
		<contour>
			<point x="51" y="644" type="curve" smooth="yes"/>
			<point x="51" y="660"/>
			<point x="64" y="674"/>
			<point x="81" y="674" type="curve" smooth="yes"/>
			<point x="98" y="674"/>
			<point x="111" y="660"/>
			<point x="111" y="644" type="curve" smooth="yes"/>
			<point x="111" y="627"/>
			<point x="98" y="614"/>
			<point x="81" y="614" type="curve" smooth="yes"/>
			<point x="65" y="614"/>
			<point x="51" y="627"/>
		</contour>
		<contour>
			<point x="47" y="389" type="curve" smooth="yes"/>
			<point x="47" y="370"/>
			<point x="62" y="356"/>
			<point x="80" y="356" type="curve" smooth="yes"/>
			<point x="99" y="356"/>
			<point x="112" y="370"/>
			<point x="112" y="389" type="curve" smooth="yes"/>
			<point x="112" y="406"/>
			<point x="99" y="421"/>
			<point x="80" y="421" type="curve" smooth="yes"/>
			<point x="62" y="421"/>
			<point x="47" y="405"/>
		</contour>
		<contour>
			<point x="47" y="477" type="curve" smooth="yes"/>
			<point x="47" y="494"/>
			<point x="62" y="509"/>
			<point x="80" y="509" type="curve" smooth="yes"/>
			<point x="99" y="509"/>
			<point x="112" y="494"/>
			<point x="112" y="477" type="curve" smooth="yes"/>
			<point x="112" y="459"/>
			<point x="99" y="444"/>
			<point x="80" y="444" type="curve" smooth="yes"/>
			<point x="62" y="444"/>
			<point x="47" y="458"/>
		</contour>
		<contour>
			<point x="47" y="564" type="curve" smooth="yes"/>
			<point x="47" y="581"/>
			<point x="61" y="596"/>
			<point x="80" y="596" type="curve" smooth="yes"/>
			<point x="98" y="596"/>
			<point x="112" y="581"/>
			<point x="112" y="564" type="curve" smooth="yes"/>
			<point x="112" y="546"/>
			<point x="98" y="531"/>
			<point x="80" y="531" type="curve" smooth="yes"/>
			<point x="62" y="531"/>
			<point x="47" y="545"/>
		</contour>
		<contour>
			<point x="51" y="60" type="curve" smooth="yes"/>
			<point x="51" y="43"/>
			<point x="66" y="28"/>
			<point x="83" y="28" type="curve" smooth="yes"/>
			<point x="100" y="28"/>
			<point x="115" y="43"/>
			<point x="115" y="60" type="curve" smooth="yes"/>
			<point x="115" y="77"/>
			<point x="100" y="92"/>
			<point x="83" y="92" type="curve" smooth="yes"/>
			<point x="66" y="92"/>
			<point x="51" y="77"/>
		</contour>
		<contour>
			<point x="132" y="18" type="curve" smooth="yes"/>
			<point x="132" y="1"/>
			<point x="147" y="-14"/>
			<point x="164" y="-14" type="curve" smooth="yes"/>
			<point x="181" y="-14"/>
			<point x="196" y="1"/>
			<point x="196" y="18" type="curve" smooth="yes"/>
			<point x="196" y="35"/>
			<point x="181" y="50"/>
			<point x="164" y="50" type="curve" smooth="yes"/>
			<point x="147" y="50"/>
			<point x="132" y="35"/>
		</contour>
		<contour>
			<point x="133" y="644" type="curve" smooth="yes"/>
			<point x="133" y="660"/>
			<point x="146" y="674"/>
			<point x="163" y="674" type="curve" smooth="yes"/>
			<point x="180" y="674"/>
			<point x="193" y="660"/>
			<point x="193" y="644" type="curve" smooth="yes"/>
			<point x="193" y="627"/>
			<point x="180" y="614"/>
			<point x="163" y="614" type="curve" smooth="yes"/>
			<point x="147" y="614"/>
			<point x="133" y="627"/>
		</contour>
		<contour>
			<point x="137" y="389" type="curve" smooth="yes"/>
			<point x="137" y="370"/>
			<point x="152" y="356"/>
			<point x="170" y="356" type="curve" smooth="yes"/>
			<point x="189" y="356"/>
			<point x="202" y="370"/>
			<point x="202" y="389" type="curve" smooth="yes"/>
			<point x="202" y="406"/>
			<point x="189" y="421"/>
			<point x="170" y="421" type="curve" smooth="yes"/>
			<point x="152" y="421"/>
			<point x="137" y="405"/>
		</contour>
		<contour>
			<point x="215" y="644" type="curve" smooth="yes"/>
			<point x="215" y="628"/>
			<point x="229" y="614"/>
			<point x="245" y="614" type="curve" smooth="yes"/>
			<point x="261" y="614"/>
			<point x="275" y="628"/>
			<point x="275" y="644" type="curve" smooth="yes"/>
			<point x="275" y="660"/>
			<point x="261" y="674"/>
			<point x="245" y="674" type="curve" smooth="yes"/>
			<point x="229" y="674"/>
			<point x="215" y="660"/>
		</contour>
		<contour>
			<point x="226" y="18" type="curve" smooth="yes"/>
			<point x="226" y="1"/>
			<point x="241" y="-14"/>
			<point x="258" y="-14" type="curve" smooth="yes"/>
			<point x="275" y="-14"/>
			<point x="290" y="1"/>
			<point x="290" y="18" type="curve" smooth="yes"/>
			<point x="290" y="35"/>
			<point x="275" y="50"/>
			<point x="258" y="50" type="curve" smooth="yes"/>
			<point x="241" y="50"/>
			<point x="226" y="35"/>
		</contour>
		<contour>
			<point x="228" y="388" type="curve" smooth="yes"/>
			<point x="228" y="371"/>
			<point x="243" y="355"/>
			<point x="261" y="355" type="curve" smooth="yes"/>
			<point x="279" y="355"/>
			<point x="294" y="371"/>
			<point x="294" y="388" type="curve" smooth="yes"/>
			<point x="294" y="407"/>
			<point x="279" y="421"/>
			<point x="261" y="421" type="curve" smooth="yes"/>
			<point x="243" y="421"/>
			<point x="228" y="406"/>
		</contour>
		<contour>
			<point x="297" y="644" type="curve" smooth="yes"/>
			<point x="297" y="628"/>
			<point x="311" y="614"/>
			<point x="327" y="614" type="curve" smooth="yes"/>
			<point x="343" y="614"/>
			<point x="357" y="628"/>
			<point x="357" y="644" type="curve" smooth="yes"/>
			<point x="357" y="660"/>
			<point x="343" y="674"/>
			<point x="327" y="674" type="curve" smooth="yes"/>
			<point x="311" y="674"/>
			<point x="297" y="660"/>
		</contour>
		<contour>
			<point x="301" y="330" type="curve" smooth="yes"/>
			<point x="301" y="313"/>
			<point x="316" y="297"/>
			<point x="334" y="297" type="curve" smooth="yes"/>
			<point x="352" y="297"/>
			<point x="367" y="312"/>
			<point x="367" y="330" type="curve" smooth="yes"/>
			<point x="367" y="347"/>
			<point x="352" y="363"/>
			<point x="334" y="363" type="curve" smooth="yes"/>
			<point x="316" y="363"/>
			<point x="301" y="348"/>
		</contour>
		<contour>
			<point x="306" y="64" type="curve" smooth="yes"/>
			<point x="306" y="46"/>
			<point x="321" y="31"/>
			<point x="339" y="31" type="curve" smooth="yes"/>
			<point x="357" y="31"/>
			<point x="372" y="46"/>
			<point x="372" y="64" type="curve" smooth="yes"/>
			<point x="372" y="82"/>
			<point x="357" y="97"/>
			<point x="339" y="97" type="curve" smooth="yes"/>
			<point x="321" y="97"/>
			<point x="306" y="82"/>
		</contour>
		<contour>
			<point x="343" y="150" type="curve" smooth="yes"/>
			<point x="343" y="131"/>
			<point x="359" y="115"/>
			<point x="378" y="115" type="curve" smooth="yes"/>
			<point x="397" y="115"/>
			<point x="413" y="131"/>
			<point x="413" y="150" type="curve" smooth="yes"/>
			<point x="413" y="170"/>
			<point x="397" y="185"/>
			<point x="378" y="185" type="curve" smooth="yes"/>
			<point x="359" y="185"/>
			<point x="343" y="169"/>
		</contour>
		<contour>
			<point x="343" y="244" type="curve" smooth="yes"/>
			<point x="343" y="225"/>
			<point x="359" y="209"/>
			<point x="378" y="209" type="curve" smooth="yes"/>
			<point x="397" y="209"/>
			<point x="413" y="227"/>
			<point x="413" y="244" type="curve" smooth="yes"/>
			<point x="413" y="263"/>
			<point x="397" y="279"/>
			<point x="378" y="279" type="curve" smooth="yes"/>
			<point x="359" y="279"/>
			<point x="343" y="263"/>
		</contour>
	</outline>
</glyph>
<glyph name="four.ss01" format="2">
	<advance width="524"/>
	<note>
		four.ss01
	</note>
	<outline>
		<contour>
			<point x="368" y="623" type="curve" smooth="yes"/>
			<point x="387" y="623"/>
			<point x="400" y="638"/>
			<point x="400" y="656" type="curve" smooth="yes"/>
			<point x="400" y="673"/>
			<point x="387" y="688"/>
			<point x="368" y="688" type="curve" smooth="yes"/>
			<point x="350" y="688"/>
			<point x="335" y="673"/>
			<point x="335" y="656" type="curve" smooth="yes"/>
			<point x="335" y="637"/>
			<point x="350" y="623"/>
		</contour>
		<contour>
			<point x="29" y="251" type="curve" smooth="yes"/>
			<point x="29" y="267"/>
			<point x="43" y="281"/>
			<point x="59" y="281" type="curve" smooth="yes"/>
			<point x="75" y="281"/>
			<point x="89" y="267"/>
			<point x="89" y="251" type="curve" smooth="yes"/>
			<point x="89" y="235"/>
			<point x="75" y="221"/>
			<point x="59" y="221" type="curve" smooth="yes"/>
			<point x="43" y="221"/>
			<point x="29" y="235"/>
		</contour>
		<contour>
			<point x="75" y="326" type="curve" smooth="yes"/>
			<point x="75" y="342"/>
			<point x="89" y="356"/>
			<point x="105" y="356" type="curve" smooth="yes"/>
			<point x="122" y="356"/>
			<point x="135" y="342"/>
			<point x="135" y="326" type="curve" smooth="yes"/>
			<point x="135" y="310"/>
			<point x="121" y="296"/>
			<point x="105" y="296" type="curve" smooth="yes"/>
			<point x="89" y="296"/>
			<point x="75" y="310"/>
		</contour>
		<contour>
			<point x="110" y="251" type="curve" smooth="yes"/>
			<point x="110" y="267"/>
			<point x="124" y="281"/>
			<point x="140" y="281" type="curve" smooth="yes"/>
			<point x="156" y="281"/>
			<point x="170" y="267"/>
			<point x="170" y="251" type="curve" smooth="yes"/>
			<point x="170" y="235"/>
			<point x="156" y="221"/>
			<point x="140" y="221" type="curve" smooth="yes"/>
			<point x="124" y="221"/>
			<point x="110" y="235"/>
		</contour>
		<contour>
			<point x="126" y="401" type="curve" smooth="yes"/>
			<point x="126" y="417"/>
			<point x="140" y="431"/>
			<point x="156" y="431" type="curve" smooth="yes"/>
			<point x="172" y="431"/>
			<point x="186" y="417"/>
			<point x="186" y="401" type="curve" smooth="yes"/>
			<point x="186" y="386"/>
			<point x="172" y="371"/>
			<point x="156" y="371" type="curve" smooth="yes"/>
			<point x="140" y="371"/>
			<point x="126" y="385"/>
		</contour>
		<contour>
			<point x="173" y="467" type="curve" smooth="yes"/>
			<point x="173" y="483"/>
			<point x="187" y="497"/>
			<point x="203" y="497" type="curve" smooth="yes"/>
			<point x="219" y="497"/>
			<point x="233" y="483"/>
			<point x="233" y="467" type="curve" smooth="yes"/>
			<point x="233" y="451"/>
			<point x="219" y="437"/>
			<point x="203" y="437" type="curve" smooth="yes"/>
			<point x="187" y="437"/>
			<point x="173" y="451"/>
		</contour>
		<contour>
			<point x="192" y="251" type="curve" smooth="yes"/>
			<point x="192" y="267"/>
			<point x="206" y="281"/>
			<point x="222" y="281" type="curve" smooth="yes"/>
			<point x="238" y="281"/>
			<point x="252" y="267"/>
			<point x="252" y="251" type="curve" smooth="yes"/>
			<point x="252" y="235"/>
			<point x="238" y="221"/>
			<point x="222" y="221" type="curve" smooth="yes"/>
			<point x="206" y="221"/>
			<point x="192" y="235"/>
		</contour>
		<contour>
			<point x="219" y="537" type="curve" smooth="yes"/>
			<point x="219" y="553"/>
			<point x="235" y="567"/>
			<point x="249" y="567" type="curve" smooth="yes"/>
			<point x="265" y="567"/>
			<point x="279" y="553"/>
			<point x="279" y="537" type="curve" smooth="yes"/>
			<point x="279" y="521"/>
			<point x="265" y="507"/>
			<point x="249" y="507" type="curve" smooth="yes"/>
			<point x="233" y="507"/>
			<point x="219" y="521"/>
		</contour>
		<contour>
			<point x="250" y="33" type="curve" smooth="yes"/>
			<point x="250" y="15"/>
			<point x="265" y="1"/>
			<point x="283" y="1" type="curve" smooth="yes"/>
			<point x="302" y="0"/>
			<point x="315" y="15"/>
			<point x="315" y="33" type="curve" smooth="yes"/>
			<point x="315" y="51"/>
			<point x="302" y="65"/>
			<point x="283" y="65" type="curve" smooth="yes"/>
			<point x="265" y="65"/>
			<point x="250" y="51"/>
		</contour>
		<contour>
			<point x="267" y="605" type="curve" smooth="yes"/>
			<point x="267" y="621"/>
			<point x="280" y="635"/>
			<point x="297" y="635" type="curve" smooth="yes"/>
			<point x="314" y="635"/>
			<point x="327" y="621"/>
			<point x="327" y="605" type="curve" smooth="yes"/>
			<point x="327" y="588"/>
			<point x="314" y="575"/>
			<point x="297" y="575" type="curve" smooth="yes"/>
			<point x="281" y="575"/>
			<point x="267" y="588"/>
		</contour>
		<contour>
			<point x="272" y="251" type="curve" smooth="yes"/>
			<point x="272" y="267"/>
			<point x="286" y="281"/>
			<point x="302" y="281" type="curve" smooth="yes"/>
			<point x="318" y="281"/>
			<point x="332" y="267"/>
			<point x="332" y="251" type="curve" smooth="yes"/>
			<point x="332" y="234"/>
			<point x="318" y="221"/>
			<point x="302" y="221" type="curve" smooth="yes"/>
			<point x="286" y="221"/>
			<point x="272" y="235"/>
		</contour>
		<contour>
			<point x="335" y="33" type="curve" smooth="yes"/>
			<point x="335" y="15"/>
			<point x="350" y="1"/>
			<point x="368" y="0" type="curve" smooth="yes"/>
			<point x="387" y="0"/>
			<point x="400" y="15"/>
			<point x="400" y="33" type="curve" smooth="yes"/>
			<point x="400" y="51"/>
			<point x="387" y="65"/>
			<point x="368" y="65" type="curve" smooth="yes"/>
			<point x="350" y="65"/>
			<point x="335" y="51"/>
		</contour>
		<contour>
			<point x="335" y="122" type="curve" smooth="yes"/>
			<point x="335" y="103"/>
			<point x="350" y="89"/>
			<point x="368" y="89" type="curve" smooth="yes"/>
			<point x="387" y="89"/>
			<point x="400" y="103"/>
			<point x="400" y="122" type="curve" smooth="yes"/>
			<point x="400" y="139"/>
			<point x="387" y="154"/>
			<point x="368" y="154" type="curve" smooth="yes"/>
			<point x="350" y="154"/>
			<point x="335" y="138"/>
		</contour>
		<contour>
			<point x="335" y="211" type="curve" smooth="yes"/>
			<point x="335" y="228"/>
			<point x="350" y="243"/>
			<point x="368" y="243" type="curve" smooth="yes"/>
			<point x="387" y="243"/>
			<point x="400" y="228"/>
			<point x="400" y="211" type="curve" smooth="yes"/>
			<point x="400" y="193"/>
			<point x="387" y="178"/>
			<point x="368" y="178" type="curve" smooth="yes"/>
			<point x="350" y="178"/>
			<point x="335" y="192"/>
		</contour>
		<contour>
			<point x="335" y="300" type="curve" smooth="yes"/>
			<point x="335" y="317"/>
			<point x="349" y="332"/>
			<point x="368" y="332" type="curve" smooth="yes"/>
			<point x="386" y="332"/>
			<point x="400" y="317"/>
			<point x="400" y="300" type="curve" smooth="yes"/>
			<point x="400" y="282"/>
			<point x="386" y="267"/>
			<point x="368" y="267" type="curve" smooth="yes"/>
			<point x="350" y="267"/>
			<point x="335" y="281"/>
		</contour>
		<contour>
			<point x="335" y="389" type="curve" smooth="yes"/>
			<point x="335" y="406"/>
			<point x="350" y="421"/>
			<point x="368" y="421" type="curve" smooth="yes"/>
			<point x="387" y="421"/>
			<point x="400" y="406"/>
			<point x="400" y="389" type="curve" smooth="yes"/>
			<point x="400" y="371"/>
			<point x="387" y="356"/>
			<point x="368" y="356" type="curve" smooth="yes"/>
			<point x="350" y="356"/>
			<point x="335" y="370"/>
		</contour>
		<contour>
			<point x="335" y="478" type="curve" smooth="yes"/>
			<point x="335" y="495"/>
			<point x="350" y="510"/>
			<point x="368" y="510" type="curve" smooth="yes"/>
			<point x="386" y="510"/>
			<point x="400" y="495"/>
			<point x="400" y="478" type="curve" smooth="yes"/>
			<point x="400" y="460"/>
			<point x="386" y="445"/>
			<point x="368" y="445" type="curve" smooth="yes"/>
			<point x="351" y="445"/>
			<point x="335" y="460"/>
		</contour>
		<contour>
			<point x="335" y="567" type="curve" smooth="yes"/>
			<point x="335" y="584"/>
			<point x="350" y="599"/>
			<point x="368" y="599" type="curve" smooth="yes"/>
			<point x="387" y="599"/>
			<point x="400" y="584"/>
			<point x="400" y="567" type="curve" smooth="yes"/>
			<point x="400" y="549"/>
			<point x="387" y="534"/>
			<point x="368" y="534" type="curve" smooth="yes"/>
			<point x="350" y="534"/>
			<point x="335" y="548"/>
		</contour>
		<contour>
			<point x="409" y="251" type="curve" smooth="yes"/>
			<point x="409" y="267"/>
			<point x="423" y="281"/>
			<point x="439" y="281" type="curve" smooth="yes"/>
			<point x="455" y="281"/>
			<point x="469" y="267"/>
			<point x="469" y="251" type="curve" smooth="yes"/>
			<point x="469" y="234"/>
			<point x="455" y="221"/>
			<point x="439" y="221" type="curve" smooth="yes"/>
			<point x="423" y="221"/>
			<point x="409" y="235"/>
		</contour>
		<contour>
			<point x="420" y="33" type="curve" smooth="yes"/>
			<point x="420" y="15"/>
			<point x="435" y="1"/>
			<point x="453" y="1" type="curve" smooth="yes"/>
			<point x="472" y="0"/>
			<point x="485" y="15"/>
			<point x="485" y="33" type="curve" smooth="yes"/>
			<point x="485" y="51"/>
			<point x="472" y="65"/>
			<point x="453" y="65" type="curve" smooth="yes"/>
			<point x="435" y="65"/>
			<point x="420" y="51"/>
		</contour>
	</outline>
</glyph>
<glyph name="g.ornm" format="2">
	<advance width="953"/>
	<note>
		g.ornm
	</note>
	<outline>
		<contour>
			<point x="134" y="470" type="line"/>
			<point x="236" y="393" type="line"/>
			<point x="801" y="170" type="line"/>
			<point x="828" y="190"/>
			<point x="847" y="234"/>
			<point x="815" y="274" type="curve" smooth="yes"/>
			<point x="804" y="290"/>
			<point x="786" y="305"/>
			<point x="766" y="313" type="curve" smooth="yes"/>
			<point x="472" y="426" type="line"/>
			<point x="471" y="436" type="line"/>
			<point x="546" y="415" type="line"/>
			<point x="402" y="707" type="line"/>
			<point x="380" y="702" type="line" smooth="yes"/>
			<point x="365" y="699"/>
			<point x="348" y="687"/>
			<point x="351" y="675" type="curve" smooth="yes"/>
			<point x="412" y="430" type="line"/>
			<point x="210" y="483" type="line"/>
			<point x="166" y="587" type="line"/>
			<point x="129" y="601" type="line"/>
		</contour>
		<contour>
			<point x="100" y="50" type="line"/>
			<point x="100" y="0" type="line"/>
			<point x="853" y="0" type="line"/>
			<point x="853" y="50" type="line"/>
		</contour>
	</outline>
</glyph>
<glyph name="h.ss01" format="2">
	<advance width="493"/>
	<note>
		h.ss01
	</note>
	<outline>
		<contour>
			<point x="55" y="646" type="curve" smooth="yes"/>
			<point x="55" y="663"/>
			<point x="69" y="678"/>
			<point x="87" y="678" type="curve" smooth="yes"/>
			<point x="106" y="678"/>
			<point x="120" y="663"/>
			<point x="120" y="646" type="curve" smooth="yes"/>
			<point x="120" y="627"/>
			<point x="105" y="613"/>
			<point x="87" y="613" type="curve" smooth="yes"/>
			<point x="69" y="613"/>
			<point x="55" y="628"/>
		</contour>
		<contour>
			<point x="55" y="33" type="curve" smooth="yes"/>
			<point x="55" y="15"/>
			<point x="68" y="0"/>
			<point x="87" y="0" type="curve" smooth="yes"/>
			<point x="105" y="1"/>
			<point x="120" y="15"/>
			<point x="120" y="33" type="curve" smooth="yes"/>
			<point x="120" y="51"/>
			<point x="105" y="65"/>
			<point x="87" y="65" type="curve" smooth="yes"/>
			<point x="68" y="65"/>
			<point x="55" y="51"/>
		</contour>
		<contour>
			<point x="55" y="120" type="curve" smooth="yes"/>
			<point x="55" y="101"/>
			<point x="68" y="87"/>
			<point x="87" y="87" type="curve" smooth="yes"/>
			<point x="105" y="87"/>
			<point x="120" y="101"/>
			<point x="120" y="120" type="curve" smooth="yes"/>
			<point x="120" y="136"/>
			<point x="105" y="152"/>
			<point x="87" y="152" type="curve" smooth="yes"/>
			<point x="68" y="152"/>
			<point x="55" y="137"/>
		</contour>
		<contour>
			<point x="55" y="207" type="curve" smooth="yes"/>
			<point x="55" y="224"/>
			<point x="68" y="239"/>
			<point x="87" y="239" type="curve" smooth="yes"/>
			<point x="105" y="239"/>
			<point x="120" y="224"/>
			<point x="120" y="207" type="curve" smooth="yes"/>
			<point x="120" y="188"/>
			<point x="105" y="174"/>
			<point x="87" y="174" type="curve" smooth="yes"/>
			<point x="68" y="174"/>
			<point x="55" y="189"/>
		</contour>
		<contour>
			<point x="55" y="294" type="curve" smooth="yes"/>
			<point x="55" y="311"/>
			<point x="69" y="326"/>
			<point x="87" y="326" type="curve" smooth="yes"/>
			<point x="106" y="326"/>
			<point x="120" y="311"/>
			<point x="120" y="294" type="curve" smooth="yes"/>
			<point x="120" y="275"/>
			<point x="105" y="261"/>
			<point x="87" y="261" type="curve" smooth="yes"/>
			<point x="69" y="261"/>
			<point x="55" y="276"/>
		</contour>
		<contour>
			<point x="55" y="381" type="curve" smooth="yes"/>
			<point x="55" y="398"/>
			<point x="68" y="413"/>
			<point x="87" y="413" type="curve" smooth="yes"/>
			<point x="105" y="413"/>
			<point x="120" y="398"/>
			<point x="120" y="381" type="curve" smooth="yes"/>
			<point x="120" y="362"/>
			<point x="105" y="348"/>
			<point x="87" y="348" type="curve" smooth="yes"/>
			<point x="68" y="348"/>
			<point x="55" y="363"/>
		</contour>
		<contour>
			<point x="55" y="470" type="curve" smooth="yes"/>
			<point x="55" y="451"/>
			<point x="68" y="437"/>
			<point x="87" y="437" type="curve" smooth="yes"/>
			<point x="105" y="437"/>
			<point x="120" y="451"/>
			<point x="120" y="470" type="curve" smooth="yes"/>
			<point x="120" y="486"/>
			<point x="105" y="502"/>
			<point x="87" y="502" type="curve" smooth="yes"/>
			<point x="68" y="502"/>
			<point x="55" y="487"/>
		</contour>
		<contour>
			<point x="55" y="559" type="curve" smooth="yes"/>
			<point x="55" y="576"/>
			<point x="68" y="591"/>
			<point x="87" y="591" type="curve" smooth="yes"/>
			<point x="105" y="591"/>
			<point x="120" y="576"/>
			<point x="120" y="559" type="curve" smooth="yes"/>
			<point x="120" y="540"/>
			<point x="105" y="526"/>
			<point x="87" y="526" type="curve" smooth="yes"/>
			<point x="68" y="526"/>
			<point x="55" y="541"/>
		</contour>
		<contour>
			<point x="130" y="441" type="curve" smooth="yes"/>
			<point x="130" y="455"/>
			<point x="142" y="467"/>
			<point x="156" y="467" type="curve" smooth="yes"/>
			<point x="171" y="467"/>
			<point x="182" y="454"/>
			<point x="182" y="441" type="curve" smooth="yes"/>
			<point x="182" y="426"/>
			<point x="171" y="414"/>
			<point x="156" y="414" type="curve" smooth="yes"/>
			<point x="142" y="414"/>
			<point x="130" y="426"/>
		</contour>
		<contour>
			<point x="191" y="479" type="curve" smooth="yes"/>
			<point x="191" y="493"/>
			<point x="203" y="505"/>
			<point x="217" y="505" type="curve" smooth="yes"/>
			<point x="232" y="505"/>
			<point x="243" y="493"/>
			<point x="243" y="479" type="curve" smooth="yes"/>
			<point x="243" y="464"/>
			<point x="232" y="452"/>
			<point x="217" y="452" type="curve" smooth="yes"/>
			<point x="203" y="452"/>
			<point x="191" y="464"/>
		</contour>
		<contour>
			<point x="263" y="487" type="curve" smooth="yes"/>
			<point x="263" y="502"/>
			<point x="275" y="515"/>
			<point x="291" y="515" type="curve" smooth="yes"/>
			<point x="306" y="515"/>
			<point x="319" y="502"/>
			<point x="319" y="487" type="curve" smooth="yes"/>
			<point x="319" y="471"/>
			<point x="306" y="458"/>
			<point x="291" y="458" type="curve" smooth="yes"/>
			<point x="275" y="458"/>
			<point x="261" y="471"/>
		</contour>
		<contour>
			<point x="331" y="457" type="curve" smooth="yes"/>
			<point x="331" y="473"/>
			<point x="346" y="488"/>
			<point x="362" y="488" type="curve" smooth="yes"/>
			<point x="380" y="488"/>
			<point x="393" y="473"/>
			<point x="393" y="457" type="curve" smooth="yes"/>
			<point x="393" y="439"/>
			<point x="380" y="426"/>
			<point x="362" y="426" type="curve" smooth="yes"/>
			<point x="345" y="426"/>
			<point x="331" y="440"/>
		</contour>
		<contour>
			<point x="374" y="386" type="curve" smooth="yes"/>
			<point x="374" y="367"/>
			<point x="389" y="353"/>
			<point x="407" y="353" type="curve" smooth="yes"/>
			<point x="425" y="353"/>
			<point x="440" y="368"/>
			<point x="440" y="386" type="curve" smooth="yes"/>
			<point x="440" y="404"/>
			<point x="425" y="419"/>
			<point x="407" y="419" type="curve" smooth="yes"/>
			<point x="389" y="419"/>
			<point x="374" y="404"/>
		</contour>
		<contour>
			<point x="378" y="33" type="curve" smooth="yes"/>
			<point x="378" y="15"/>
			<point x="391" y="0"/>
			<point x="410" y="0" type="curve" smooth="yes"/>
			<point x="428" y="1"/>
			<point x="443" y="15"/>
			<point x="443" y="33" type="curve" smooth="yes"/>
			<point x="443" y="51"/>
			<point x="428" y="65"/>
			<point x="410" y="65" type="curve" smooth="yes"/>
			<point x="391" y="65"/>
			<point x="378" y="51"/>
		</contour>
		<contour>
			<point x="378" y="120" type="curve" smooth="yes"/>
			<point x="378" y="101"/>
			<point x="391" y="87"/>
			<point x="410" y="87" type="curve" smooth="yes"/>
			<point x="428" y="87"/>
			<point x="443" y="101"/>
			<point x="443" y="120" type="curve" smooth="yes"/>
			<point x="443" y="136"/>
			<point x="428" y="152"/>
			<point x="410" y="152" type="curve" smooth="yes"/>
			<point x="391" y="152"/>
			<point x="378" y="137"/>
		</contour>
		<contour>
			<point x="378" y="207" type="curve" smooth="yes"/>
			<point x="378" y="224"/>
			<point x="391" y="239"/>
			<point x="410" y="239" type="curve" smooth="yes"/>
			<point x="428" y="239"/>
			<point x="443" y="224"/>
			<point x="443" y="207" type="curve" smooth="yes"/>
			<point x="443" y="188"/>
			<point x="428" y="174"/>
			<point x="410" y="174" type="curve" smooth="yes"/>
			<point x="391" y="174"/>
			<point x="378" y="189"/>
		</contour>
		<contour>
			<point x="378" y="294" type="curve" smooth="yes"/>
			<point x="378" y="311"/>
			<point x="391" y="326"/>
			<point x="410" y="326" type="curve" smooth="yes"/>
			<point x="428" y="326"/>
			<point x="443" y="311"/>
			<point x="443" y="294" type="curve" smooth="yes"/>
			<point x="443" y="275"/>
			<point x="428" y="261"/>
			<point x="410" y="261" type="curve" smooth="yes"/>
			<point x="391" y="261"/>
			<point x="378" y="276"/>
		</contour>
	</outline>
</glyph>
<glyph name="i.ss01" format="2">
	<advance width="192"/>
	<note>
		i.ss01
	</note>
	<outline>
		<contour>
			<point x="55" y="619" type="curve" smooth="yes"/>
			<point x="55" y="595"/>
			<point x="73" y="577"/>
			<point x="96" y="577" type="curve" smooth="yes"/>
			<point x="119" y="577"/>
			<point x="137" y="595"/>
			<point x="137" y="619" type="curve" smooth="yes"/>
			<point x="137" y="642"/>
			<point x="119" y="659"/>
			<point x="96" y="659" type="curve" smooth="yes"/>
			<point x="73" y="659"/>
			<point x="55" y="642"/>
		</contour>
		<contour>
			<point x="64" y="33" type="curve" smooth="yes"/>
			<point x="64" y="15"/>
			<point x="77" y="0"/>
			<point x="96" y="0" type="curve" smooth="yes"/>
			<point x="114" y="1"/>
			<point x="129" y="15"/>
			<point x="129" y="33" type="curve" smooth="yes"/>
			<point x="129" y="51"/>
			<point x="114" y="65"/>
			<point x="96" y="65" type="curve" smooth="yes"/>
			<point x="77" y="65"/>
			<point x="64" y="51"/>
		</contour>
		<contour>
			<point x="64" y="120" type="curve" smooth="yes"/>
			<point x="64" y="101"/>
			<point x="77" y="87"/>
			<point x="96" y="87" type="curve" smooth="yes"/>
			<point x="114" y="87"/>
			<point x="129" y="101"/>
			<point x="129" y="120" type="curve" smooth="yes"/>
			<point x="129" y="136"/>
			<point x="114" y="152"/>
			<point x="96" y="152" type="curve" smooth="yes"/>
			<point x="77" y="152"/>
			<point x="64" y="137"/>
		</contour>
		<contour>
			<point x="64" y="207" type="curve" smooth="yes"/>
			<point x="64" y="224"/>
			<point x="77" y="239"/>
			<point x="96" y="239" type="curve" smooth="yes"/>
			<point x="114" y="239"/>
			<point x="129" y="224"/>
			<point x="129" y="207" type="curve" smooth="yes"/>
			<point x="129" y="188"/>
			<point x="114" y="174"/>
			<point x="96" y="174" type="curve" smooth="yes"/>
			<point x="77" y="174"/>
			<point x="64" y="189"/>
		</contour>
		<contour>
			<point x="64" y="294" type="curve" smooth="yes"/>
			<point x="64" y="311"/>
			<point x="78" y="326"/>
			<point x="96" y="326" type="curve" smooth="yes"/>
			<point x="115" y="326"/>
			<point x="129" y="311"/>
			<point x="129" y="294" type="curve" smooth="yes"/>
			<point x="129" y="275"/>
			<point x="114" y="261"/>
			<point x="96" y="261" type="curve" smooth="yes"/>
			<point x="78" y="261"/>
			<point x="64" y="276"/>
		</contour>
		<contour>
			<point x="64" y="381" type="curve" smooth="yes"/>
			<point x="64" y="398"/>
			<point x="77" y="413"/>
			<point x="96" y="413" type="curve" smooth="yes"/>
			<point x="114" y="413"/>
			<point x="129" y="398"/>
			<point x="129" y="381" type="curve" smooth="yes"/>
			<point x="129" y="362"/>
			<point x="114" y="348"/>
			<point x="96" y="348" type="curve" smooth="yes"/>
			<point x="77" y="348"/>
			<point x="64" y="363"/>
		</contour>
		<contour>
			<point x="64" y="468" type="curve" smooth="yes"/>
			<point x="64" y="485"/>
			<point x="78" y="500"/>
			<point x="96" y="500" type="curve" smooth="yes"/>
			<point x="114" y="500"/>
			<point x="129" y="485"/>
			<point x="129" y="468" type="curve" smooth="yes"/>
			<point x="129" y="450"/>
			<point x="113" y="435"/>
			<point x="96" y="435" type="curve" smooth="yes"/>
			<point x="78" y="435"/>
			<point x="64" y="450"/>
		</contour>
	</outline>
</glyph>
